<?xml version="1.0" encoding="UTF-8" standalone="no"?>
<svg
   xmlns:dc="http://purl.org/dc/elements/1.1/"
   xmlns:cc="http://creativecommons.org/ns#"
   xmlns:rdf="http://www.w3.org/1999/02/22-rdf-syntax-ns#"
   xmlns:svg="http://www.w3.org/2000/svg"
   xmlns="http://www.w3.org/2000/svg"
   xmlns:xlink="http://www.w3.org/1999/xlink"
   xmlns:sodipodi="http://sodipodi.sourceforge.net/DTD/sodipodi-0.dtd"
   xmlns:inkscape="http://www.inkscape.org/namespaces/inkscape"
   width="195.99692mm"
   height="147.77092mm"
   viewBox="0 0 195.99692 147.77092"
   version="1.1"
   id="svg8"
   inkscape:version="1.0.1 (3bc2e813f5, 2020-09-07)"
   sodipodi:docname="favicon.svg"
   inkscape:export-filename="E:\Download\favicon.png"
   inkscape:export-xdpi="96"
   inkscape:export-ydpi="96">
  <defs
     id="defs2">
    <linearGradient
       inkscape:collect="always"
       id="linearGradient846">
      <stop
         style="stop-color:#ff75ed;stop-opacity:1"
         offset="0"
         id="stop842" />
      <stop
         style="stop-color:#ffffff;stop-opacity:1"
         offset="1"
         id="stop844" />
    </linearGradient>
    <linearGradient
       inkscape:collect="always"
       xlink:href="#linearGradient846"
       id="linearGradient848"
       x1="99.998329"
       y1="3.8506308"
       x2="99.998322"
       y2="150.05655"
       gradientUnits="userSpaceOnUse" />
  </defs>
  <sodipodi:namedview
     id="base"
     pagecolor="#ffffff"
     bordercolor="#666666"
     borderopacity="1.0"
     inkscape:pageopacity="0.0"
     inkscape:pageshadow="2"
     inkscape:zoom="0.98994949"
     inkscape:cx="227.52591"
     inkscape:cy="246.76639"
     inkscape:document-units="mm"
     inkscape:current-layer="layer1"
     inkscape:document-rotation="0"
     showgrid="false"
     showguides="true"
     inkscape:guide-bbox="true"
     inkscape:snap-bbox="true"
     inkscape:snap-bbox-midpoints="true"
     inkscape:window-width="1920"
     inkscape:window-height="1017"
     inkscape:window-x="1912"
     inkscape:window-y="-8"
     inkscape:window-maximized="1"
     inkscape:pagecheckerboard="true">
    <sodipodi:guide
       position="97.998463,146.98842"
       orientation="1,0"
       id="guide833" />
  </sodipodi:namedview>
  <metadata
     id="metadata5">
    <rdf:RDF>
      <cc:Work
         rdf:about="">
        <dc:format>image/svg+xml</dc:format>
        <dc:type
           rdf:resource="http://purl.org/dc/dcmitype/StillImage" />
        <dc:title></dc:title>
      </cc:Work>
    </rdf:RDF>
  </metadata>
  <g
     inkscape:label="Layer 1"
     inkscape:groupmode="layer"
     id="layer1"
     transform="translate(-1.9998628,-3.0681307)">
    <path
       id="path839"
       style="fill:url(#linearGradient848);fill-opacity:1;stroke:#000000;stroke-width:1.565;stroke-linecap:butt;stroke-linejoin:miter;stroke-miterlimit:4;stroke-dasharray:none;stroke-opacity:1"
       d="M 99.998325,3.8506307 H 50.318075 L 3.106485,51.06222 24.615695,72.571427 50.507065,46.680059 V 150.05655 h 49.49126 m 0,-146.2059193 H 149.67857 L 196.89016,51.06222 175.38095,72.571427 149.48958,46.680059 V 150.05655 H 99.998325"
       inkscape:export-xdpi="96"
       inkscape:export-ydpi="96" />
    <g
       aria-label="J"
       id="text852"
       style="font-size:10.5833px;line-height:1.25;font-family:'SF Fedora';-inkscape-font-specification:'SF Fedora';stroke-width:0.264583">
      <g
         id="g872"
         style="opacity:1">
        <path
           style="color:#000000;font-style:normal;font-variant:normal;font-weight:normal;font-stretch:normal;font-size:105.833px;line-height:1.25;font-family:'SF Fedora';-inkscape-font-specification:'SF Fedora';font-variant-ligatures:normal;font-variant-position:normal;font-variant-caps:normal;font-variant-numeric:normal;font-variant-alternates:normal;font-variant-east-asian:normal;font-feature-settings:normal;font-variation-settings:normal;text-indent:0;text-align:start;text-decoration:none;text-decoration-line:none;text-decoration-style:solid;text-decoration-color:#000000;letter-spacing:normal;word-spacing:normal;text-transform:none;writing-mode:lr-tb;direction:ltr;text-orientation:mixed;dominant-baseline:auto;baseline-shift:baseline;text-anchor:start;white-space:normal;shape-padding:0;shape-margin:0;inline-size:0;clip-rule:nonzero;display:inline;overflow:visible;visibility:visible;isolation:auto;mix-blend-mode:normal;color-interpolation:sRGB;color-interpolation-filters:linearRGB;solid-color:#000000;solid-opacity:1;vector-effect:none;fill:#000000;fill-opacity:1;fill-rule:nonzero;stroke:none;stroke-width:0.264583;stroke-linecap:butt;stroke-linejoin:miter;stroke-miterlimit:4;stroke-dasharray:none;stroke-dashoffset:0;stroke-opacity:1;color-rendering:auto;image-rendering:auto;shape-rendering:auto;text-rendering:auto;enable-background:accumulate;stop-color:#000000;stop-opacity:1"
           d="m 130.65234,49.074219 c -19.85276,1.389945 3.38815,0.153108 0.012,0.359813 -3.37619,0.206705 5.69871,-0.83681 -0.57134,-0.457851 l 7.54474,3.255605 c -1.13688,2.411559 -2.37711,5.270979 -3.7207,8.57826 -1.34358,3.307281 -2.79051,7.079649 -4.3408,11.317104 -1.82589,5.098725 -3.35896,9.284502 -4.59919,12.557333 -1.24023,3.272831 -2.25653,5.804968 -3.0489,7.596412 -5.02983,11.885545 -13.62531,21.152825 -25.786458,27.801835 -8.233753,4.44416 -15.899066,6.66624 -22.99594,6.66624 -7.303579,0 -12.522883,-2.60104 -15.65791,-7.80312 l 19.998716,-16.74311 c 1.481387,1.48139 3.46231,2.22208 5.942771,2.22208 5.649939,0 10.128549,-3.80682 13.43583,-11.420458 1.963699,-4.857569 4.392481,-10.80034 7.286351,-17.828313 2.89387,-7.027973 6.35618,-15.382303 10.38693,-25.06299 -1.27468,0.172254 -2.85942,0.327283 -4.75421,0.465086 -1.86035,0.137803 15.91008,-1.548781 13.32627,-1.410978 v 0 c 8.54381,-1.136878 0.41934,0.447252 6.93055,-0.06951 6.54566,-0.551213 -4.9749,-0.03054 -0.11733,-0.03054 2.82497,0 -1.614,-0.199606 0.72865,0.0071 z"
           id="path874"
           sodipodi:nodetypes="csccscsccsccscscccccscc" />
        <path
           style="color:#000000;font-style:normal;font-variant:normal;font-weight:normal;font-stretch:normal;font-size:105.833px;line-height:1.25;font-family:'SF Fedora';-inkscape-font-specification:'SF Fedora';font-variant-ligatures:normal;font-variant-position:normal;font-variant-caps:normal;font-variant-numeric:normal;font-variant-alternates:normal;font-variant-east-asian:normal;font-feature-settings:normal;font-variation-settings:normal;text-indent:0;text-align:start;text-decoration:none;text-decoration-line:none;text-decoration-style:solid;text-decoration-color:#000000;letter-spacing:normal;word-spacing:normal;text-transform:none;writing-mode:lr-tb;direction:ltr;text-orientation:mixed;dominant-baseline:auto;baseline-shift:baseline;text-anchor:start;white-space:normal;shape-padding:0;shape-margin:0;inline-size:0;clip-rule:nonzero;display:inline;overflow:visible;visibility:visible;isolation:auto;mix-blend-mode:normal;color-interpolation:sRGB;color-interpolation-filters:linearRGB;solid-color:#000000;solid-opacity:1;vector-effect:none;fill-opacity:1;fill-rule:nonzero;stroke:none;stroke-width:0.264583;stroke-linecap:butt;stroke-linejoin:miter;stroke-miterlimit:4;stroke-dasharray:none;stroke-dashoffset:0;stroke-opacity:1;color-rendering:auto;image-rendering:auto;shape-rendering:auto;text-rendering:auto;enable-background:accumulate;stop-color:#000000;stop-opacity:1"
           d="m 126.44955,49.201566 c -4.86257,0 3.20934,-0.585842 -3.33905,-0.0344 -6.5139,0.517016 0.0945,-0.14012 -8.45034,0.996895 l 0.0898,-0.21289 -11.8457,1.183594 0.2207,-0.01172 c 2.58372,-0.137798 4.80669,-0.274253 6.66797,-0.412109 1.80722,-0.131435 3.29297,-0.282246 4.53906,-0.445313 -3.989,9.581052 -7.43222,17.888123 -10.30273,24.859375 -2.89395,7.028154 -5.32326,12.972127 -7.287112,17.830078 -1.647744,3.791992 -3.585203,6.628769 -5.802735,8.513672 -2.218388,1.88563 -4.714508,2.82422 -7.509765,2.82422 -2.454125,0 -4.394329,-0.72831 -5.84961,-2.18359 l -0.08594,-0.0859 -20.177735,16.89453 0.05859,0.0957 c 3.15847,5.24098 8.436496,7.86719 15.771484,7.86719 7.124489,0 14.810861,-2.22994 23.058594,-6.68164 12.182682,-6.66079 20.802312,-15.95379 25.843752,-27.865236 l 0.002,-0.002 c 0.79399,-1.795249 1.81046,-4.328496 3.05078,-7.601562 1.24068,-3.274002 2.77354,-7.459377 4.59961,-12.558594 1.54987,-4.236303 2.99505,-8.007034 4.33789,-11.3125 1.34291,-3.305614 2.58325,-6.16167 3.71875,-8.570313 l 0.0586,-0.125 -7.16407,-3.089843 c 5.92543,-0.358228 -5.09866,1.225977 -1.85093,1.027137 3.37661,-0.206731 -24.82018,3.42369 -0.74825,2.03853 v 0 l 2.59921,-3.065669 v 0 0 c -2.34729,-0.207114 -1.37462,0.127349 -4.20282,0.127349 z m 1.60361,2.93832 c 2.75055,0 -2.29092,-0.196021 0,0 l 2.59921,-3.065669 c -0.59875,0.06815 2.80439,3.230049 -0.53023,3.434209 -3.37613,0.206701 6.23383,-4.043634 -0.0362,-3.664676 l -0.0449,0.253906 7.42187,3.203125 c -1.12461,2.392114 -2.34331,5.19829 -3.66797,8.458985 -1.34432,3.309096 -2.79304,7.083659 -4.34375,11.322265 -1.82572,5.098233 -3.35786,9.283028 -4.59765,12.554688 -1.23976,3.27158 -2.25624,5.802304 -3.04688,7.589843 v 0.002 c -5.01836,11.858454 -13.58975,21.101504 -25.728515,27.738284 -8.219772,4.43661 -15.862381,6.65039 -22.931641,6.65039 -7.225069,0 -12.356801,-2.5559 -15.474609,-7.65235 L 77.5,102.36523 c 1.497361,1.447 3.473696,2.19141 5.929688,2.19141 2.854681,0 5.421419,-0.96553 7.68164,-2.88672 2.260222,-1.921187 4.215876,-4.793835 5.875,-8.613279 v -0.002 h 0.002 c 1.963545,-4.857188 4.391359,-10.800334 7.285159,-17.828126 2.89378,-7.027751 6.35602,-15.381928 10.38672,-25.0625 l 0.0898,-0.21289 -0.22852,0.03125 c -1.27069,0.171716 -2.85313,0.325221 -4.74609,0.46289 -1.79752,0.13315 -3.96893,0.267186 -6.44336,0.400391 l 11,-0.580078 c 8.50913,-1.131177 -6.48786,0.51491 0,0 v 0 c 6.54294,-0.550983 8.86857,1.874261 13.72113,1.874261 z"
           id="path876"
           sodipodi:nodetypes="scccccccscssscccscccscscccscccccssccscccscscccsccsscccsccccccccs" />
      </g>
    </g>
    <rect
       style="fill:#fdfdfd;fill-opacity:0;stroke-width:1.565;stroke-linejoin:round;stroke-miterlimit:4;stroke-dasharray:none"
       id="rect854"
       width="87.690468"
       height="26.458332"
       x="72.303436"
       y="36.708012" />
    <rect
       style="fill:#000000;fill-opacity:1;stroke:#000000;stroke-width:1.565;stroke-linejoin:round;stroke-miterlimit:4;stroke-dasharray:none;stroke-opacity:1"
       id="rect862"
       width="71.437508"
       height="17.008926"
       x="74.42955"
       y="40.960243" />
  </g>
</svg>
