<?xml version="1.0" encoding="UTF-8" standalone="no"?>
<svg
   xmlns:dc="http://purl.org/dc/elements/1.1/"
   xmlns:cc="http://creativecommons.org/ns#"
   xmlns:rdf="http://www.w3.org/1999/02/22-rdf-syntax-ns#"
   xmlns:svg="http://www.w3.org/2000/svg"
   xmlns="http://www.w3.org/2000/svg"
   xmlns:sodipodi="http://sodipodi.sourceforge.net/DTD/sodipodi-0.dtd"
   xmlns:inkscape="http://www.inkscape.org/namespaces/inkscape"
   height="155"
   width="110"
   version="1.1"
   id="svg808"
   sodipodi:docname="hoody.svg"
   inkscape:version="0.92.2 5c3e80d, 2017-08-06">
  <metadata
     id="metadata814">
    <rdf:RDF>
      <cc:Work
         rdf:about="">
        <dc:format>image/svg+xml</dc:format>
        <dc:type
           rdf:resource="http://purl.org/dc/dcmitype/StillImage" />
        <dc:title></dc:title>
      </cc:Work>
    </rdf:RDF>
  </metadata>
  <defs
     id="defs812" />
  <sodipodi:namedview
     pagecolor="#ffffff"
     bordercolor="#666666"
     borderopacity="1"
     objecttolerance="10"
     gridtolerance="10"
     guidetolerance="10"
     inkscape:pageopacity="0"
     inkscape:pageshadow="2"
     inkscape:window-width="1920"
     inkscape:window-height="1027"
     id="namedview810"
     showgrid="false"
     inkscape:zoom="3.7828572"
     inkscape:cx="-48.757309"
     inkscape:cy="95.364561"
     inkscape:window-x="0"
     inkscape:window-y="0"
     inkscape:window-maximized="1"
     inkscape:current-layer="svg808"
     inkscape:pagecheckerboard="true" />
  <path
     d="m 12.518679,100.14898 a 1.354,1.354 0 0 1 -0.099,-0.327 c -0.279,-1.706 0.331,-3.196 0.428,-4.858004 0.079,-1.349 -0.662,-2.704 -0.413,-4.028 0.334,-1.773 0.999,-2.712 0.933,-4.504 -0.074,-2.044 0.26,-4.19 0.918,-6.126 0.575,-1.691 0.472,-3.552 0.761,-5.332 0.243,-1.49 0.334,-3.346 0.725,-4.744 0.23,-0.828 0.76,-1.538 0.917,-2.398 0.133,-0.726 -0.242,-1.39 -0.113,-2.142 0.413,-2.39 1.465,-5.295 3.215,-7.044 3.117,-3.116 9.84,-7.28 22.463,-7.28 h 23.12 c 14.923,0 23.613,2.525 26.565,6.461 1.496,1.995 2.89,3.324 3.728,5.71 0.626,1.778 0.59,3.605 1.012,5.41 0.294,1.256 0.958,2.365 1.302,3.605 1.117,4.024 1.103,8.503 1.537,12.64 0.198,1.886 0.587001,3.871 0.490001,5.771 -0.101001,1.967 -0.614001,3.892 -0.658001,5.864004 -0.036,1.615 0.244,3.261 0.411,4.863 0.326001,3.12501 0.585001,6.26502 -0.188,9.35202 -0.313,1.246 0.305,2.097 0.465001,3.149 0.258,1.684 -0.03,3.739 -0.471001,5.368 -0.27,1 0.142,1.83 -0.068,2.85 -0.202,0.985 -0.684,1.465 -0.714,2.478 -0.024,0.813 0.243,1.799 0.206,2.688 -0.127,3.003 -0.44,5.995 -0.642,8.975 -0.05,0.744 -0.574,1.142 -0.697,1.748 -0.152,0.738 -0.022,0.782 0.083,1.521 0.21,1.492 0.189,1.868 -0.527,3.448 -0.59,1.3 -1.251,2.741 -1.681,4.1 -0.275,0.867 -0.163,2.788 -1.129,3.27 -1.312,0.655 -7.379,-0.82 -7.706,-1.967 -0.423,-1.482 0.384,-3.214 0.308,-4.712 -0.075,-1.468 -1.184,-2.056 -1.447,-3.344 -0.36,-1.763 1.776,-3.694 1.032,-5.606 -0.66,-1.693 -1.28,-2.321 -1.273,-4.31 0.007,-2.259 0.393,-4.532 -0.293,-6.74 -0.761,-2.45 0.222,-5.09 -0.158,-7.594 -0.188,-1.242 -0.084,-2.346 -0.088,-3.486 -0.005,-1.772 -0.753,-3.512 -0.732,-5.255 0.017,-1.315 0.556,-2.36101 0.252,-3.74401 -0.285,-1.297 -0.75,-2.56701 -0.832,-3.89201 -0.069,-1.096 -0.085,-1.605 -0.408,-2.601 -0.683,-2.104004 0.2,-4.746004 -0.524,-6.612004 -2.564,0.481 -1.554,8.101004 -1.39,9.986004 0.12,1.394 0.58,2.70001 0.754,4.05601 0.22,1.70801 -0.275,3.41901 0.128,5.12801 0.42,1.778 0.803,3.139 0.44,5.071 -0.279,1.479 -0.933,2.74 -0.835,4.308 0.085,1.352 0.56,2.621 0.598,3.99 0.042,1.586 -0.244,3.06 0.225,4.615 0.325,1.079 0.13,2.606 -0.038,3.644 -0.348,2.146 1.185,4.186 0.524,6.21 -0.515,1.573 -0.87,2.068 -0.705,3.729 0.14,1.423 0.33,2.927 -0.786,4.043 -2.131,2.132 -24.268,3.444 -26.891,2.788 -3.772,0 -22.137,-0.164 -23.121,-1.476 -0.984,-1.312 -1.968,-2.952 -1.476,-4.428 0.68,-2.038 -0.444,-2.926 -0.47,-4.752 -0.023,-1.471 1.022,-2.563 0.796,-4.122 -0.215,-1.489 -1.26,-2.67 -0.802,-4.253 0.265,-0.915 0.917,-1.512 0.984,-2.476 0.044,-0.636 -0.457,-1.52 -0.49,-2.35 -0.127,-3.08 0.972,-5.962 0.82,-9 -0.087,-1.733 -0.36,-3.422 0.137,-5.114 0.53,-1.805 0.425,-3.01 0.516,-4.916 0.084,-1.76101 0.42,-3.21302 0.059,-4.97202 -0.426,-2.067 0.636,-7.216004 -1.041,-8.733004 -0.76,0.782 -0.174,2.846 -0.326,3.945 -0.31,2.240004 -0.342,4.344004 -0.706,6.544004 -0.146,0.88301 0.006,1.78701 -0.155,2.65001 -0.18,0.96701 -0.948,1.86001 -0.956,2.87101 -0.005,0.663 0.468,1.135 0.5,1.858 0.148,3.302 -2.094,6.532 -1.817,9.864 0.127,1.525 -0.522,2.976 -0.476,4.505 0.032,1.027 0.671,1.167 0.848,1.799 0.718,2.576 -1.333,5.926 -1.18,8.704 0.027,0.501 0.231,0.802 0.187,1.349 -0.039,0.479 -0.55,0.69 -0.518,1.24 0.024,0.401 0.613,0.805 0.71,1.248 0.25,1.13 -0.53,1.265 -0.974,2.065 -0.507,0.914 -0.568,1.286 -0.524,2.396 0.04,1.03 1.077,4.755 0.287,5.554 -0.492,0.492 -7.05,2.95 -8.527,1.474 -1.861,-1.864 0.496,-5.536 -0.58,-7.666 -0.733,-1.452 -2.023,-1.814 -2.14,-3.791 -0.1,-1.696 0.51,-3.37 0.416,-5.08 -1.34,-0.205 -0.908,-5.176 -1.122,-6.379 -0.185,-1.037 -0.803,-2.182 -0.613,-3.273 0.116,-0.664 0.803,-1.05 0.773,-1.86 -0.037,-1.015 -0.736,-1.05 -0.982,-1.947 -0.354,-1.29 0.288,-3.962 0.385,-5.344 0.15,-2.148 0.548,-4.273 0.514,-6.433 -0.026,-1.635 -1.396,-3.17001 -1.28,-4.63501 0.14,-1.79801 1.147,-1.37401 0.31,-3.26001"
     id="path4"
     inkscape:connector-curvature="0"
     style="fill:#ffffff" />
  <path
     d="m 100.03768,114.191 c -0.160001,-1.052 -0.778001,-1.903 -0.465001,-3.15 0.773001,-3.086 0.514001,-6.22601 0.188,-9.35102 -0.167,-1.602 -0.447,-3.248 -0.41,-4.863 0.043,-1.972004 0.556,-3.897004 0.657001,-5.864004 0.097,-1.9 -0.292001,-3.885 -0.490001,-5.77 -0.434,-4.138 -0.42,-8.617 -1.537,-12.64 -0.344,-1.24 -1.007,-2.35 -1.302,-3.606 -0.422,-1.805 -0.42,-3.62 -1.012,-5.41 -0.768,-2.331 -2.11,-3.26 -2.111,-3.655 0.008,2.096 1.036,4.102 0.666,6.196 -0.33,1.864 -0.586,3.856 -1.126,5.67 -0.447,1.504 -2.219,3.682 -2.086,5.199 1.293,0.176 2.053,-0.427 3.068,-1.108 0.953,-0.641 1.354,-0.857 1.652,0.39 0.407,1.698 0.105,4.07 -0.225,5.767 -0.396,2.042 -0.395,3.216 0.01,5.176 0.179,0.863 0.007,1.734 0.064,2.603 0.057,0.872 0.399,1.397 0.67,2.179 0.719,2.072 -0.651,4.380004 -1.04,6.392004 -0.26,1.34 -2.05,3.248 -1.654,4.58001 0.328,1.1 2.112,0.374 2.755,-0.018 0.166,2.416 -0.487,4.97101 -1.039,7.29101 -0.217,0.913 -0.1,1.827 -0.289,2.74 -0.288,1.4 -0.289,1.196 0.692,2.019 1.173,0.984 1.104,4.336 0.688,5.833 -0.661,2.372 -1.44,4.773 -2.66,6.923 -0.421,0.744 -1.535,1.901 -0.393,2.324 0.796,0.294 2.41,-0.494 3.214,-0.704 0.187,3.684 -1.793,8.01 -4.708,10.221 -2.631,1.995 0.736,1.952 2.255,2.041 -0.265,1.371 -0.848,4.596 -2.263,5.274 -0.845,0.405 -1.575,-0.127 -0.992,-1.011 0.436,-0.659 1.716,-0.741 2.402,-0.992 0.345,-1.404 -2.307,-2.327 -3.132,-3.059 -1.286,-1.144 -0.889,-2.353 -0.78,-3.946 0.598,0.074 1.194,0.217 1.793,0.277 2.57,0.257 2.578,-2.092 1.677,-3.835 -0.578,-1.118 -1.386,-2.326 -1.737,-3.541 -0.37,-1.283 0.218,-1.768 0.921,-2.757 1.964,-2.768 0.193,-3.735 -1.031,-6.207 -1.198,-2.421 -1.275,-4.077 -0.363,-6.588 0.615,-1.696 1.647,-0.527 2.757,-1.275 0.77,-0.518 0.382,-2.253 0.064,-2.996 -0.36,-0.84 -1.7,-1.565 -1.24,-2.529 0.496,-1.037 1.832,-0.692 0.526,-2 -1.512,-1.51501 -4.554,-2.38101 -4.789,-4.89902 -0.119,-1.269 1.05,-2.114 1.064,-3.297 0.011,-1.073 -0.892,-2.117 -1.01,-3.240004 -0.257,-2.435 -1.888,-4.73 -0.986,-7.25 0.434,-1.211 1.28,-2.147 1.562,-3.433 0.253,-1.156 0.31,-2.4 0.333,-3.581 -1.536,-0.441 -3.647,2.799 -3.51,0.22 0.045,-0.84 0.236,-1.83 0.565,-2.604 0.307,-0.72 0.902,-1.247 0.705,-2.096 -0.684,0.041 -1.424,0.625 -1.887,1.127 0.05,-0.876 0.65,-1.756 0.875,-2.634 0.322,-1.253 0.489,-2.573 0.695,-3.845 0.306,-1.885 3.322,-9.688 2.583,-13.067 -2.925,10.952 -7.075,11.972 -7.896,14.182 -0.837,2.254 -1.248,4.273 -1.768,6.612 -0.273,1.221 -0.693,1.545 -1.646,2.292 -0.975,0.762 -1.065,1.321 -1.243,2.497 -0.3,1.995 -0.117,3.979 -0.41,5.95 -0.151,1.02 -2.665,4.958 -1.03,5.015 -0.344,1.508 -1.327,2.798004 -1.596,4.343004 -0.13,0.75 -0.162,1.348 0.359,1.944 0.432,0.495 1.455,0.541 1.807,1.037 0.364,0.512 0.18,1.29401 0.143,1.86401 -0.164,2.58801 -0.243,5.19601 -0.179,7.79101 0.026,1.039 0.173,2.073 0.672,3.001 0.506,0.942 1.145,1.542 1.265,2.659 0.215,2.001 -0.153,4.315 -0.61,6.259 -0.409,1.734 -1.384,3.729 -1.404,5.51 1.8,-0.693 1.24,0.896 0.366,1.642 -0.67,0.57 -3.538,1.653 -3.698,2.414 -0.434,2.06 5.13,1.264 6.184,1.308 -1.587,2.084 -4.508,3.016 -6.893,3.875 -2.856,1.028 -5.9,2.161 -8.89,2.677 -2.74,0.472 -5.662,0.606 -8.436,0.918 -3.132,0.353 -6.398,0.64 -9.55,0.505 -2.067,-0.09 -4.416,-0.52 -6.435,-0.956 -1.52,-0.33 -2.959,-1.524 -3.56,-3.013 -0.226,-0.556 -0.537,-1.82 -0.047,-2.32 0.505,-0.516 1.345,0.12 1.803,-0.376 0.827,-0.894 -1.107,-2.916 -1.256,-3.87 1.094,-0.485 1.742,0.738 2.74,0.608 0.2,-1.881 -1.567,-3.34 -2.38,-4.857 -0.847,-1.579 -1.11,-3.965 -1.037,-5.735 0.035,-0.837 0.177,-2.45 0.915,-2.996 0.78,-0.578 1.863,0.102 2.718,0.26 -0.243,-2.665 -1.514,-4.968 -1.568,-7.577 -0.024,-1.181 -0.47,-5.03 1.885,-4.365 -0.122,-1.63001 -0.982,-3.32401 -1.515,-4.85502 -1.185,-3.401 -3.184,-6.550004 -3.79,-10.170004 -0.31,-1.84 -0.066,-3.697 -0.451,-5.545 -0.801,-3.837 -2.463,-7.38 -3.664,-11.082 -0.965,-2.976 -3.15,-5.547 -4.136,-8.576 -0.737,-2.263 -2.167,-4.627 -1.969,-7.096 -0.07,1.065 0.216,2.358 0.333,3.465 0.268,2.532 0.479,5.121 0.853,7.668 0.456,3.093 1.544,6.035 1.982,9.153 0.06,0.423 0.262,3.026 0.412,3.16 -1.686,-1.509 -2.588,-3.609 -4.137,-5.23 -1.874,-1.963 -1.584,0.569 -1.21,1.928 0.25,0.913 0.38,1.937 0.706,2.817 0.43,1.157 1.757,2.324 1.546,3.683 -1.029,-0.582 -1.788,-1.758 -2.749,-2.491 -0.744,-0.567 -2.077,-2.196 -3.078,-1.961 0.2,2.242 1.078,4.328 2.036,6.344 0.914,1.922 2.61,3.562 3.377,5.504 0.645,1.629 0.18,3.752004 0.265,5.473004 0.101,2.03 -0.286,4.01001 -1.119,5.86401 -0.84,1.87201 -2.18,3.01501 -3.255,4.67301 -0.782,1.203 0.127,1.211 0.399,2.227 0.094,0.348 -0.298,0.828 -0.166,1.121 0.286,0.636 0.41,0.147 0.933,0.324 0.558,0.188 0.397,-0.293 0.737,0.232 0.064,0.099 0.079,1.064 0.081,1.235 0.017,0.952 -0.553,1.39 -0.707,2.34 -0.065,0.403 -0.054,1.03 0.308,1.315 0.465,0.365 0.737,-0.084 1.168,0.03 1.062,0.283 0.602,1.116 0.332,2.172 -0.275,1.08 -0.698,2.178 -0.85,3.28 -0.287,2.071 0.79,3.462 1.115,5.396 0.172,1.023 -0.027,2.188 -0.229,3.195 -0.131,0.657 -0.714,2.257 0.66,1.76 0.031,1.236 -0.495,2.499 -0.63,3.743 -0.082,0.752 0.038,0.938 -0.379,1.66 -0.315,0.546 -0.684,0.873 -0.557,1.576 0.385,0.174 0.875,0.158 1.247,0.032 0.07,0.84 -0.494,1.448 -0.286,2.204 0.184,0.672 1.074,0.784 0.826,1.652 -0.272,0.942 -2.092,1.913 -2.932,2.262 -1.281,0.535 -1.327,0.079 -1.063,-1.157 0.336,-1.57 0.826,-1.068 1.926,-1.847 1.432,-1.016 -0.471,-2.304 -1.462,-2.637 -1.147,-0.385 -3.397,-1.157 -1.53,-2.496 0.57,-0.41 1.125,-0.161 1.389,-0.893 0.213,-0.594 -0.324,-1.431 -0.53,-1.952 -0.284,-0.723 -0.34,-1.538 -0.626,-2.236 -0.286,-0.703 -0.798,-0.927 -1.257,-1.498 -0.819,-1.018 -1.12,-2.805 -1.14,-4.089 0.967,-0.124 1.562,1.473 2.311,0.819 0.12,-1.327 -0.228,-2.707 -0.667,-3.95 -0.355,-1.004 -1.204,-1.876 -1.439,-2.896 -0.213,-0.925 0.316,-1.784 0.1,-2.705 -0.263,-1.115 -1.235,-1.817 -1.126,-3.055 0.183,-2.089 1.418,-4.289 1.25,-6.444 -0.068,-0.884 -3.088,-5.03701 -1.585,-5.58101 0.785,-0.284 1.537,1.84801 2.503,1.46801 0.717,-0.283 0.452,-1.44701 1.5,-1.57201 -0.217,-2.203 -0.565,-4.21001 -1.271,-6.32001 -0.693,-2.067 -1.746,-3.585004 -2.674,-5.497004 -0.998,-2.055 0.334,-3.046 1.061,-4.854 0.68,-1.688 0.155,-3.452 0.376,-5.2 0.248,-1.97 1.56,-3.618 1.612,-5.612 0.029,-1.089 -0.37,-4.125 1.618,-2.968 0.937,0.546 2.137,3.496 3.672,2.306 1.158,-0.899 -0.717,-3.242 -1.186,-4.128 -1.102,-2.086 -2.569,-4.051 -3.187,-6.354 -0.45,-1.674 -0.507,-4.908 0.671,-6.369 -1.33,1.65 -2.018,3.959 -2.374,6.015 -0.13,0.752 0.247,1.416 0.113,2.142 -0.158,0.86 -0.687,1.57 -0.917,2.398 -0.39,1.398 -0.482,3.254 -0.725,4.744 -0.29,1.78 -0.185,3.641 -0.76,5.332 -0.66,1.936 -0.993,4.082 -0.919,6.126 0.066,1.792 -0.599,2.731 -0.933,4.504 -0.25,1.324 0.492,2.679 0.413,4.028 -0.097,1.662004 -0.707,3.152004 -0.428,4.858004 0.02,0.118 0.055,0.226 0.099,0.326 0.837,1.886 -0.17,1.462 -0.31,3.26001 -0.116,1.466 1.254,3.00001 1.28,4.63501 0.034,2.16 -0.364,4.285 -0.514,6.433 -0.097,1.382 -0.739,4.054 -0.385,5.344 0.246,0.898 0.945,0.932 0.982,1.947 0.03,0.81 -0.657,1.196 -0.773,1.86 -0.19,1.09 0.428,2.236 0.613,3.273 0.214,1.203 -0.218,6.174 1.122,6.379 0.094,1.71 -0.517,3.384 -0.416,5.08 0.117,1.977 1.407,2.339 2.14,3.79 1.076,2.131 -1.281,5.803 0.58,7.667 1.476,1.476 8.035,-0.982 8.527,-1.474 0.79,-0.799 -0.247,-4.524 -0.287,-5.554 -0.044,-1.11 0.017,-1.482 0.524,-2.396 0.445,-0.8 1.223,-0.934 0.974,-2.065 -0.097,-0.443 -0.686,-0.847 -0.71,-1.248 -0.032,-0.55 0.479,-0.761 0.518,-1.24 0.044,-0.547 -0.16,-0.848 -0.187,-1.35 -0.153,-2.777 1.898,-6.127 1.18,-8.703 -0.177,-0.632 -0.816,-0.772 -0.848,-1.799 -0.046,-1.53 0.603,-2.98 0.476,-4.505 -0.277,-3.332 1.965,-6.562 1.817,-9.864 -0.032,-0.723 -0.505,-1.195 -0.5,-1.858 0.008,-1.01 0.776,-1.904 0.956,-2.87201 0.161,-0.862 0.009,-1.766 0.155,-2.64901 0.364,-2.2 0.396,-4.304 0.706,-6.544004 0.152,-1.099 -0.434,-3.163 0.326,-3.945 1.677,1.517 0.615,6.666004 1.04,8.733004 0.363,1.759 0.026,3.21001 -0.058,4.97202 -0.091,1.907 0.014,3.11 -0.516,4.916 -0.497,1.692 -0.223,3.381 -0.138,5.113 0.153,3.039 -0.946,5.922 -0.82,9 0.034,0.831 0.535,1.715 0.49,2.351 -0.066,0.964 -0.718,1.561 -0.983,2.476 -0.457,1.583 0.587,2.764 0.802,4.253 0.226,1.559 -0.82,2.651 -0.797,4.122 0.027,1.826 1.15,2.714 0.471,4.752 -0.492,1.476 0.492,3.116 1.476,4.428 0.984,1.312 19.349,1.476 23.12,1.476 2.624,0.656 24.76,-0.656 26.892,-2.788 1.116,-1.116 0.926,-2.62 0.786,-4.043 -0.164,-1.661 0.19,-2.156 0.705,-3.73 0.661,-2.023 -0.872,-4.063 -0.524,-6.209 0.168,-1.038 0.363,-2.565 0.038,-3.644 -0.47,-1.556 -0.183,-3.029 -0.225,-4.614 -0.037,-1.37 -0.513,-2.639 -0.598,-3.991 -0.098,-1.568 0.556,-2.83 0.834,-4.308 0.364,-1.932 -0.02,-3.293 -0.439,-5.07 -0.403,-1.71 0.091,-3.42 -0.128,-5.12901 -0.174,-1.356 -0.635,-2.66201 -0.755,-4.05601 -0.163,-1.885 -1.173,-9.505004 1.39,-9.986004 0.724,1.866 -0.158,4.508 0.525,6.612004 0.323,0.996 0.34,1.505 0.408,2.601 0.082,1.325 0.547,2.59501 0.832,3.89201 0.304,1.383 -0.235,2.43001 -0.252,3.74401 -0.02,1.743 0.727,3.483 0.732,5.255 0.004,1.14 -0.1,2.244 0.088,3.486 0.38,2.504 -0.603,5.144 0.158,7.594 0.686,2.208 0.3,4.481 0.293,6.74 -0.007,1.989 0.613,2.617 1.273,4.31 0.744,1.912 -1.391,3.843 -1.032,5.606 0.263,1.288 1.372,1.876 1.447,3.344 0.076,1.498 -0.731,3.23 -0.308,4.712 0.327,1.146 6.394,2.622 7.706,1.966 0.966,-0.481 0.854,-2.402 1.129,-3.269 0.43,-1.359 1.091,-2.8 1.68,-4.1 0.717,-1.58 0.738,-1.956 0.528,-3.448 -0.105,-0.739 -0.235,-0.783 -0.083,-1.521 0.123,-0.606 0.646,-1.004 0.697,-1.748 0.201,-2.98 0.515,-5.972 0.642,-8.975 0.037,-0.89 -0.23,-1.875 -0.206,-2.688 0.03,-1.013 0.512,-1.493 0.714,-2.477 0.21,-1.022 -0.202,-1.851 0.068,-2.851 0.440001,-1.63 0.729001,-3.684 0.471001,-5.368"
     id="path6"
     inkscape:connector-curvature="0"
     style="fill:#ececec" />
  <path
     d="m 100.03768,114.191 c -0.160001,-1.052 -0.778001,-1.903 -0.465001,-3.15 0.773001,-3.086 0.514001,-6.22601 0.188,-9.35102 -0.167,-1.602 -0.447,-3.248 -0.41,-4.863 0.043,-1.972004 0.556,-3.897004 0.657001,-5.864004 0.097,-1.9 -0.292001,-3.885 -0.490001,-5.77 -0.434,-4.138 -0.42,-8.617 -1.537,-12.64 -0.344,-1.24 -1.007,-2.35 -1.302,-3.606 -0.422,-1.805 -0.42,-3.62 -1.012,-5.41 -0.768,-2.331 -2.11,-3.26 -2.111,-3.655 0.009,2.345 1.187,5.133 1.182,7.766 -0.002,1.243 0.168,2.667 -0.14,3.834 -0.298,1.126 -1.238,1.957 -1.234,3.145 1.07,-0.448 2.195,-1.773 2.588,-2.927 1.361,1.51 0.678,4.075 1.063,5.996 0.412,2.056 0.625,4.223 0.544,6.319 -0.04,1.037 -0.44,2.14 -0.4,3.133 0.05,1.216 0.627,1.568 0.916,2.656 0.518,1.954 -0.257,4.502 -0.83,6.374004 -0.515,1.682 -2.249,4.101 -1.872,5.82 1.244,-0.008 2.07,-1.9 2.54,-2.928 0.198,2.314 -0.27,4.82201 -0.358,7.27002 -0.082,2.323 -1.93,4.54 -1.775,6.734 0.711,-0.158 1.274,-0.666 1.735,-1.318 1.065,3.228 0.073,6.118 -0.164,9.48 -0.123,1.747 -0.536,2.924 -1.566,4.348 -0.782,1.08 -2.455,2.124 -2.22,3.594 1.307,-0.346 2.532,-1.616 3.554,-2.52 0.18,2.6 -0.215,4.617 -0.845,7.017 -0.398,1.515 -0.09,3.192 -1.089,4.49 -0.27,0.351 -3.431,2.193 -3.435,1.938 0.026,1.704 3.28,0.273 4.367,0.403 0.162,2.186 -1.487,5.09 -2.347,7.054 -0.889,2.03 -1.992,2.972 -4.124,1.603 -1.125,-0.723 -2.444,-2.743 -1.072,-4.05 0.982,-0.937 2.672,0.045 3.919,-0.06 -1.068,-1.085 -3.11,-1.187 -3.928,-2.803 -0.76,-1.502 1.32,-3.836 -0.233,-4.427 -0.06,-1.023 -0.029,-2.079 -0.045,-3.115 0.876,1.272 2.978,2.82 4.609,2.516 -0.021,-1.669 -1.78,-2.988 -2.572,-4.364 -0.636,-1.102 -1.693,-2.881 -1.357,-4.202 0.345,-1.356 2.818,-2.218 2.41,-3.552 -0.269,-0.875 -1.08,-0.595 -1.66,-1.055 -1.202,-0.955 -0.606,-0.583 -1.23,-1.903 -0.685,-1.449 -1.62,-2.366 0.183,-3.664 -0.357,-1.249 -0.507,-3.204 0.343,-4.27 0.547,-0.688 3.849,-1.224 3.884,-1.348 0.759,-2.668 -3.557,-2.923 -3.97,-4.612 0.867,-0.32 3.123,0.312 2.67,-1.204 -0.181,-0.603 -1.921,-1.066 -2.424,-1.454 -3.362,-2.59801 -2.303,-5.81302 -1.924,-9.37602 0.182,-1.709004 -0.462,-2.214004 -1.008,-3.602004 -0.494,-1.256 0.083,-5.422 0.548,-6.627 0.287,-0.744 1.86,-2.017 1.259,-2.903 -1.247,-1.834 -2.584,3.407 -3.985,0.438 -0.378,-0.8 -0.296,-4.24 0.773,-4.618 -0.672,0.238 -1.144,0.86 -1.742,1.154 -0.27,-10.384 3.585,-8.487 5.35,-20.566 -1.886,6.703 -6.225,13.527 -6.886,15.446 -0.828,2.402 -0.864,5.068 -1.75,7.325 -1.661,-0.237 -1.815,5.441 -1.924,6.361 -0.165,1.379 -0.173,2.959 -0.643,4.276 -0.523,1.471 -1.795,2.464 -2.22,3.999004 -0.475,1.715 0.226,1.363 1.069,2.632 0.8,1.204 0.654,1.592 0.702,3.07601 0.075,2.29 0.159,4.44701 0.053,6.75201 -0.138,2.997 0.652,3.647 1.994,5.972 1.503,2.605 -1.102,8.792 -1.984,11.624 0.468,-0.084 1.094,0.153 1.559,0.06 -0.25,2.513 -2.324,4.257 -4.574,5.239 -0.503,2.342 4.362,0.398 5.57,0.598 0.48,2.62 -1.267,4.536 -3.443,5.432 -4.44,1.83 -7.345,2.475 -12.076,3.308 -6.027,1.06 -15.526,0.558 -21.638,0.822 8.08,3.286 20.462,1.574 24.102,0.926 3.136,-0.558 5.743,-0.805 8.72,-2.002 1.75,-0.703 3.547,-0.688 5.218,-1.655 -0.503,4.625 -4.185,4.872 -8.085,5.737 -3.337,0.739 -6.527,1.376 -9.944,1.64 -3.204,0.247 -15.973,0.064 -19.055,-0.802 -3.162,-0.89 -8.41,-0.511 -9.566,-4.471 0.795,0.612 7.046,2.083 7.082,0.513 -2.073,-0.478 -6.389,-1.35 -7.386,-3.474 -0.129,-0.276 0.161,-0.715 -0.026,-1.004 -0.077,-0.119 -0.886,-0.707 -0.883,-0.596 -0.008,-0.364 0.278,-2.392 0.562,-2.638 0.562,-0.486 1.898,0.29 2.614,0.227 -0.054,-1.7 -2.26,-1.819 -2.283,-3.47 -0.033,-2.303 1.765,-0.705 2.955,-0.825 0.083,-1.173 -1.716,-2.561 -2.414,-3.39 -0.91,-1.08 -1.106,-2.196 -0.909,-3.619 0.21,-1.507 0.423,-2.66 0.262,-4.201 -0.135,-1.302 -0.311,-2.818 0.286,-4.044 1.242,-0.259 1.695,2.188 3.184,1.422 -0.806,-1.677 -1.038,-3.262 -1.469,-5.056 -0.16,-0.668 -0.721,-1.42 -0.799,-2.042 -0.244,-1.974 2.054,-3.171 1.612,-5.61401 -0.357,-1.97401 -1.365,-3.98101 -2.36,-5.71401 -2.024,-3.526004 -1.119,-7.635004 -1.877,-11.420004 -0.727,-3.636 -2.774,-6.634 -3.87,-10.142 -0.8,-2.564 -3.475,-9.39 -4.316,-12.868 -0.236,2.855 1.418,8.81 1.536,9.288 0.873,3.527 2.673,7.076 2.885,10.722 -3.85,0.465 -4.837,-6.568 -7.948,-7.543 0.235,1.484 5.802,12.112 5.183,12.236 -3.087,0.617 -3.848,-4.243 -6.397,-4.981 0.4,2.24 2.457,5.152 4.148,6.604 0.797,0.684 2.193,1.001 2.551,1.981 0.516,1.41 -0.835,3.943004 -0.981,5.408004 -0.226,2.252 -0.449,4.508 -0.835,6.74001 -0.197,1.136 -0.28,2.50801 -0.904,3.50801 -0.708,1.136 -2.336,1.077 -2.95,2.167 -1.25,2.224 3.306,0.809 4.173,0.605 -0.283,0.925 -1.613,1.321 -2.083,2.24 0.652,0.11 1.36,-0.039 1.95,-0.23 -0.324,1.533 -1.891,2.82 -2.248,4.386 0.896,0.067 1.548,-0.747 2.264,-1.196 0.785,0.704 -0.41,2.876 -0.675,3.63 -0.55,1.562 -0.317,2.873 -0.396,4.523 -0.108,2.25 -0.198,4.267 0.266,6.479 0.377,1.795 0.362,3.532 -0.115,5.33 -0.252,0.946 -0.094,2.038 -0.446,2.92 -0.312,0.78 -1.2,1.366 -1.569,2.067 0.877,0.067 1.636,-0.285 1.868,0.631 0.101,0.403 -0.416,1.396 -0.311,2.032 0.148,0.903 0.781,1.963 0.601,2.892 -0.317,1.641 -1.367,0.867 -2.604,1.29 -1.37,0.467 -3.04,2.22 -3.468,-0.067 -0.388,-2.066 -0.567,-3.986 1.914,-3.806 0.822,0.059 2.218,0.134 2.867,-0.38 -0.01,-0.782 -1.73,-0.552 -2.343,-0.708 -1.851,-0.468 -4.224,-2.108 -4.816,-4.004 -0.149,-0.477 -0.497,-2.83 0.243,-3.044 0.547,-0.158 1.212,1.002 1.44,1.376 0.475,0.778 0.878,2.022 2.035,1.76 -0.189,-1.725 -1.159,-3.204 -2.085,-4.621 -0.396,-0.607 -0.931,-1.224 -1.156,-1.91 -0.284,-0.871 -0.152,-1.84 -0.467,-2.717 -0.467,-1.302 -1.374,-3.238 -0.967,-4.641 1.195,0.208 1.137,2.715 2.526,2.539 1.645,-0.21 -2.078,-6.09 -2.3,-6.675 -0.744,-1.97 -0.375,-3.361 -0.134,-5.376 0.288,-2.416 1.156,-4.767 0.799,-7.233 -0.174,-1.207 -2.536,-4.03901 -1.498,-5.14201 0.988,-1.04901 2.39,1.948 3.56,1.97 0.308,-2.85901 -5.534,-4.90801 -3.343,-8.15601 0.079,-0.116 1.004,1.942 1.056,2.064 0.649,1.517 1.674,4.03601 3.193,4.89801 0.288,-3.00101 -1.04,-6.27201 -2.676,-8.713014 -0.748,-1.115 -1.747,-2.099 -1.793,-3.492 -0.03,-0.904 0.089,-2.021 0.333,-2.888 0.078,-0.275 0.17,-0.833 0.455,-0.992 0.08,-0.045 0.56,-0.07 0.544,-0.053 1.228,-1.296 -0.208,-4.324 0.338,-6.024 0.691,-2.154 0.733,-3.9 0.748,-6.182 0.006,-1.004 -0.449,-5.022 1.415,-4.552 1.161,0.295 1.565,1.995 2.162,2.868 0.84,1.23 1.894,1.774 3.091,2.587 -0.001,-0.472 -0.349,-0.947 -0.498,-1.416 -0.531,-1.663 -0.715,-2.82 -1.72,-4.28 -1.055,-1.527 -2.237,-2.173 -2.498,-4.213 -0.149,-1.158 0.102,-2.33 0.333,-3.442 0.24,-1.156 0.86,-2.101 1.09,-3.225 -1.33,1.65 -2.02,3.959 -2.375,6.015 -0.13,0.752 0.247,1.416 0.113,2.142 -0.158,0.86 -0.687,1.57 -0.917,2.398 -0.39,1.398 -0.482,3.254 -0.725,4.744 -0.29,1.78 -0.185,3.641 -0.76,5.332 -0.66,1.936 -0.993,4.082 -0.919,6.126 0.066,1.792 -0.599,2.731 -0.933,4.504 -0.25,1.324 0.492,2.679 0.413,4.028 -0.097,1.662004 -0.707,3.152004 -0.428,4.858004 0.02,0.118 0.055,0.226 0.099,0.326 0.837,1.886 -0.17,1.462 -0.31,3.26001 -0.116,1.466 1.254,3.00001 1.28,4.63501 0.034,2.16 -0.364,4.285 -0.514,6.433 -0.097,1.382 -0.739,4.054 -0.385,5.344 0.246,0.898 0.945,0.932 0.982,1.947 0.03,0.81 -0.657,1.196 -0.773,1.86 -0.19,1.09 0.428,2.236 0.613,3.273 0.214,1.203 -0.218,6.174 1.122,6.379 0.094,1.71 -0.517,3.384 -0.416,5.08 0.117,1.977 1.407,2.339 2.14,3.79 1.076,2.131 -1.281,5.803 0.58,7.667 1.476,1.476 8.035,-0.982 8.527,-1.474 0.79,-0.799 -0.247,-4.524 -0.287,-5.554 -0.044,-1.11 0.017,-1.482 0.524,-2.396 0.445,-0.8 1.223,-0.934 0.974,-2.065 -0.097,-0.443 -0.686,-0.847 -0.71,-1.248 -0.032,-0.55 0.479,-0.761 0.518,-1.24 0.044,-0.547 -0.16,-0.848 -0.187,-1.35 -0.153,-2.777 1.898,-6.127 1.18,-8.703 -0.177,-0.632 -0.816,-0.772 -0.848,-1.799 -0.046,-1.53 0.603,-2.98 0.476,-4.505 -0.277,-3.332 1.965,-6.562 1.817,-9.864 -0.032,-0.723 -0.505,-1.195 -0.5,-1.858 0.008,-1.01 0.776,-1.904 0.956,-2.87201 0.161,-0.862 0.009,-1.766 0.155,-2.64901 0.364,-2.2 0.396,-4.304 0.706,-6.544004 0.152,-1.099 -0.434,-3.163 0.326,-3.945 1.677,1.517 0.615,6.666004 1.04,8.733004 0.363,1.759 0.026,3.21001 -0.058,4.97202 -0.091,1.907 0.014,3.11 -0.516,4.916 -0.497,1.692 -0.223,3.381 -0.138,5.113 0.153,3.039 -0.946,5.922 -0.82,9 0.034,0.831 0.535,1.715 0.49,2.351 -0.066,0.964 -0.718,1.561 -0.983,2.476 -0.457,1.583 0.587,2.764 0.802,4.253 0.226,1.559 -0.82,2.651 -0.797,4.122 0.027,1.826 1.15,2.714 0.471,4.752 -0.492,1.476 0.492,3.116 1.476,4.428 0.984,1.312 19.349,1.476 23.12,1.476 2.624,0.656 24.76,-0.656 26.892,-2.788 1.116,-1.116 0.926,-2.62 0.786,-4.043 -0.164,-1.661 0.19,-2.156 0.705,-3.73 0.661,-2.023 -0.872,-4.063 -0.524,-6.209 0.168,-1.038 0.363,-2.565 0.038,-3.644 -0.47,-1.556 -0.183,-3.029 -0.225,-4.614 -0.037,-1.37 -0.513,-2.639 -0.598,-3.991 -0.098,-1.568 0.556,-2.83 0.834,-4.308 0.364,-1.932 -0.02,-3.293 -0.439,-5.07 -0.403,-1.71 0.091,-3.42 -0.128,-5.12901 -0.174,-1.356 -0.635,-2.66201 -0.755,-4.05601 -0.163,-1.885 -1.173,-9.505004 1.39,-9.986004 0.724,1.866 -0.158,4.508 0.525,6.612004 0.323,0.996 0.34,1.505 0.408,2.601 0.082,1.325 0.547,2.59501 0.832,3.89201 0.304,1.383 -0.235,2.43001 -0.252,3.74401 -0.02,1.743 0.727,3.483 0.732,5.255 0.004,1.14 -0.1,2.244 0.088,3.486 0.38,2.504 -0.603,5.144 0.158,7.594 0.686,2.208 0.3,4.481 0.293,6.74 -0.007,1.989 0.613,2.617 1.273,4.31 0.744,1.912 -1.391,3.843 -1.032,5.606 0.263,1.288 1.372,1.876 1.447,3.344 0.076,1.498 -0.731,3.23 -0.308,4.712 0.327,1.146 6.394,2.622 7.706,1.966 0.966,-0.481 0.854,-2.402 1.129,-3.269 0.43,-1.359 1.091,-2.8 1.68,-4.1 0.717,-1.58 0.738,-1.956 0.528,-3.448 -0.105,-0.739 -0.235,-0.783 -0.083,-1.521 0.123,-0.606 0.646,-1.004 0.697,-1.748 0.201,-2.98 0.515,-5.972 0.642,-8.975 0.037,-0.89 -0.23,-1.875 -0.206,-2.688 0.03,-1.013 0.512,-1.493 0.714,-2.477 0.21,-1.022 -0.202,-1.851 0.068,-2.851 0.440001,-1.63 0.729001,-3.684 0.471001,-5.368"
     id="path8"
     inkscape:connector-curvature="0"
     style="fill:#e6e6e6" />
  <path
     d="m 12.442679,97.72598 c 0.035,-0.244 0.073,-0.487 0.116,-0.73 a 1.853,1.853 0 0 0 -0.116,0.73"
     id="path10"
     inkscape:connector-curvature="0"
     style="fill:#868687" />
  <path
     d="m 15.390679,99.19798 c 0.047,-1.451 -1.002,-2.839 -1.542,-4.138004 -0.796,-1.918 -0.922,-4.461 -0.358,-6.461 0.078,-0.275 0.17,-0.833 0.455,-0.992 0.08,-0.045 0.56,-0.07 0.544,-0.053 1.228,-1.296 -0.208,-4.324 0.338,-6.024 0.691,-2.154 0.733,-3.9 0.748,-6.182 0.005,-0.926 -0.305,-5.838 1.185,-5.826 0.6,0.006 1.282,1.284 1.873,1.5 -0.161,-1.131 -1.187,-1.994 -1.51,-3.112 -0.252,-0.878 -0.243,-1.706 -0.149,-2.612 0.093,-0.899 0.258,-1.794 0.563,-2.646 0.371,-1.038 1.188,-1.874 1.412,-2.977 -1.33,1.65 -2.018,3.959 -2.374,6.015 -0.13,0.752 0.247,1.416 0.113,2.142 -0.158,0.86 -0.687,1.57 -0.917,2.398 -0.39,1.398 -0.482,3.254 -0.725,4.744 -0.29,1.78 -0.185,3.641 -0.76,5.332 -0.66,1.936 -0.993,4.082 -0.919,6.126 0.066,1.792 -0.599,2.731 -0.933,4.504 -0.25,1.324 0.492,2.679 0.413,4.028 -0.04,0.699 -0.17,1.367004 -0.289,2.032004 a 1.61,1.61 0 0 1 0.416,-0.602 c 0.872,0.829 1.422,2.073 2.416,2.804"
     id="path12"
     inkscape:connector-curvature="0"
     style="fill:#cccccc" />
  <path
     d="m 94.078679,147.509 c 0.208,-0.015 0.441,0.033 0.65,0.02 -0.366,0.898 -0.736,1.991 -1.653,2.467 -1.446,0.752 -4.11,0.006 -5.133,-1.196 -0.416,-0.49 -1.335,-5.693 0.052,-5.146 4.36,1.716 6.425,2.01 7.363,1.652 -0.114,0.209 -0.234,0.417 -0.37,0.61 -0.295,0.42 -1.241,1.016 -0.909,1.592 z m -12.353,-5.96 c 0.139,1.12 0.14,2.207 -0.59,3.14 -1.154,1.473 -3.083,1.657 -4.79,1.92 -3.086,0.473 -6.18,0.566 -9.275,0.918 -3.042,0.344 -6.105,0.635 -9.173,0.535 -1.264,-0.042 -2.514,-0.211 -3.78,-0.191 -1.397,0.024 -2.788,0.167 -4.187,0.113 -1.343,-0.052 -2.657,-0.188 -4.004,-0.096 -2.255,0.155 -4.822,0.014 -6.996,-0.662 -2.337,-0.726 -4.912,-0.214 -6.726,-2.283 -0.336,-0.383 -1.544,-1.444 -1.537,-1.947 0.012,-0.786 1.1,-0.266 1.529,-0.05 -0.097,-0.523 -0.634,-0.923 -0.893,-1.39 -0.3,-0.541 -0.805,-1.314 -1.16,-2.098 9.444,5.174 22.254,4.181 23.489,4.11 5.047,-0.289 13.365,-0.953 18.314,-1.942 2.048,-0.408 4.154,-1.139 6.104,-1.88 1.146,-0.436 2.275,-1.27 3.46,-1.542 0.06,1.134 0.075,2.214 0.215,3.344 z m -56.783,5.07 c -0.57,2.603 -4.607,3.804 -6.815,3.01 -2.566,-0.92 -1.544,-4.647 -1.255,-6.658 0.745,0.46 4.292,1.092 6.477,-0.112 0.266,-0.101 0.521,-0.215 0.721,-0.308 0.24,0.888 0.464,1.792 0.632,2.665 0.082,0.426 0.336,0.964 0.24,1.403 z m 75.095001,-32.428 c -0.160001,-1.052 -0.778001,-1.903 -0.465001,-3.15 0.773001,-3.086 0.514001,-6.22601 0.188,-9.35102 -0.167,-1.602 -0.447,-3.248 -0.41,-4.863 0.043,-1.972004 0.556,-3.897004 0.657001,-5.864004 0.097,-1.9 -0.292001,-3.885 -0.490001,-5.77 -0.434,-4.138 -0.42,-8.617 -1.537,-12.64 -0.344,-1.24 -1.007,-2.35 -1.302,-3.606 -0.422,-1.805 -0.42,-3.62 -1.012,-5.41 -0.768,-2.331 -2.11,-3.26 -2.111,-3.655 0.005,1.296 1.004,1.626 1.46,2.724 0.666,1.6 0.96,3.378 1.071,5.098 0.12,1.847 -1.238,3.444 -1.67,5.198 0.672,-0.378 1.28,-2.08 1.94,-2.158 1.02,-0.117 1.875,5.202 1.94,5.959 0.24,2.848 0.871,5.659 0.94,8.521 0.03,1.259 0.01,2.475 0.077,3.75 0.074,1.426 0.047,2.862 -0.16,4.277 -0.145,0.996 -0.313,2.095 -0.774,2.999004 -0.368,0.718 -1.227,1.525 -1.015,2.413 0.745,-0.297 1.138,-0.95 1.565,0.007 0.593,1.328 0.59,3.134 0.708,4.56901 0.158,1.907 0.411001,4.27201 -0.742,5.93501 -0.283,0.406 -2.37,2.028 -1.988,2.325 0.344,0.268 0.998,-0.588 1.422,-0.45 0.536,0.175 0.756,1.28 0.917,1.75 0.3,0.87 0.483,1.812 0.487,2.733 0.008,2 -0.536,4.031 -0.687,6.028 -0.17,2.236 -2.138,3.603 -3.562,5.084 0.4,-0.272 0.921,-0.233 1.37,-0.489 0.379,-0.215 0.757,-0.64 1.161,-0.7 0.125,1.281 0.08,2.565 0.06,3.848 -0.04,2.427 -0.382,4.579 -1.345,6.803 -0.363,0.836 -0.503,1.965 -1.24,2.572 -0.668,0.549 -1.563,0.638 -2.224,1.25 0.557,0.099 1.323,-0.193 1.94,-0.192 0.635,0.002 1.271,0.262 1.87,0.212 0.09,1.502 -0.413,2.81 -1.096,4.132 -0.182,0.352 -0.356,0.722 -0.544,1.08 -2.211,0.587 -7.125,-1.596 -7.442,-1.921 -0.487,-0.5 -1.66,-1.939 -1.958,-2.57 -0.29,-0.615 -0.125,-1.967 0.649,-2.249 0.783,-0.284 1.284,1.048 1.6,1.58 0.124,-0.785 -0.157,-1.772 -0.381,-2.526 -0.384,-1.291 -0.825,-2.62 -1.369,-3.847 -0.434,-0.98 -1.076,-2.804 -0.37,-3.81 0.536,0.418 0.595,1.265 1.11,1.729 -0.076,-0.955 -0.485,-1.931 -0.772,-2.844 -0.472,-1.506 -0.426,-3.08 -0.991,-4.544 -0.583,-1.51 -0.047,-3.114 0.185,-4.636 0.226,-1.483 -0.165,-2.959 0.082,-4.435 0.168,-1.004 0.284,-1.973 0.314,-2.99 0.021,-0.731 -0.145,-1.563 0.068,-2.275 0.498,0.045 0.92,0.44 1.457,0.449 -0.296,-0.683 -0.663,-1.323 -1,-1.985 -0.32,-0.626 -1.904,-2.674 -1.135,-3.31901 0.547,-0.459 1.461,0.76501 1.807,1.08001 a 6.395,6.395 0 0 0 2.274,1.336 c -0.611,-0.948 -1.492,-1.675 -2.224,-2.52301 -1.54,-1.785 -2.812,-3.47201 -3.285,-5.84901 a 17.684,17.684 0 0 1 -0.305,-4.692004 c 0.046,-0.637 0.138,-1.35 0.265,-1.975 0.057,-0.277 0.065,-0.498 0.27,-0.722 0.043,-0.046 0.641,-0.39 0.648,-0.326 -0.074,-0.741 -1.248,-0.516 -1.266,-1.501 -0.014,-0.813 0.574,-1.617 0.97,-2.287 0.32,-0.54 0.63,-1.066 0.983,-1.585 0.299,-0.441 1.028,-1.07 1.055,-1.597 -0.56,-0.015 -1.326,0.981 -1.707,1.366 -0.69,0.702 -1.268,1.536 -1.894,2.294 -0.085,-1.506 0.288,-2.99 0.175,-4.523 -0.564,1.701 -0.638,3.707 -1.26,5.29 -0.013,-2.409 0.074,-4.862 0.385,-7.251 0.19,-1.46 0.412,-2.911 0.64,-4.366 0.298,-1.886 0.548,-3.861 1.012,-5.704 0.125,-0.494 4.607,-10.241 5.25,-15.912 -0.815,4.874 -5.87,16.922 -6.19,17.14 -0.493,1.878 -1.724,6.512 -2.105,8.534 -0.315,1.676 -0.59,3.444 -0.658,5.148 -0.052,1.3 0.209,2.516 0.313,3.8 -0.611,0.334 -2.49,1.077 -2.394,1.946 0.7,0.111 1.368,-0.434 2.063,-0.382 -0.457,0.816 -1.04,1.569 -1.477,2.405 -0.356,0.679 -1.379,1.950004 -1.257,2.741004 1.119,-0.044 1.486,-1.365004 2.192,-1.930004 0.287,1.005 0.083,2.152004 0.28,3.180004 0.263,1.37 0.352,2.738 0.535,4.105 0.122,0.90701 0.401,1.79001 0.405,2.71001 0.007,2.03001 -0.503,4.02601 -0.473,6.08001 0.343,-0.511 0.443,-1.194 0.655,-1.769 0.373,0.847 0.473,2.24 0.584,3.17 0.222,1.872 -0.456,3.701 -1.006,5.452 -0.24,0.769 -0.446,1.552 -0.658,2.329 -0.26,0.945 -0.866,2.053 -0.77,3.041 0.534,-0.036 0.732,-0.681 0.932,-1.076 0.205,-0.406 0.753,-0.917 0.759,-1.358 0.457,0.506 0.242,1.326 0.243,1.948 0,1.51 0.08,3.169 -0.236,4.646 -0.133,0.624 -0.297,1.328 -0.613,1.891 -0.286,0.51 -0.896,1.03 -0.813,1.67 0.435,-0.235 1.558,-1.105 1.99,-1.057 -0.08,1.859 0.09,3.886 -0.489,5.676 -1.538,4.759 -7.913,5.311 -12.013,6.032 -5.288,0.928 -24.026,4.459 -38.933,-2.134 -0.293,-0.647 -0.485,-1.3 -0.376,-1.836 0.136,-0.659 0.632,-1.25 0.84,-1.899 0.53,-0.08 0.871,0.555 1.454,0.448 0.028,-0.593 -0.583,-1.279 -0.842,-1.785 -0.998,-1.95 -2.025,-4.69 -0.287,-6.534 0.837,0.704 1.56,2.054 2.739,2.079 -0.13,-1.085 -0.796,-1.91 -1.368,-2.807 -0.571,-0.892 -1.525,-1.848 -1.75,-2.906 -0.156,-0.731 -0.056,-1.687 0.002,-2.432 0.075,-0.974 0.37,-1.904 0.419,-2.887 0.048,-0.967 0.003,-1.943 0.07,-2.907 0.053,-0.754 -0.175,-1.676 0.062,-2.389 0.523,-1.573 2.537,1.164 3.437,1.5 -0.023,-0.808 -0.982,-1.619 -1.395,-2.263 a 10.473,10.473 0 0 1 -1.143,-2.46 c -0.238,-0.744 -0.105,-1.312 -0.03,-2.07 0.138,-1.382 -0.103,-3.00201 0.36,-4.31501 0.416,0.313 0.607,1.268 1.135,1.31 0.099,-0.775 -0.302,-1.718 -0.485,-2.485 -0.208,-0.87301 -0.42,-1.81201 -0.38,-2.71301 0.735,0.915 1.08,2.48501 2.006,3.19201 0.146,-0.83 -0.644,-1.78401 -0.953,-2.54301 -0.695,-1.713 -1.335,-3.334 -1.453,-5.177004 -0.05,-0.788 -0.205,-1.492 -0.417,-2.268 -0.572,-2.101 -0.643,-4.112 -0.829,-6.267 -0.211,-2.448 -1.375,-5.098 -2.21,-7.394 -0.423,-1.166 -1.023,-2.247 -1.441,-3.415 -0.216,-0.6 -0.386,-1.221 -0.544,-1.837 -0.12,-0.468 -3.97,-9.787 -4.064,-18.112 -0.516,7.47 4.293,20.026 4.917,21.716 1.024,2.772 3.276,6.381 2.165,9.456 -0.568,1.573 -1.786,-0.131 -2.317,-0.855 -0.748,-1.019 -1.466,-2.059 -2.228,-3.067 -0.67,-0.885 -1.537,-1.549 -2.138,-2.476 -0.396,-0.61 -0.784,-1.882 -1.418,-2.241 0.058,0.915 0.898,1.992 1.395,2.743 1.099,1.66 2.25,3.222 3.04,5.038 0.423,0.97 0.8,1.596 1.526,2.346 0.504,0.518 1.678,1.688 1.534,2.47 -0.775,0.347 -2.74,-0.62 -3.487,-0.922 -1.106,-0.448 -1.933,-1.308 -2.788,-2.108 -0.259,-0.242 -2.175,-1.708 -2.09,-2.05 -0.037,0.546 0.61,1.44 0.92,1.886 1.145,1.648 2.944,2.549 4.537,3.682 0.689,0.49 1.583,1.078 1.962,1.85 0.447,0.912 0.341,2.014 0.294,2.993004 -0.081,1.67 -0.555,3.268 -0.677,4.93 -0.135,1.82501 -0.389,3.97402 -1.76,5.34302 -0.727,0.726 -1.714,1.244 -2.628,1.692 -0.64,0.314 -2.115,1.344 -2.82,1.302 2.163,0.133 4.2,-0.378 6.163,-1.01 -0.851,1.03 -2.122,1.767 -2.912,2.896 1.046,-0.049 2.62,-1.082 3.355,-1.824 -0.649,1.027 -1.229,2.083 -1.95,3.047 -0.506,0.676 -2.089,1.96 -2.024,2.772 2.115,-1.204 3.349,-2.737 4.787,-4.59 -0.245,1.32 -0.611,2.555 -1.036,3.867 -0.759,2.338 -0.23,4.84 -0.966,7.122 -0.324,1.005 -0.673,1.938 -0.94,2.933 -0.25,0.928 -0.898,2.372 -0.8,3.352 1.07,-0.504 1.442,-2.15 2.263,-2.913 0.675,0.985 0.065,2.309 -0.15,3.32 -0.42,1.962 -0.412,3.99 -0.84,5.933 -0.23,1.037 -0.682,1.788 -1.325,2.628 -0.418,0.547 -1.664,1.512 -1.627,2.144 1.24,0.157 2.216,-0.62 2.71,-1.572 -0.124,1.03 -0.399,2.19 -0.866,3.048 -0.474,0.87 -1.008,1.528 -2.068,1.916 -2.123,0.503 -4.327,-0.412 -4.908,-0.72 -1.108,-0.587 -2.137,-1.993 -2.714,-3.108 -0.55,-1.063 -0.663,-4.05 0.684,-4.596 0.01,-0.879 -0.963,-1.548 -1.283,-2.317 -0.468,-1.128 -0.473,-2.499 -0.595,-3.698 -0.093,-0.902 -0.045,-1.633 -0.277,-2.517 -0.23,-0.879 -0.373,-1.617 0.092,-2.444 0.807,-0.23 1.322,0.475 1.75,1.016 -0.254,-1.033 -0.687,-2.05 -1.126,-3.019 -1.158,-2.553 -1.296,-4.861 -0.882,-7.586 0.184,-1.207 0.44,-2.512 0.675,-3.735 0.103,0.017 0.176,0.081 0.281,0.085 0.54,-1.518 -0.467,-3.128 -1.05,-4.457 -0.344,-0.78501 -0.642,-1.53601 -0.603,-2.40501 0.055,-1.20401 0.385,-0.955 1.446,-1.21801 0.084,-1.166 -1.418,-3.104 -1.46,-4.638 -0.095,0.68 -0.142,1.368 -0.023,2.096 0.02,0.118 0.055,0.226 0.099,0.326 0.837,1.886 -0.17,1.462 -0.31,3.26001 -0.116,1.466 1.254,3.00001 1.28,4.63501 0.034,2.16 -0.364,4.285 -0.514,6.433 -0.097,1.382 -0.739,4.054 -0.385,5.344 0.246,0.898 0.945,0.932 0.982,1.947 0.03,0.81 -0.657,1.196 -0.773,1.86 -0.19,1.09 0.428,2.236 0.613,3.273 0.214,1.203 -0.218,6.174 1.122,6.379 0.094,1.71 -0.517,3.384 -0.416,5.08 0.117,1.977 1.407,2.339 2.14,3.79 1.076,2.131 -1.281,5.803 0.58,7.667 1.476,1.476 8.035,-0.982 8.527,-1.474 0.79,-0.799 -0.247,-4.524 -0.287,-5.554 -0.044,-1.11 0.017,-1.482 0.524,-2.396 0.445,-0.8 1.223,-0.934 0.974,-2.065 -0.097,-0.443 -0.686,-0.847 -0.71,-1.248 -0.032,-0.55 0.479,-0.761 0.518,-1.24 0.044,-0.547 -0.16,-0.848 -0.187,-1.35 -0.153,-2.777 1.898,-6.127 1.18,-8.703 -0.177,-0.632 -0.816,-0.772 -0.848,-1.799 -0.046,-1.53 0.603,-2.98 0.476,-4.505 -0.277,-3.332 1.965,-6.562 1.817,-9.864 -0.032,-0.723 -0.505,-1.195 -0.5,-1.858 0.008,-1.01 0.776,-1.904 0.956,-2.87201 0.161,-0.862 0.009,-1.766 0.155,-2.64901 0.364,-2.2 0.396,-4.304 0.706,-6.544004 0.152,-1.099 -0.434,-3.163 0.326,-3.945 1.677,1.517 0.615,6.666004 1.04,8.733004 0.363,1.759 0.026,3.21001 -0.058,4.97202 -0.091,1.907 0.014,3.11 -0.516,4.916 -0.497,1.692 -0.223,3.381 -0.138,5.113 0.153,3.039 -0.946,5.922 -0.82,9 0.034,0.831 0.535,1.715 0.49,2.351 -0.066,0.964 -0.718,1.561 -0.983,2.476 -0.457,1.583 0.587,2.764 0.802,4.253 0.226,1.559 -0.82,2.651 -0.797,4.122 0.027,1.826 1.15,2.714 0.471,4.752 -0.492,1.476 0.492,3.116 1.476,4.428 0.984,1.312 19.349,1.476 23.12,1.476 2.624,0.656 24.76,-0.656 26.892,-2.788 1.116,-1.116 0.926,-2.62 0.786,-4.043 -0.164,-1.661 0.19,-2.156 0.705,-3.73 0.661,-2.023 -0.872,-4.063 -0.524,-6.209 0.168,-1.038 0.363,-2.565 0.038,-3.644 -0.47,-1.556 -0.183,-3.029 -0.225,-4.614 -0.037,-1.37 -0.513,-2.639 -0.598,-3.991 -0.098,-1.568 0.556,-2.83 0.834,-4.308 0.364,-1.932 -0.02,-3.293 -0.439,-5.07 -0.403,-1.71 0.091,-3.42 -0.128,-5.12901 -0.174,-1.356 -0.635,-2.66201 -0.755,-4.05601 -0.163,-1.885 -1.173,-9.505004 1.39,-9.986004 0.724,1.866 -0.158,4.508 0.525,6.612004 0.323,0.996 0.34,1.505 0.408,2.601 0.082,1.325 0.547,2.59501 0.832,3.89201 0.304,1.383 -0.235,2.43001 -0.252,3.74401 -0.02,1.743 0.727,3.483 0.732,5.255 0.004,1.14 -0.1,2.244 0.088,3.486 0.38,2.504 -0.603,5.144 0.158,7.594 0.686,2.208 0.3,4.481 0.293,6.74 -0.007,1.989 0.613,2.617 1.273,4.31 0.744,1.912 -1.391,3.843 -1.032,5.606 0.263,1.288 1.372,1.876 1.447,3.344 0.076,1.498 -0.731,3.23 -0.308,4.712 0.327,1.146 6.394,2.622 7.706,1.966 0.966,-0.481 0.854,-2.402 1.129,-3.269 0.43,-1.359 1.091,-2.8 1.68,-4.1 0.717,-1.58 0.738,-1.956 0.528,-3.448 -0.105,-0.739 -0.235,-0.783 -0.083,-1.521 0.123,-0.606 0.646,-1.004 0.697,-1.748 0.201,-2.98 0.515,-5.972 0.642,-8.975 0.037,-0.89 -0.23,-1.875 -0.206,-2.688 0.03,-1.013 0.512,-1.493 0.714,-2.477 0.21,-1.022 -0.202,-1.851 0.068,-2.851 0.440001,-1.63 0.729001,-3.684 0.471001,-5.368"
     id="path14"
     inkscape:connector-curvature="0"
     style="fill:#b3b3b3" />
  <path
     d="m 83.117679,72.428976 c -0.052,0.18 -0.06,0.25 -0.031,0.231 0.234,-0.893 0.302,-1.166 0.03,-0.23"
     id="path16"
     inkscape:connector-curvature="0"
     style="fill:#868687" />
  <path
     d="m 82.655679,90.543976 0.06,0.156 c 0.381,0.983 0.337,2.126 0.29,3.335 -0.043,1.123 -0.088,2.283004 0.238,3.290004 0.314,0.962 0.347,1.497 0.406,2.469 l 0.012,0.18 c 0.054,0.882 0.289,1.762 0.515,2.61401 0.11,0.415 0.22,0.83 0.313,1.248 0.195,0.886 0.057,1.64601 -0.075,2.38001 -0.083,0.451 -0.166,0.916 -0.172,1.408 -0.01,0.863 0.17,1.711 0.36,2.61 0.181,0.86 0.37,1.748 0.372,2.644 0,0.306 -0.006,0.609 -0.013,0.916 -0.019,0.809 -0.037,1.648 0.099,2.541 0.17,1.121 0.07,2.276 -0.024,3.393 -0.12,1.394 -0.241,2.834 0.174,4.171 0.518,1.664 0.437,3.379 0.358,5.037 -0.026,0.579 -0.055,1.178 -0.056,1.763 -0.005,1.417 0.311,2.105 0.75,3.059 0.156,0.34 0.332,0.724 0.51,1.177 0.433,1.113 -0.029,2.2 -0.475,3.25 -0.36,0.845 -0.699,1.643 -0.547,2.387 0.11,0.539 0.379,0.948 0.663,1.382 0.365,0.554 0.743,1.128 0.787,1.993 0.032,0.647 -0.093,1.335 -0.214,2 -0.165,0.908 -0.336,1.847 -0.102,2.667 0.217,0.76 4.213,1.984 6.478,1.984 0.55,0 0.817,-0.078 0.945,-0.142 0.586,-0.292 0.727,-1.317 0.84,-2.141 0.052,-0.38 0.1,-0.737 0.187,-1.01 0.419,-1.322 1.062,-2.738 1.629,-3.986 l 0.06,-0.136 c 0.699,-1.539 0.716,-1.884 0.511,-3.336 a 7.191,7.191 0 0 0 -0.086,-0.481 c -0.07,-0.338 -0.111,-0.54 0.005,-1.11 0.06,-0.294 0.203,-0.541 0.34,-0.777 0.17,-0.293 0.329,-0.57 0.354,-0.943 0.075,-1.108 0.165,-2.218 0.256,-3.33 0.15,-1.848 0.306,-3.758 0.386,-5.639 0.018,-0.445 -0.044,-0.928 -0.104,-1.395 -0.058,-0.456 -0.114,-0.885 -0.102,-1.29 0.018,-0.624 0.203,-1.07 0.38,-1.499 0.127,-0.304 0.256,-0.619 0.338,-1.013 0.095,-0.459 0.055,-0.875 0.014,-1.315 -0.047,-0.488 -0.094,-0.992 0.057,-1.548 0.517,-1.915 0.687001,-3.841 0.466,-5.287 -0.05,-0.33 -0.148,-0.64 -0.251,-0.966 -0.213,-0.674 -0.434,-1.371 -0.211,-2.262 0.751001,-3 0.515,-6.10201 0.184,-9.28102 -0.043,-0.412 -0.094,-0.825 -0.144,-1.241 -0.145,-1.198 -0.295,-2.435 -0.268,-3.647 0.024,-1.063004 0.183,-2.123004 0.338,-3.148004 0.134,-0.89 0.274,-1.812 0.32,-2.723 0.07,-1.364 -0.117,-2.793 -0.298,-4.174 -0.068,-0.527 -0.136,-1.05 -0.19,-1.566 -0.127,-1.197 -0.217,-2.448 -0.304,-3.657 -0.215,-3.003 -0.44,-6.107 -1.228,-8.95 -0.156,-0.563 -0.386,-1.114 -0.609,-1.646 -0.262,-0.628 -0.534,-1.277 -0.694,-1.967 -0.176,-0.748 -0.274,-1.506 -0.37,-2.24 -0.134,-1.041 -0.273,-2.118 -0.637,-3.149 -0.63,-1.793 -1.573,-2.97 -2.664,-4.333 a 51.513,51.513 0 0 1 -1.035,-1.322 c -3.087,-4.116 -12.464,-6.381 -26.403,-6.381 h -23.12 c -13.137,0 -19.624,4.524 -22.32,7.221 -1.484,1.482 -2.666,4.075 -3.16,6.936 -0.06,0.342 -0.003,0.667 0.057,1.012 0.064,0.36 0.128,0.734 0.055,1.134 -0.093,0.502 -0.303,0.953 -0.508,1.388 -0.162,0.346 -0.315,0.674 -0.414,1.025 -0.247,0.887 -0.374,1.973 -0.496,3.024 -0.07,0.599 -0.137,1.165 -0.223,1.7 -0.105,0.643 -0.159,1.312 -0.21,1.959 -0.092,1.134 -0.187,2.309 -0.56,3.405 -0.656,1.93 -0.978,4.081 -0.907,6.053 0.043,1.16 -0.214,1.982 -0.485,2.851 -0.162,0.516 -0.328,1.05 -0.45,1.697 -0.13,0.683 0.02,1.378 0.18,2.111 0.135,0.616 0.273,1.253 0.236,1.893 -0.037,0.627 -0.146,1.231004 -0.25,1.815004 -0.181,1.007 -0.351,1.957 -0.181,2.997 0.016,0.095 0.043,0.187 0.084,0.279 0.515,1.163 0.372,1.537 0.095,2.055 a 2.87,2.87 0 0 0 -0.389,1.30201 c -0.055,0.7 0.26,1.436 0.595,2.21401 0.33,0.77 0.672,1.565 0.686,2.402 0.022,1.384 -0.134,2.771 -0.285,4.112 -0.086,0.766 -0.175,1.558 -0.23,2.339 -0.03,0.433 -0.113,0.993 -0.201,1.587 -0.189,1.264 -0.422,2.838 -0.19,3.689 0.097,0.353 0.27,0.553 0.454,0.765 0.252,0.29 0.512,0.591 0.536,1.228 0.018,0.527 -0.226,0.894 -0.443,1.22 -0.15,0.226 -0.29,0.438 -0.333,0.682 -0.118,0.677 0.105,1.404 0.32,2.104 0.112,0.364 0.228,0.738 0.292,1.098 0.062,0.35 0.072,0.983 0.083,1.716 0.027,1.638 0.07,4.378 0.871,4.5 l 0.162,0.024 0.01,0.164 c 0.048,0.875 -0.085,1.742 -0.212,2.58 -0.125,0.822 -0.255,1.67 -0.205,2.499 0.07,1.177 0.564,1.73 1.136,2.37 0.345,0.383 0.7,0.782 0.983,1.342 0.511,1.012 0.295,2.335 0.086,3.612 -0.256,1.568 -0.498,3.047 0.456,4.004 0.27,0.27 0.778,0.405 1.506,0.405 2.43,0 6.41,-1.554 6.738,-1.881 0.49,-0.497 0.1,-2.68 -0.135,-3.983 -0.108,-0.598 -0.2,-1.116 -0.213,-1.421 -0.044,-1.127 0.016,-1.539 0.55,-2.5 0.159,-0.285 0.355,-0.492 0.529,-0.673 0.343,-0.359 0.57,-0.596 0.425,-1.251 -0.038,-0.17 -0.184,-0.355 -0.326,-0.536 -0.184,-0.233 -0.373,-0.473 -0.389,-0.744 -0.021,-0.37 0.15,-0.61 0.302,-0.821 0.11,-0.152 0.203,-0.283 0.216,-0.447 0.023,-0.284 -0.03,-0.499 -0.085,-0.724 a 3.135,3.135 0 0 1 -0.102,-0.599 c -0.07,-1.266 0.307,-2.649 0.672,-3.988 0.442,-1.62 0.9,-3.294 0.514,-4.672 -0.057,-0.208 -0.179,-0.357 -0.32,-0.529 -0.24,-0.293 -0.513,-0.628 -0.534,-1.319 -0.023,-0.745 0.115,-1.473 0.249,-2.177 0.15,-0.792 0.291,-1.54 0.227,-2.316 -0.146,-1.752 0.392,-3.484 0.911,-5.157 0.48,-1.546 0.976,-3.146 0.906,-4.715 -0.014,-0.321 -0.126,-0.59 -0.245,-0.873 -0.127,-0.304 -0.258,-0.619 -0.255,-0.996 0.005,-0.616 0.266,-1.179 0.52,-1.723 0.188,-0.405 0.367,-0.79001 0.44,-1.18401 0.079,-0.421 0.079,-0.853 0.079,-1.31 0,-0.437 0,-0.887 0.075,-1.33501 0.198,-1.199 0.3,-2.398 0.397,-3.558 0.082,-0.966 0.167,-1.964 0.308,-2.981004 0.05,-0.361 0.014,-0.847 -0.023,-1.36 -0.076,-1.043 -0.155,-2.123 0.402,-2.697 l 0.136,-0.139 0.144,0.13 c 1.165,1.053 1.091,3.631 1.026,5.906004 -0.034,1.152 -0.065,2.241 0.078,2.936 0.267,1.297 0.163,2.42401 0.053,3.61701 -0.042,0.454 -0.085,0.918 -0.108,1.40601 -0.02,0.421 -0.03,0.808 -0.04,1.174 -0.036,1.318 -0.065,2.358 -0.483,3.787 -0.39,1.324 -0.296,2.633 -0.197,4.02 0.025,0.341 0.05,0.683 0.067,1.028 0.078,1.552 -0.17,3.081 -0.409,4.561 -0.233,1.443 -0.474,2.934 -0.412,4.44 0.016,0.382 0.14,0.784 0.259,1.174 0.132,0.43 0.257,0.837 0.232,1.198 -0.042,0.607 -0.298,1.076 -0.546,1.531 -0.168,0.31 -0.34,0.628 -0.445,0.988 -0.273,0.944 0.027,1.743 0.345,2.59 0.187,0.5 0.382,1.015 0.463,1.578 0.13,0.899 -0.136,1.644 -0.394,2.365 -0.212,0.591 -0.41,1.15 -0.402,1.783 0.01,0.685 0.184,1.243 0.353,1.78 0.266,0.855 0.542,1.737 0.108,3.039 -0.48,1.437 0.596,3.109 1.446,4.242 0.722,0.963 13.86,1.396 22.96,1.396 0.348,0.08 1.098,0.17 2.973,0.17 6.963,0 22.131,-1.254 23.776,-2.899 1.013,-1.013 0.875,-2.403 0.74,-3.745 l -0.013,-0.135 c -0.137,-1.385 0.08,-1.997 0.438,-3.01 0.085,-0.238 0.177,-0.5 0.276,-0.802 0.335,-1.027 0.075,-2.063 -0.202,-3.161 -0.244,-0.972 -0.498,-1.979 -0.329,-3.019 0.168,-1.032 0.354,-2.524 0.044,-3.553 -0.336,-1.114 -0.295,-2.2 -0.256,-3.254 0.018,-0.46 0.035,-0.936 0.022,-1.413 -0.019,-0.71 -0.162,-1.41 -0.3,-2.087 -0.126,-0.613 -0.257,-1.248 -0.297,-1.896 -0.067,-1.065 0.205,-2.004 0.468,-2.91 0.136,-0.467 0.276,-0.95 0.37,-1.447 0.33,-1.764 0.028,-3.033 -0.355,-4.641 l -0.083,-0.348 c -0.231,-0.98 -0.176,-1.964 -0.122,-2.915 0.042,-0.735 0.085,-1.495 -0.01,-2.23301 -0.077,-0.604 -0.216,-1.215 -0.35,-1.806 -0.167,-0.72901 -0.339,-1.48201 -0.405,-2.25801 a 56.4,56.4 0 0 0 -0.06,-0.622 c -0.27,-2.725 -0.904,-9.106004 1.613,-9.581004 z M 93.362679,151 c -2.173,0 -6.55,-1.17 -6.865,-2.276 -0.26,-0.91 -0.08,-1.896 0.093,-2.849 0.122,-0.672 0.238,-1.308 0.207,-1.908 -0.038,-0.756 -0.37,-1.259 -0.72,-1.792 -0.293,-0.447 -0.597,-0.908 -0.722,-1.521 -0.177,-0.868 0.203,-1.762 0.571,-2.627 0.415,-0.976 0.845,-1.985 0.47,-2.945 -0.172,-0.443 -0.339,-0.806 -0.5,-1.156 -0.443,-0.963 -0.792,-1.723 -0.787,-3.228 0.002,-0.595 0.03,-1.198 0.058,-1.78 0.076,-1.624 0.156,-3.303 -0.341,-4.9 -0.44,-1.412 -0.313,-2.892 -0.191,-4.324 0.093,-1.094 0.19,-2.224 0.026,-3.299 -0.14,-0.927 -0.12,-1.783 -0.103,-2.61 0.007,-0.303 0.014,-0.603 0.014,-0.907 -0.004,-0.852 -0.187,-1.72 -0.365,-2.56 -0.186,-0.882 -0.379,-1.792 -0.367,-2.698 0.006,-0.526 0.093,-1.009 0.177,-1.476 0.132,-0.72801 0.256,-1.41401 0.079,-2.22201 -0.091,-0.411 -0.2,-0.82 -0.308,-1.23 -0.232,-0.87001 -0.472,-1.77201 -0.53,-2.69301 l -0.01,-0.181 c -0.06,-0.97 -0.09,-1.455 -0.387,-2.37 -0.35,-1.076 -0.303,-2.272004 -0.259,-3.428004 0.044,-1.096 0.083,-2.133 -0.202,-3.005 -1.958,0.693 -1.353,6.773004 -1.122,9.101004 l 0.06,0.627 c 0.064,0.748 0.233,1.49 0.396,2.20401 0.137,0.6 0.278,1.22 0.358,1.844 0.099,0.77501 0.055,1.55301 0.012,2.30701 -0.052,0.922 -0.106,1.876 0.112,2.8 l 0.083,0.346 c 0.394,1.655 0.705,2.962 0.358,4.81 -0.097,0.516 -0.24,1.008 -0.378,1.484 -0.265,0.914 -0.516,1.777 -0.453,2.773 0.039,0.621 0.166,1.24 0.288,1.841 0.143,0.694 0.29,1.412 0.31,2.156 0.013,0.491 -0.005,0.974 -0.023,1.439 -0.039,1.067 -0.076,2.073 0.24,3.123 0.334,1.109 0.142,2.662 -0.032,3.734 -0.156,0.958 0.087,1.923 0.321,2.856 0.279,1.104 0.567,2.247 0.195,3.384 -0.1,0.306 -0.194,0.57 -0.279,0.811 -0.351,0.993 -0.545,1.54 -0.417,2.837 l 0.013,0.134 c 0.137,1.369 0.292,2.921 -0.856,4.07 -1.877,1.876 -17.633,3.015 -24.06,3.016 -1.54,0 -2.557,-0.058 -3.023,-0.176 -0.866,-0.002 -22.08,-0.012 -23.232,-1.55 -0.982,-1.307 -2.04,-3.014 -1.506,-4.611 0.392,-1.179 0.16,-1.927 -0.112,-2.79 -0.176,-0.567 -0.359,-1.153 -0.37,-1.897 -0.01,-0.705 0.211,-1.325 0.425,-1.924 0.252,-0.705 0.49,-1.372 0.375,-2.172 -0.076,-0.52 -0.261,-1.014 -0.442,-1.493 -0.327,-0.87 -0.665,-1.772 -0.355,-2.844 0.117,-0.401 0.3,-0.74 0.479,-1.068 0.237,-0.436 0.461,-0.848 0.498,-1.367 0.02,-0.286 -0.095,-0.658 -0.216,-1.053 -0.128,-0.413 -0.258,-0.84 -0.276,-1.275 -0.064,-1.546 0.18,-3.058 0.417,-4.52 0.236,-1.46 0.479,-2.968 0.403,-4.478 a 40.91,40.91 0 0 0 -0.065,-1.018 c -0.097,-1.361 -0.198,-2.77 0.21,-4.162 0.405,-1.379 0.433,-2.396 0.468,-3.684 0.01,-0.37 0.02,-0.76 0.04,-1.18401 0.024,-0.494 0.068,-0.964 0.11,-1.423 0.107,-1.161 0.209,-2.26001 -0.047,-3.50001 -0.152,-0.739 -0.12,-1.85 -0.086,-3.028 0.06,-2.072004 0.127,-4.407004 -0.74,-5.436004 -0.29,0.504 -0.223,1.41 -0.164,2.219 0.039,0.536 0.076,1.041 0.02,1.444 -0.139,1.006004 -0.223,2.000004 -0.304,2.961004 -0.099,1.167 -0.202,2.373 -0.403,3.588 -0.068,0.41601 -0.068,0.85001 -0.068,1.27001 0,0.455 0,0.925 -0.086,1.383 -0.083,0.446 -0.28,0.87001 -0.471,1.28001 -0.246,0.53 -0.479,1.028 -0.482,1.556 -0.002,0.295 0.107,0.56 0.224,0.839 0.127,0.304 0.258,0.617 0.276,1.01 0.073,1.64 -0.434,3.273 -0.924,4.851 -0.509,1.639 -1.034,3.331 -0.895,5.006 0.07,0.83 -0.084,1.64 -0.232,2.424 -0.13,0.682 -0.264,1.389 -0.243,2.09 0.018,0.555 0.224,0.808 0.444,1.076 0.155,0.19 0.316,0.386 0.396,0.676 0.415,1.484 -0.057,3.214 -0.513,4.887 -0.356,1.307 -0.726,2.659 -0.66,3.86 0.011,0.192 0.05,0.353 0.093,0.524 0.06,0.248 0.123,0.504 0.094,0.852 -0.022,0.275 -0.164,0.473 -0.289,0.648 -0.13,0.181 -0.241,0.337 -0.227,0.565 0.008,0.144 0.157,0.335 0.302,0.518 0.17,0.216 0.346,0.44 0.403,0.697 0.19,0.865 -0.175,1.247 -0.527,1.616 -0.165,0.173 -0.334,0.35 -0.468,0.59 -0.5,0.902 -0.54,1.24 -0.5,2.291 0.012,0.278 0.102,0.782 0.207,1.366 0.363,2.018 0.615,3.738 0.023,4.337 -0.436,0.436 -4.494,2.001 -7.022,2.001 -0.84,0 -1.443,-0.177 -1.79,-0.525 -1.101,-1.103 -0.83,-2.755 -0.57,-4.352 0.209,-1.27 0.404,-2.472 -0.048,-3.368 -0.259,-0.512 -0.596,-0.89 -0.922,-1.253 -0.571,-0.638 -1.161,-1.298 -1.24,-2.615 -0.05,-0.872 0.082,-1.741 0.21,-2.583 0.117,-0.772 0.238,-1.568 0.213,-2.354 -0.977,-0.392 -1.016,-2.852 -1.048,-4.847 -0.011,-0.717 -0.021,-1.335 -0.077,-1.652 a 9.05,9.05 0 0 0 -0.28,-1.05 c -0.23,-0.747 -0.468,-1.52 -0.333,-2.291 0.057,-0.328 0.23,-0.587 0.395,-0.836 0.2,-0.303 0.39,-0.587 0.375,-0.983 -0.018,-0.496 -0.203,-0.71 -0.436,-0.979 -0.196,-0.226 -0.417,-0.481 -0.538,-0.922 -0.256,-0.932 -0.025,-2.486 0.179,-3.856 0.086,-0.586 0.169,-1.138 0.198,-1.556 0.055,-0.788 0.145,-1.584 0.231,-2.355 0.15,-1.33 0.303,-2.703 0.282,-4.06 -0.012,-0.759 -0.338,-1.516 -0.653,-2.25 -0.354,-0.82501 -0.689,-1.60501 -0.626,-2.40501 0.06,-0.762 0.267,-1.15001 0.435,-1.46101 0.22,-0.41 0.354,-0.66 -0.108,-1.701 a 1.535,1.535 0 0 1 -0.113,-0.376 c -0.182,-1.11 0.003,-2.139 0.18,-3.134 0.104,-0.573 0.21,-1.165004 0.245,-1.768004 0.034,-0.584 -0.097,-1.194 -0.226,-1.782 -0.16,-0.743 -0.327,-1.508 -0.183,-2.271 0.127,-0.672 0.297,-1.217 0.461,-1.744 0.273,-0.872 0.508,-1.624 0.468,-2.716 -0.074,-2.05 0.247,-4.193 0.928,-6.197 0.357,-1.05 0.45,-2.198 0.539,-3.31 0.052,-0.654 0.107,-1.33 0.214,-1.99 0.086,-0.526 0.151,-1.087 0.221,-1.682 0.124,-1.065 0.254,-2.169 0.509,-3.085 0.107,-0.384 0.274,-0.741 0.437,-1.087 0.202,-0.432 0.393,-0.84 0.476,-1.292 0.06,-0.328 0.004,-0.65 -0.055,-0.992 -0.063,-0.362 -0.128,-0.738 -0.058,-1.149 0.509,-2.94 1.732,-5.613 3.271,-7.152 2.742,-2.741 9.324,-7.339 22.605,-7.339 h 23.12 c 14.275,0 23.516,2.263 26.726,6.543 0.35,0.465 0.694,0.896 1.027,1.31 1.114,1.393 2.077,2.594 2.73,4.451 0.377,1.072 0.52,2.171 0.657,3.232 0.094,0.724 0.191,1.472 0.362,2.2 0.153,0.658 0.417,1.291 0.674,1.904 0.227,0.544 0.462,1.107 0.625,1.694 0.8,2.881 1.024,6.006 1.242,9.028 0.086,1.206 0.176,2.453 0.301,3.645 0.054,0.512 0.122,1.032 0.19,1.555 0.184001,1.398 0.372001,2.846 0.301001,4.248 -0.048,0.929 -0.188,1.86 -0.324001,2.76 -0.153,1.013 -0.31,2.061 -0.334,3.098004 -0.026,1.183 0.122,2.407 0.266,3.588 0.05,0.419 0.1,0.835 0.145,1.248 0.335001,3.21801 0.573001,6.35802 -0.194,9.42202 -0.195,0.78 -0.002,1.394 0.204,2.042 0.103001,0.328 0.210001,0.666 0.266001,1.027 0.325,2.13 -0.225,4.523 -0.477001,5.453 -0.131,0.487 -0.09,0.932 -0.045,1.406 0.043,0.449 0.087,0.914 -0.02,1.432 -0.088,0.432 -0.227,0.765 -0.36,1.086 -0.178,0.434 -0.333,0.807 -0.35,1.358 -0.01,0.373 0.043,0.788 0.1,1.226 0.062,0.484 0.126,0.983 0.106,1.464 -0.08,1.89 -0.236,3.803 -0.387,5.654 -0.09,1.11 -0.18,2.22 -0.256,3.326 -0.031,0.466 -0.23,0.811 -0.407,1.116 -0.126,0.219 -0.245,0.426 -0.293,0.658 -0.1,0.488 -0.07,0.632 -0.006,0.946 0.027,0.134 0.06,0.291 0.09,0.507 0.217,1.53 0.197,1.93 -0.542,3.559 l -0.06,0.134 c -0.563,1.239 -1.2,2.644 -1.612,3.943 -0.076,0.239 -0.122,0.58 -0.172,0.943 -0.126,0.917 -0.283,2.06 -1.059,2.448 -0.242,0.12 -0.62,0.182 -1.125,0.182"
     id="path18"
     inkscape:connector-curvature="0"
     style="fill:#5b5b5b" />
  <path
     d="m 72.274679,49.628976 c 0,5.76 -6.943,10.427 -15.506,10.427 -8.564,0 -15.505,-4.668 -15.505,-10.428 0,-1.344 -1.949,-4.456 -2.502,-8.437 -1.818,-13.079 -1.526,-35.5400007 18.007,-35.5400007 19.432,0 20.092,21.3100007 18.217,34.5030007 -0.636,4.476 -2.711,8.016 -2.711,9.474"
     id="path20"
     inkscape:connector-curvature="0"
     style="fill:#bdbec0" />
  <path
     d="m 72.274679,49.628976 c 0,5.76 -6.943,10.427 -15.506,10.427 -8.564,0 -15.505,-4.668 -15.505,-10.428 0,-1.344 -1.949,-4.456 -2.502,-8.437 -1.818,-13.079 -1.526,-35.5400007 18.007,-35.5400007 19.432,0 20.092,21.3100007 18.217,34.5030007 -0.636,4.476 -2.711,8.016 -2.711,9.474"
     id="path22"
     inkscape:connector-curvature="0"
     style="fill:#ffffff" />
  <path
     d="m 69.553679,30.277976 c 0,-11.339 -5.764,-15.923 -12.876,-15.923 -7.11,0 -12.876,4.584 -12.876,15.923 0,4.448 0.739,11.716 2.266,16.706 2.364,7.73 7.346,2.735 10.61,12.528 2.72,-9.793 8.303,-4.893 10.663,-12.694 1.496,-4.946 2.213,-12.142 2.213,-16.54"
     id="path24"
     inkscape:connector-curvature="0"
     style="fill:#515151" />
  <path
     d="m 56.677679,12.208976 c 4.143,0 7.897,1.115 10.642,3.6 -2.466,-3.523 -6.314,-5.077001 -10.642,-5.077001 -4.327,0 -8.175,1.554001 -10.641,5.078001 2.744,-2.486 6.499,-3.602 10.641,-3.602 m 11.735,5.183 c 1.912,2.841 3.05,6.805 3.05,12.076 0,5.667 -0.655,11.515 -2.095,16.999 -0.414,1.576 -0.86,3.222 -1.786,4.585 -0.665,0.98 -2.15,1.43 -3.24,1.8 -1.45,0.49 -2.904,1.09 -4.082,2.092 -1.34,1.139 -2.17,2.708 -3.169,4.127 -0.124,0.176 -0.685,0.785 -0.61,0.99 0.231,0.632 5.638,-0.808 6.212,-0.976 2.183,-0.636 4.32,-1.549 6.096,-2.99 a 9.715,9.715 0 0 0 2.352,-2.758 7.35,7.35 0 0 0 0.802,-2.238 c 0.149,-0.776 -0.042,-1.867 0.226,-2.582 2,-5.31 3.825,-8.052 3.221,-19.525 -0.976,-18.555001 -3.613,-8.867 -6.977,-11.6"
     id="path26"
     inkscape:connector-curvature="0"
     style="fill:#e6e6e6" />
  <path
     d="m 64.635679,53.757976 c 0.72,-0.387 1.458,-0.743 2.133,-1.204 1.02,-0.699 1.501,-1.495 1.974,-2.62 0.527,-1.255 0.857,-2.336 1.18,-3.656 1.329,-5.446 1.943,-11.207 1.943,-16.811 0,-3.825 -0.593,-7.116 -1.768,-9.82 2.246,2.787 3.382,6.547 3.382,11.219 0,1.521 0.029,3.045 -0.048,4.566 -0.029,0.567 -0.615,2.706 -0.186,3.184 0.352,0.394 0.525,-0.382 0.735,-0.594 0.495,1.35 1.082,-1.176 1.329,-1.272 0.303,1.27 -0.012,2.314 -0.366,3.504 -0.356,1.198 -0.498,2.449 -0.802,3.661 -0.34,1.363 -1.089,2.592 -1.504,3.953 -0.507,1.664 -0.336,3.335 -1.086,4.928 -0.677,1.438 -1.773,2.64 -3.04,3.582 -1.359,1.009 -2.532,1.957 -4.208,2.454 -1.386,0.412 -2.767,0.968 -4.227,0.995 -0.834,0.016 -1.78,0.41 -2.596,0.219 -0.125,-0.031 1.286,-1.094 1.42,-1.183 0.58,-0.39 0.951,-0.997 1.379,-1.536 0.957,-1.205 2.198,-2.26 3.496,-3.075 0.28,-0.176 0.568,-0.337 0.86,-0.494"
     id="path28"
     inkscape:connector-curvature="0"
     style="fill:#cccccc" />
  <path
     d="m 68.115679,51.578976 c 0.603,-0.844 1.142,-1.917 1.575,-3.32 1.693,-5.464 2.578,-13.59 2.578,-18.792 0,-2.425 -0.238,-4.648 -0.71,-6.647 1.01,2.258 1.133,4.779 1.133,7.874 0,4.85 -0.874,12.484 -2.78,17.552 -0.558,1.478 -1.004,2.593 -1.796,3.333"
     id="path30"
     inkscape:connector-curvature="0"
     style="fill:#868687" />
  <path
     d="m 45.150679,17.390976 c -1.912,2.841 -3.05,6.805 -3.05,12.076 0,5.667 0.655,11.515 2.095,16.999 0.413,1.576 0.86,3.222 1.785,4.585 0.666,0.98 2.15,1.43 3.242,1.8 1.45,0.49 2.903,1.09 4.08,2.092 1.34,1.139 2.171,2.708 3.17,4.127 0.123,0.176 0.684,0.785 0.61,0.99 -0.231,0.632 -5.638,-0.808 -6.213,-0.976 -2.182,-0.636 -4.32,-1.549 -6.096,-2.99 a 9.73,9.73 0 0 1 -2.352,-2.758 7.38,7.38 0 0 1 -0.802,-2.238 c -0.148,-0.776 0.043,-1.867 -0.226,-2.582 -1.998,-5.31 -3.22,-8.036 -3.22,-19.525 0,-8.555 3.613,-8.867 6.977,-11.6"
     id="path32"
     inkscape:connector-curvature="0"
     style="fill:#e6e6e6" />
  <path
     d="m 48.927679,53.757976 c -0.72,-0.387 -1.459,-0.743 -2.134,-1.204 -1.02,-0.699 -1.5,-1.495 -1.974,-2.62 -0.527,-1.255 -0.856,-2.336 -1.179,-3.656 -1.329,-5.446 -1.944,-11.207 -1.944,-16.811 0,-3.825 0.594,-7.116 1.77,-9.82 -2.248,2.787 -3.383,6.547 -3.383,11.219 0,1.521 -0.03,3.045 0.047,4.566 0.03,0.567 0.616,2.706 0.187,3.184 -0.352,0.394 -0.526,-0.382 -0.736,-0.594 -0.494,1.35 -1.081,-1.176 -1.328,-1.272 -0.303,1.27 0.012,2.314 0.365,3.504 0.357,1.198 0.5,2.449 0.802,3.661 0.34,1.363 1.09,2.592 1.504,3.953 0.507,1.664 0.336,3.335 1.087,4.928 0.677,1.438 1.772,2.64 3.04,3.582 1.358,1.009 2.532,1.957 4.207,2.454 1.387,0.412 2.768,0.968 4.228,0.995 0.834,0.016 1.78,0.41 2.595,0.219 0.126,-0.031 -1.286,-1.094 -1.418,-1.183 -0.582,-0.39 -0.952,-0.997 -1.38,-1.536 -0.958,-1.205 -2.198,-2.26 -3.496,-3.075 -0.28,-0.176 -0.569,-0.337 -0.86,-0.494"
     id="path34"
     inkscape:connector-curvature="0"
     style="fill:#cccccc" />
  <path
     d="m 45.447679,51.578976 c -0.603,-0.844 -1.142,-1.917 -1.576,-3.32 -1.692,-5.464 -2.577,-13.59 -2.577,-18.792 0,-2.425 0.237,-4.648 0.71,-6.647 -1.01,2.258 -1.133,4.779 -1.133,7.874 0,4.85 0.873,12.484 2.78,17.552 0.558,1.478 1.004,2.593 1.796,3.333"
     id="path36"
     inkscape:connector-curvature="0"
     style="fill:#868687" />
  <path
     d="m 73.432679,51.861976 c -0.316,-0.026 -1.159,-0.095 -1.347,-0.131 -0.933,-0.184 0.1,-0.505 0.183,-1.352 0.034,-0.356 0.132,-0.697 0.116,-1.053 -1.022,1.01 -1.207,2.852 -2.081,4.008 -0.711,0.94 -1.465,1.722 -2.329,2.528 -1.736,1.617 -3.787,2.394 -6.073,2.897 -1.113,0.245 -2.213,0.57 -3.335,0.743 -0.357,0.056 -1.324,0.402 -1.747,0.817 -0.423,-0.415 -1.39,-0.761 -1.746,-0.817 -1.123,-0.174 -2.222,-0.498 -3.336,-0.743 -1.306,-0.287 -2.51,-0.607 -3.749,-1.127 -1.828,-0.766 -3.84,-2.112 -4.88,-3.844 -0.455,-0.756 -0.674,-1.59 -0.946,-2.417 -0.06,-0.185 -0.124,-0.37 -0.194,-0.555 -0.207,-0.55 -0.326,-1.077 -0.726,-1.525 -0.02,0.35 0.148,1.768 0.243,2.108 0.093,0.33 -1.641,0.105 -2.453,0.33 0.348,0.98 2.692,4.065 3.339,4.874 1.347,1.687 4.12,2.673 6.088,3.533 2.915,1.276 6.925,2.171 10.11,1.887 1.945,-0.173 3.774,-0.45 5.557,-1.308 1.025,-0.493 2.027,-1.045 2.922,-1.764 0.41,-0.328 0.903,-0.617 1.333,-0.939 0.892,-0.669 1.598,-1.261 2.31,-2.113 0.928,-1.11 3.11,-2.479 2.741,-4.037"
     id="path38"
     inkscape:connector-curvature="0"
     style="fill:#e6e6e6" />
  <path
     d="m 56.768679,5.8519753 c -5.459,0 -9.786,1.7909997 -12.86,5.3219997 -6.84,7.856001 -6.036,22.161001 -4.948,29.989001 0.318,2.288 1.089,4.253 1.708,5.833 0.444,1.134 0.796,2.031 0.796,2.634 0,5.637 6.865,10.225 15.304,10.225 8.44,0 15.305,-4.588 15.305,-10.225 0,-0.651 0.375,-1.656 0.851,-2.93 0.667,-1.784 1.496,-4.002 1.862,-6.574 1.062,-7.475 1.847,-21.162 -4.83,-28.855001 -3.121,-3.595 -7.558,-5.4189997 -13.188,-5.4189997 z m 0,54.4060007 c -8.66,0 -15.706,-4.768 -15.706,-10.628 0,-0.527 -0.34,-1.392 -0.77,-2.488 -0.593,-1.515 -1.406,-3.588 -1.73,-5.922 -1.098,-7.897 -1.902,-22.333 5.042,-30.310001 3.155,-3.623 7.583,-5.4599997 13.164,-5.4599997 5.75,0 10.29,1.8699997 13.492,5.5569997 6.781,7.813001 5.997,21.633001 4.925,29.175001 -0.372,2.616 -1.246,4.953 -1.883,6.66 -0.462,1.234 -0.827,2.21 -0.827,2.788 0,5.86 -7.046,10.628 -15.707,10.628"
     id="path40"
     inkscape:connector-curvature="0"
     style="fill:#5b5b5b" />
  <path
     d="m 56.677679,13.348976 c -7.5,0 -13.579,4.673 -13.579,16.231 0,4.536 0.78,11.946 2.39,17.032 0.83,2.627 1.969,3.81 3.243,4.594 -1.041,-0.772 -1.967,-1.943 -2.664,-4.222 -1.527,-4.99 -2.266,-12.258 -2.266,-16.706 0,-11.339 5.765,-15.923 12.876,-15.923 7.112,0 12.876,4.584 12.876,15.923 0,4.398 -0.717,11.594 -2.213,16.54 -0.675,2.233 -1.615,3.424 -2.676,4.217 1.296,-0.808 2.455,-2.023 3.259,-4.59 1.577,-5.043 2.334,-12.38 2.334,-16.865 0,-11.558 -6.08,-16.23 -13.58,-16.23"
     id="path42"
     inkscape:connector-curvature="0"
     style="fill:#a5a5a5" />
</svg>
