<?xml version="1.0" encoding="UTF-8" standalone="no"?>
<svg
   xmlns:dc="http://purl.org/dc/elements/1.1/"
   xmlns:cc="http://creativecommons.org/ns#"
   xmlns:rdf="http://www.w3.org/1999/02/22-rdf-syntax-ns#"
   xmlns:svg="http://www.w3.org/2000/svg"
   xmlns="http://www.w3.org/2000/svg"
   xmlns:xlink="http://www.w3.org/1999/xlink"
   xmlns:sodipodi="http://sodipodi.sourceforge.net/DTD/sodipodi-0.dtd"
   xmlns:inkscape="http://www.inkscape.org/namespaces/inkscape"
   width="237.87102mm"
   height="62.516312mm"
   viewBox="0 0 237.87102 62.516311"
   version="1.1"
   id="svg8"
   inkscape:version="1.0.1 (3bc2e813f5, 2020-09-07)"
   sodipodi:docname="Jojos.svg">
  <defs
     id="defs2">
    <linearGradient
       inkscape:collect="always"
       id="linearGradient891">
      <stop
         style="stop-color:#e8279a;stop-opacity:1;"
         offset="0"
         id="stop887" />
      <stop
         style="stop-color:#eeeeee;stop-opacity:1"
         offset="1"
         id="stop889" />
    </linearGradient>
    <linearGradient
       inkscape:collect="always"
       id="linearGradient1116">
      <stop
         style="stop-color:#e8279a;stop-opacity:1;"
         offset="0"
         id="stop1112" />
      <stop
         style="stop-color:#ffffff;stop-opacity:1"
         offset="1"
         id="stop1114" />
    </linearGradient>
    <linearGradient
       inkscape:collect="always"
       xlink:href="#linearGradient1116"
       id="linearGradient1120"
       gradientUnits="userSpaceOnUse"
       x1="265.92578"
       y1="0.99804688"
       x2="265.92578"
       y2="190.46094" />
    <linearGradient
       inkscape:collect="always"
       xlink:href="#linearGradient1116"
       id="linearGradient1143"
       gradientUnits="userSpaceOnUse"
       x1="19.351082"
       y1="-0.12395071"
       x2="19.351082"
       y2="50.016399" />
    <linearGradient
       inkscape:collect="always"
       xlink:href="#linearGradient1116"
       id="linearGradient1151"
       x1="119.62817"
       y1="-0.12395079"
       x2="119.62817"
       y2="50.016399"
       gradientUnits="userSpaceOnUse" />
    <linearGradient
       inkscape:collect="always"
       xlink:href="#linearGradient1116"
       id="linearGradient1159"
       x1="644.2207"
       y1="0.99804688"
       x2="644.2207"
       y2="190.46094"
       gradientUnits="userSpaceOnUse" />
    <linearGradient
       inkscape:collect="always"
       xlink:href="#linearGradient1116"
       id="linearGradient1169"
       gradientUnits="userSpaceOnUse"
       x1="197.46251"
       y1="-0.11167453"
       x2="197.46251"
       y2="50.137001" />
    <linearGradient
       inkscape:collect="always"
       xlink:href="#linearGradient1116"
       id="linearGradient1179"
       gradientUnits="userSpaceOnUse"
       x1="215.67192"
       y1="-0.25578883"
       x2="215.67192"
       y2="50.279629" />
    <linearGradient
       inkscape:collect="always"
       xlink:href="#linearGradient891"
       id="linearGradient885"
       x1="109.32365"
       y1="52.320213"
       x2="109.32365"
       y2="62.257561"
       gradientUnits="userSpaceOnUse" />
  </defs>
  <sodipodi:namedview
     id="base"
     pagecolor="#ffffff"
     bordercolor="#666666"
     borderopacity="1.0"
     inkscape:pageopacity="0.0"
     inkscape:pageshadow="2"
     inkscape:zoom="1"
     inkscape:cx="498.86879"
     inkscape:cy="112.4608"
     inkscape:document-units="mm"
     inkscape:current-layer="layer1"
     inkscape:document-rotation="0"
     showgrid="false"
     showguides="true"
     inkscape:guide-bbox="true"
     inkscape:snap-bbox="true"
     inkscape:bbox-nodes="false"
     inkscape:bbox-paths="true"
     inkscape:snap-bbox-midpoints="true"
     inkscape:window-width="1920"
     inkscape:window-height="1017"
     inkscape:window-x="1912"
     inkscape:window-y="-8"
     inkscape:window-maximized="1"
     inkscape:pagecheckerboard="true">
    <sodipodi:guide
       position="45.500117,28.257422"
       orientation="1,0"
       id="guide12" />
    <sodipodi:guide
       position="25.502814,30.330382"
       orientation="1,0"
       id="guide14" />
    <sodipodi:guide
       position="30.45194,38.634052"
       orientation="1,0"
       id="guide16" />
    <sodipodi:guide
       position="20.435571,36.082712"
       orientation="1,0"
       id="guide18" />
    <sodipodi:guide
       position="5.5055107,33.436882"
       orientation="1,0"
       id="guide20" />
    <sodipodi:guide
       position="15.498256,22.259012"
       orientation="1,0"
       id="guide22" />
    <sodipodi:guide
       position="136.73885,62.381513"
       orientation="0,-1"
       id="guide28" />
    <sodipodi:guide
       position="-10.328149,52.258913"
       orientation="0,-1"
       id="guide30" />
    <sodipodi:guide
       position="-13.378753,12.253102"
       orientation="0,-1"
       id="guide32" />
    <sodipodi:guide
       position="-19.417374,22.259012"
       orientation="0,-1"
       id="guide34" />
    <sodipodi:guide
       position="50.505349,65.843913"
       orientation="1,0"
       id="guide46" />
    <sodipodi:guide
       position="100.50599,60.485803"
       orientation="1,0"
       id="guide48" />
    <sodipodi:guide
       position="75.570217,65.344533"
       orientation="1,0"
       id="guide50" />
    <sodipodi:guide
       position="105.50148,67.197833"
       orientation="1,0"
       id="guide73" />
    <sodipodi:guide
       position="205.49745,36.923712"
       orientation="1,0"
       id="guide77" />
    <sodipodi:guide
       position="235.48427,41.397172"
       orientation="1,0"
       id="guide945" />
    <sodipodi:guide
       position="219.95031,47.242463"
       orientation="0,-1"
       id="guide947" />
    <sodipodi:guide
       position="219.694,27.258152"
       orientation="0,-1"
       id="guide949" />
    <sodipodi:guide
       position="217.85018,37.258572"
       orientation="0,-1"
       id="guide951" />
    <sodipodi:guide
       position="234.34127,39.758692"
       orientation="0,-1"
       id="guide953" />
    <sodipodi:guide
       position="231.82349,34.757432"
       orientation="0,-1"
       id="guide955" />
    <sodipodi:guide
       position="210.49973,50.028853"
       orientation="1,0"
       id="guide957" />
    <sodipodi:guide
       position="230.51472,44.811552"
       orientation="1,0"
       id="guide959" />
    <sodipodi:guide
       position="220.50532,52.841083"
       orientation="1,0"
       id="guide963" />
    <sodipodi:guide
       position="215.50614,50.481543"
       orientation="1,0"
       id="guide965" />
    <sodipodi:guide
       position="202.49608,51.558473"
       orientation="1,0"
       id="guide967" />
    <sodipodi:guide
       position="225.5101,43.344072"
       orientation="1,0"
       id="guide969" />
    <sodipodi:guide
       position="238.51276,42.426172"
       orientation="1,0"
       id="guide971" />
    <sodipodi:guide
       position="145.27509,68.904694"
       orientation="1,0"
       id="guide1181" />
  </sodipodi:namedview>
  <metadata
     id="metadata5">
    <rdf:RDF>
      <cc:Work
         rdf:about="">
        <dc:format>image/svg+xml</dc:format>
        <dc:type
           rdf:resource="http://purl.org/dc/dcmitype/StillImage" />
        <dc:title></dc:title>
      </cc:Work>
    </rdf:RDF>
  </metadata>
  <g
     inkscape:label="Layer 1"
     inkscape:groupmode="layer"
     id="layer1"
     transform="translate(5.5055106,0.25874953)">
    <g
       id="g1092">
      <path
         style="fill:url(#linearGradient1143);fill-opacity:1;stroke:#000000;stroke-width:0.264583px;stroke-linecap:butt;stroke-linejoin:miter;stroke-opacity:1"
         d="M 0.11811457,-0.12395032 40.089096,0.0083397 39.994606,9.9986507 H 25.064544 L 24.946429,37.483988 C 24.946429,54.209437 0,53.824407 0,37.483988 V 32.11901 l 10.022607,0.03243 v 5.345387 c 0,3.182854 4.907453,3.182854 4.907453,-0.01284 V 9.9986508 l -14.81194543,-1.2e-6 z"
         id="path10"
         sodipodi:nodetypes="ccccccccscccc" />
      <path
         id="path42"
         style="fill:url(#linearGradient1120);fill-opacity:1;stroke:#000000;stroke-width:0.999999"
         d="M 265.92578,0.99804688 A 94.480857,94.480857 0 0 0 171.44531,95.478516 94.480857,94.480857 0 0 0 265.92578,189.96094 94.480857,94.480857 0 0 0 360.4082,95.478516 94.480857,94.480857 0 0 0 265.92578,0.99804688 Z M 265.51562,38.787109 a 56.692724,56.692724 0 0 1 0.41016,0 56.692724,56.692724 0 0 1 56.69336,56.691407 56.692724,56.692724 0 0 1 -56.69336,56.693364 56.692724,56.692724 0 0 1 -56.6914,-56.693364 56.692724,56.692724 0 0 1 56.28124,-56.691407 z"
         transform="matrix(0.26458333,0,0,0.26458333,-0.22808527,-0.25578923)" />
      <path
         style="fill:url(#linearGradient1151);fill-opacity:1;stroke:#000000;stroke-width:0.264583px;stroke-linecap:butt;stroke-linejoin:miter;stroke-opacity:1"
         d="M 99.995964,-0.12394924 H 139.76957 V 9.9986507 l -14.73265,1.1e-6 V 37.483987 c 0,16.725451 -24.94643,16.340421 -24.94643,0 V 32.11901 l 10.02261,0.03243 v 5.345388 c 0,3.182853 4.90745,3.182853 4.90745,-0.01283 V 9.9986508 H 99.995964 Z"
         id="path10-6"
         sodipodi:nodetypes="ccccccccscccc" />
      <path
         id="path42-1"
         style="fill:url(#linearGradient1159);fill-opacity:1;stroke:#000000;stroke-width:0.999999"
         d="M 644.2207,0.99804688 A 94.480857,94.480857 0 0 0 549.74023,95.478516 94.480857,94.480857 0 0 0 644.2207,189.96094 94.480857,94.480857 0 0 0 738.70312,95.478516 94.480857,94.480857 0 0 0 644.2207,0.99804688 Z M 643.80859,38.787109 a 56.692724,56.692724 0 0 1 0.41211,0 56.692724,56.692724 0 0 1 56.69336,56.691407 56.692724,56.692724 0 0 1 -56.69336,56.693364 56.692724,56.692724 0 0 1 -56.6914,-56.693364 56.692724,56.692724 0 0 1 56.27929,-56.691407 z"
         transform="matrix(0.26458333,0,0,0.26458333,-0.22808527,-0.25578923)" />
      <path
         id="path79-4"
         style="fill:url(#linearGradient1169);fill-opacity:1;stroke:#000000;stroke-width:0.29415;stroke-linecap:butt;stroke-linejoin:miter;stroke-opacity:1"
         d="m 197.45451,11.026961 h 2.55548 V 2.9836774 l 1.26693,0.9169135 1.05598,-2.260735 -2.35013,-1.75153043 h -2.51908 m 0.008,11.13863553 h -2.55548 V 2.9836774 l -1.26693,0.9169135 -1.05598,-2.260735 2.35013,-1.75153043 h 2.51908" />
      <path
         style="fill:url(#linearGradient1179);fill-opacity:1;stroke:#000000;stroke-width:0.264583px;stroke-linecap:butt;stroke-linejoin:round;stroke-opacity:1"
         d="m 227.59337,9.9986506 h -17.59275 c -13.01006,2e-7 -13.01006,17.5014804 0,17.5014794 l 10.00396,1e-6 c 5.00462,0 5.00462,7.49928 0,7.49928 h -17.62727 c -3.00137,0 -3.00137,4.999138 0,4.999138 l 17.62727,2e-6 c 13.00266,0 13.00266,-17.49968 0,-17.49968 h -10.00396 c -5.00641,0 -5.00641,-7.48377 0,-7.48377 h 17.59275 c 3.02849,0 3.02849,-5.0164504 0,-5.0164504 z"
         id="path961"
         sodipodi:nodetypes="ccccccccccccc" />
    </g>
    <g
       aria-label="Just unOrdinary and Jollious Original Shirts"
       id="text877"
       style="font-size:10.5833px;line-height:1.25;font-family:'SF Fedora';-inkscape-font-specification:'SF Fedora';fill:url(#linearGradient885);fill-opacity:1;stroke:#000000;stroke-width:0.264583;stroke-opacity:1">
      <path
         d="m 3.7962176,54.320086 q -0.08785,0.01033 -0.5942771,0.04134 -0.5064274,0.03101 -1.4469355,0.08785 l 0.7544735,0.325561 q -0.1705317,0.361734 -0.3720691,0.857826 -0.2015375,0.496092 -0.4340807,1.13171 -0.2738842,0.764809 -0.4599188,1.255733 -0.1860345,0.490925 -0.30488993,0.759641 -0.75447351,1.782832 -2.57864577,2.780184 -1.2350628,0.666623 -2.2995939,0.666623 -1.0955369,0 -1.5657909,-0.780311 l 1.9998715,-1.674311 q 0.222208,0.222208 0.5942771,0.222208 0.8474908,0 1.343583,-1.142046 0.2945547,-0.728635 0.72863536,-1.782831 0.43408065,-1.054196 1.03869298,-2.506299 -0.19120219,0.02584 -0.47542166,0.04651 -0.27905185,0.02067 -0.66662386,0.04134 l 0.93017282,-1.999872 Q 1.2692481,52.48041 2.2459295,52.402896 q 0.9818491,-0.08268 1.7104845,-0.08268 0.4237454,0 0.775144,0.03101 z"
         style="fill:url(#linearGradient885);fill-opacity:1;stroke:#000000;stroke-width:0.264583;stroke-opacity:1"
         id="path881" />
      <path
         d="m 9.4909425,56.562836 q -0.568439,1.359085 -1.7776636,2.35127 -1.3280801,1.100704 -2.6664955,1.100704 -1.5864614,0 -1.5864614,-1.638137 0,-1.452104 1.3642535,-4.459662 0.1912022,-0.408243 0.5736066,-1.255734 l 1.6949815,-0.02067 q -0.2790518,0.651121 -0.5581036,1.281571 -0.2738843,0.625283 -0.5529361,1.276404 -0.7544735,1.881016 -0.7544735,2.521802 0,0.645953 0.5167627,0.645953 0.635618,0 1.1988894,-0.563271 0.4444159,-0.444416 0.7389706,-1.142046 l 1.7569931,-4.051419 1.6949818,-0.02584 z"
         style="fill:#000000;fill-opacity:1;stroke:#000000;stroke-width:0.264583;stroke-opacity:1"
         id="path883" />
      <path
         d="m 15.304523,54.299415 q -0.976681,0.03101 -1.018022,0.04134 -0.707965,0.10852 -0.707965,0.52193 0,0.04134 0.02067,0.227376 0.02067,0.180867 0.06201,0.52193 0.07751,0.547769 0.10852,0.862994 0.03101,0.315225 0.03101,0.408242 0,0.444416 -0.180867,0.940508 -0.165364,0.428913 -0.346231,0.656289 -0.599445,0.785479 -1.875849,1.250566 -0.516762,0.180867 -1.074866,0.299722 -0.5581037,0.113688 -1.1678837,0.155029 l 0.5477685,-1.896519 q 0.4650862,-0.05168 0.8216522,-0.124023 0.356567,-0.07235 0.60978,-0.160197 0.30489,-0.103352 0.413411,-0.258381 0.113687,-0.149861 0.113687,-0.470254 0,-0.139526 -0.0052,-0.263549 -0.0052,-0.129191 -0.0155,-0.248046 -0.02584,-0.201537 -0.124023,-0.728635 -0.09818,-0.444416 -0.09818,-0.738971 0,-0.775144 0.707965,-1.54512 0.604612,-0.666624 1.421097,-1.007688 0.625283,-0.263549 1.648473,-0.263549 0.248046,0 0.485757,0.0155 0.237711,0.0155 0.459919,0.03617 z"
         style="fill:#000000;fill-opacity:1;stroke:#000000;stroke-width:0.264583;stroke-opacity:1"
         id="path885" />
      <path
         d="m 21.092265,54.268409 -1.643305,0.02067 q -0.666624,1.472773 -1.240231,2.883535 -0.568439,1.405595 -1.111039,2.811189 l -1.819005,0.129191 q 0.542601,-1.514115 1.116207,-2.935212 0.578775,-1.426265 1.214393,-2.837027 l -1.586462,0.01033 0.769977,-1.669143 5.069441,-0.08785 z"
         style="fill:#000000;fill-opacity:1;stroke:#000000;stroke-width:0.264583;stroke-opacity:1"
         id="path887" />
      <path
         d="m 29.742871,56.562836 q -0.568439,1.359085 -1.777663,2.35127 -1.32808,1.100704 -2.666496,1.100704 -1.586461,0 -1.586461,-1.638137 0,-1.452104 1.364253,-4.459662 0.191202,-0.408243 0.573607,-1.255734 l 1.694981,-0.02067 q -0.279051,0.651121 -0.558103,1.281571 -0.273884,0.625283 -0.552936,1.276404 -0.754474,1.881016 -0.754474,2.521802 0,0.645953 0.516763,0.645953 0.635618,0 1.198889,-0.563271 0.444416,-0.444416 0.738971,-1.142046 l 1.756993,-4.051419 1.694982,-0.02584 z"
         style="fill:#000000;fill-opacity:1;stroke:#000000;stroke-width:0.264583;stroke-opacity:1"
         id="path889" />
      <path
         d="m 37.62867,53.136699 q -0.397907,0.821653 -0.754474,1.638138 -0.351398,0.811317 -0.676959,1.627802 -0.32556,0.816485 -0.620115,1.643305 -0.294555,0.821653 -0.563271,1.663976 l -1.710485,0.222208 -0.785479,-2.899038 q -0.263549,0.60978 -0.558104,1.353918 -0.294554,0.744138 -0.635618,1.669143 l -1.834507,0.129191 q 0.558103,-1.508947 1.162716,-3.007559 0.60978,-1.498612 1.281571,-3.023062 l -0.155029,-0.583941 2.010207,-1.049029 0.728636,3.653513 q 0.749305,-2.061884 1.627802,-3.632842 z"
         style="fill:#000000;fill-opacity:1;stroke:#000000;stroke-width:0.264583;stroke-opacity:1"
         id="path891" />
      <path
         d="m 42.785962,55.348443 q -0.170532,-0.73897 -1.121375,-0.73897 h -0.139526 q -1.167884,0.08785 -2.211744,1.607132 -0.981849,1.415929 -0.981849,2.65616 0,0.950843 0.800982,0.950843 0.992184,0 2.010207,-1.173051 0.997352,-1.121375 0.997352,-2.149733 0,-0.330728 -0.129191,-0.635618 z m 1.457271,-0.583942 q 0.160196,0.459919 0.160196,0.909503 0,0.656288 -0.382404,1.601964 -0.702798,1.715652 -2.315097,3.090241 -1.762161,1.477941 -3.482981,1.477941 -1.04386,0 -1.56579,-0.599445 -0.496093,-0.594277 -0.496093,-1.63297 0,-1.049028 0.475422,-2.232414 0.764809,-1.891352 2.371941,-3.33312 1.787999,-1.627802 3.65868,-1.627802 2.030877,0 2.309929,1.860346 z"
         style="fill:url(#linearGradient885);fill-opacity:1;stroke:#000000;stroke-width:0.264583;stroke-opacity:1"
         id="path893" />
      <path
         d="m 49.400526,54.692155 q 0,-0.537434 -1.090369,-0.537434 h -0.139526 -0.08268 q -0.03617,0 -0.08785,0.01034 -0.05168,0.01034 -0.103352,0.01034 h -0.08785 -0.113688 l 0.28422,0.175699 -0.971514,2.087721 q 0.733803,-0.103352 1.353918,-0.454751 0.769976,-0.43408 0.971514,-0.987016 0.06718,-0.155029 0.06718,-0.30489 z m 2.082554,-0.78548 q 0,0.48059 -0.351399,1.080034 -0.981849,1.705317 -3.033397,2.532137 0.888832,0.640786 1.121375,2.180739 l -1.948195,0.527098 q -0.01034,-0.403075 -0.05684,-0.707965 -0.04134,-0.310058 -0.124023,-0.532266 -0.227376,-0.578774 -0.816485,-0.950843 -0.310058,0.640786 -0.537433,1.147213 -0.222208,0.506428 -0.382405,0.894 l -1.787999,0.118855 q 0.444416,-0.997352 1.142046,-2.470125 0.69763,-1.477942 1.694982,-3.477813 -0.149862,0.02584 -0.279052,0.05168 -0.124023,0.02067 -0.227376,0.04134 l 0.387572,-1.565791 q 1.012855,-0.211873 2.247918,-0.211873 2.950715,0 2.950715,1.343583 z"
         style="fill:#000000;fill-opacity:1;stroke:#000000;stroke-width:0.264583;stroke-opacity:1"
         id="path895" />
      <path
         d="m 55.612014,55.451796 q 0,-0.583942 -0.50126,-0.930173 -0.397907,-0.294555 -1.043861,-0.356566 l 0.315225,0.315225 q -0.408242,0.702797 -0.84749,1.679479 -0.439249,0.976681 -0.909503,2.258253 0.987017,-0.206706 1.819005,-0.930173 1.167884,-1.012855 1.167884,-2.036045 z m 1.798334,-0.58911 q 0,0.527098 -0.253214,1.162716 -0.604612,1.545121 -2.216912,2.738843 -1.607132,1.193721 -3.24527,1.322912 -0.248046,0.02067 -0.614947,0.04651 -0.361734,0.02067 -0.847491,0.05168 0.552936,-1.514115 1.188554,-2.981721 0.640786,-1.472773 1.405595,-2.986888 -0.211873,0.03617 -0.485757,0.124023 l 0.387572,-1.565791 q 0.361734,-0.08268 0.713132,-0.124023 0.351399,-0.04134 0.707965,-0.04134 1.297075,0 2.160068,0.485757 1.100705,0.599445 1.100705,1.767328 z"
         style="fill:#000000;fill-opacity:1;stroke:#000000;stroke-width:0.264583;stroke-opacity:1"
         id="path897" />
      <path
         d="m 61.136206,52.650942 q -0.480589,1.00252 -0.909502,1.958531 -0.423746,0.950843 -0.80615,1.870681 -0.377237,0.919837 -0.7183,1.813837 -0.335896,0.893999 -0.635618,1.772495 l -1.819005,0.129191 q 0.676959,-1.963698 1.446935,-3.834379 0.775144,-1.875848 1.663976,-3.700021 z"
         style="fill:#000000;fill-opacity:1;stroke:#000000;stroke-width:0.264583;stroke-opacity:1"
         id="path899" />
      <path
         d="m 67.337357,53.136699 q -0.397908,0.821653 -0.754474,1.638138 -0.351398,0.811317 -0.676959,1.627802 -0.32556,0.816485 -0.620115,1.643305 -0.294555,0.821653 -0.563271,1.663976 l -1.710485,0.222208 -0.785479,-2.899038 q -0.263549,0.60978 -0.558104,1.353918 -0.294555,0.744138 -0.635618,1.669143 l -1.834507,0.129191 q 0.558103,-1.508947 1.162716,-3.007559 0.60978,-1.498612 1.281571,-3.023062 l -0.155029,-0.583941 2.010207,-1.049029 0.728635,3.653513 q 0.749306,-2.061884 1.627803,-3.632842 z"
         style="fill:#000000;fill-opacity:1;stroke:#000000;stroke-width:0.264583;stroke-opacity:1"
         id="path901" />
      <path
         d="m 69.698966,55.064224 q -0.263548,0.387572 -0.63045,0.981849 -0.361734,0.594277 -0.873329,1.395259 0.10852,-0.01034 0.237711,-0.0155 0.134358,-0.0052 0.284219,-0.0052 0.144694,0 0.268717,0.0052 0.129191,0.0052 0.237711,0.0155 0.07235,-0.397907 0.191202,-0.987017 0.118855,-0.589109 0.284219,-1.390091 z m 2.263421,-2.490796 q -0.899167,3.214264 -1.457271,7.291521 l -1.819004,0.118855 0.196369,-1.018022 q -0.366901,-0.06201 -0.790646,-0.06201 -0.180867,0 -0.366902,0.01034 -0.186035,0.01034 -0.361734,0.03101 l -0.635618,1.178219 -1.844843,0.113688 q 0.449584,-0.775144 0.966347,-1.627802 0.52193,-0.857826 1.116207,-1.80867 0.599445,-0.950843 1.276404,-1.999871 0.676959,-1.054196 1.446935,-2.216912 z"
         style="fill:#000000;fill-opacity:1;stroke:#000000;stroke-width:0.264583;stroke-opacity:1"
         id="path903" />
      <path
         d="m 76.633921,54.692155 q 0,-0.537434 -1.09037,-0.537434 h -0.139526 -0.08268 q -0.03617,0 -0.08785,0.01034 -0.05168,0.01034 -0.103353,0.01034 h -0.08785 -0.113688 l 0.284219,0.175699 -0.971514,2.087721 q 0.733803,-0.103352 1.353919,-0.454751 0.769976,-0.43408 0.971514,-0.987016 0.06718,-0.155029 0.06718,-0.30489 z m 2.082553,-0.78548 q 0,0.48059 -0.351398,1.080034 -0.981849,1.705317 -3.033397,2.532137 0.888832,0.640786 1.121375,2.180739 l -1.948196,0.527098 q -0.01033,-0.403075 -0.05684,-0.707965 -0.04134,-0.310058 -0.124024,-0.532266 -0.227375,-0.578774 -0.816485,-0.950843 -0.310057,0.640786 -0.537433,1.147213 -0.222208,0.506428 -0.382404,0.894 l -1.787999,0.118855 q 0.444416,-0.997352 1.142046,-2.470125 0.697629,-1.477942 1.694981,-3.477813 -0.149861,0.02584 -0.279052,0.05168 -0.124023,0.02067 -0.227375,0.04134 l 0.387572,-1.565791 q 1.012855,-0.211873 2.247917,-0.211873 2.950715,0 2.950715,1.343583 z"
         style="fill:#000000;fill-opacity:1;stroke:#000000;stroke-width:0.264583;stroke-opacity:1"
         id="path905" />
      <path
         d="m 84.927962,52.774965 q -0.811318,0.862994 -1.622635,1.813837 -0.80615,0.945676 -1.658808,2.010207 -0.713133,0.899167 -1.080034,1.756993 -0.170532,0.403075 -0.341064,0.842323 -0.165364,0.439248 -0.346231,0.935341 h -1.767328 q 0.310058,-0.852659 0.58911,-1.550288 0.279051,-0.702798 0.5426,-1.266069 -0.04134,-0.248046 -0.05684,-0.516763 -0.0155,-0.268716 -0.0155,-0.563271 0,-0.93534 0.05168,-1.767328 0.05684,-0.831988 0.170532,-1.576126 l 1.881016,-0.299723 q -0.01034,0.02584 -0.04134,0.294555 -0.03101,0.263549 -0.103353,0.775144 -0.05168,0.330728 -0.07751,0.599445 -0.02067,0.263549 -0.02067,0.480589 0,0.139526 0.0052,0.258381 0.0052,0.113688 0.0155,0.19637 0.635618,-0.899167 1.167883,-1.550288 0.537434,-0.651121 1.012855,-1.074866 z"
         style="fill:#000000;fill-opacity:1;stroke:#000000;stroke-width:0.264583;stroke-opacity:1"
         id="path907" />
      <path
         d="m 89.361785,55.064224 q -0.263549,0.387572 -0.63045,0.981849 -0.361734,0.594277 -0.873329,1.395259 0.10852,-0.01034 0.237711,-0.0155 0.134358,-0.0052 0.284219,-0.0052 0.144694,0 0.268717,0.0052 0.129191,0.0052 0.237711,0.0155 0.07235,-0.397907 0.191202,-0.987017 0.118855,-0.589109 0.284219,-1.390091 z m 2.263421,-2.490796 q -0.899167,3.214264 -1.457271,7.291521 l -1.819004,0.118855 0.196369,-1.018022 q -0.366901,-0.06201 -0.790647,-0.06201 -0.180866,0 -0.366901,0.01034 -0.186035,0.01034 -0.361734,0.03101 L 86.3904,60.12333 84.545557,60.237018 q 0.449584,-0.775144 0.966346,-1.627802 0.521931,-0.857826 1.116208,-1.80867 0.599445,-0.950843 1.276404,-1.999871 0.676959,-1.054196 1.446935,-2.216912 z"
         style="fill:#000000;fill-opacity:1;stroke:#000000;stroke-width:0.264583;stroke-opacity:1"
         id="path909" />
      <path
         d="m 98.84438,53.136699 q -0.397908,0.821653 -0.754474,1.638138 -0.351399,0.811317 -0.676959,1.627802 -0.325561,0.816485 -0.620115,1.643305 -0.294555,0.821653 -0.563272,1.663976 l -1.710484,0.222208 -0.785479,-2.899038 q -0.263549,0.60978 -0.558104,1.353918 -0.294555,0.744138 -0.635618,1.669143 l -1.834508,0.129191 q 0.558104,-1.508947 1.162716,-3.007559 0.60978,-1.498612 1.281572,-3.023062 l -0.155029,-0.583941 2.010207,-1.049029 0.728635,3.653513 q 0.749306,-2.061884 1.627803,-3.632842 z"
         style="fill:#000000;fill-opacity:1;stroke:#000000;stroke-width:0.264583;stroke-opacity:1"
         id="path911" />
      <path
         d="m 102.61675,55.451796 q 0,-0.583942 -0.50126,-0.930173 -0.39791,-0.294555 -1.04386,-0.356566 l 0.31522,0.315225 q -0.40824,0.702797 -0.84749,1.679479 -0.43925,0.976681 -0.909501,2.258253 0.987021,-0.206706 1.819001,-0.930173 1.16789,-1.012855 1.16789,-2.036045 z m 1.79833,-0.58911 q 0,0.527098 -0.25321,1.162716 -0.60461,1.545121 -2.21691,2.738843 -1.60714,1.193721 -3.245273,1.322912 -0.248047,0.02067 -0.614948,0.04651 -0.361734,0.02067 -0.847491,0.05168 0.552936,-1.514115 1.188554,-2.981721 0.640786,-1.472773 1.405595,-2.986888 -0.211873,0.03617 -0.485757,0.124023 l 0.387572,-1.565791 q 0.361738,-0.08268 0.713128,-0.124023 0.3514,-0.04134 0.70797,-0.04134 1.29707,0 2.16007,0.485757 1.1007,0.599445 1.1007,1.767328 z"
         style="fill:#000000;fill-opacity:1;stroke:#000000;stroke-width:0.264583;stroke-opacity:1"
         id="path913" />
      <path
         d="m 114.771,54.320086 q -0.0879,0.01033 -0.59427,0.04134 -0.50643,0.03101 -1.44694,0.08785 l 0.75447,0.325561 q -0.17053,0.361734 -0.37207,0.857826 -0.20153,0.496092 -0.43408,1.13171 -0.27388,0.764809 -0.45992,1.255733 -0.18603,0.490925 -0.30489,0.759641 -0.75447,1.782832 -2.57864,2.780184 -1.23506,0.666623 -2.29959,0.666623 -1.09554,0 -1.5658,-0.780311 l 1.99988,-1.674311 q 0.2222,0.222208 0.59427,0.222208 0.84749,0 1.34359,-1.142046 0.29455,-0.728635 0.72863,-1.782831 0.43408,-1.054196 1.03869,-2.506299 -0.1912,0.02584 -0.47542,0.04651 -0.27905,0.02067 -0.66662,0.04134 l 0.93017,-1.999872 q 1.28157,-0.170532 2.25825,-0.248046 0.98185,-0.08268 1.71049,-0.08268 0.42374,0 0.77514,0.03101 z"
         style="fill:url(#linearGradient885);fill-opacity:1;stroke:#000000;stroke-width:0.264583;stroke-opacity:1"
         id="path915" />
      <path
         d="m 119.47355,54.821345 q -0.1602,-0.563271 -0.8785,-0.563271 h -0.11885 q -0.91984,0.08268 -1.757,1.271236 -0.78031,1.126543 -0.78031,2.103224 0,0.744139 0.62528,0.744139 0.79065,0 1.5968,-0.935341 0.79581,-0.893999 0.79581,-1.689814 0,-0.294555 -0.10852,-0.52193 z m 1.21439,-0.454751 q 0.11885,0.387572 0.11885,0.707965 0,0.511595 -0.30489,1.291907 -0.59944,1.410762 -1.85517,2.464958 -1.40043,1.183386 -2.79052,1.183386 -1.67431,0 -1.67431,-1.787999 0,-1.214392 0.78548,-2.604484 0.37723,-0.676959 0.85782,-1.224727 0.48059,-0.547769 1.07487,-0.987017 1.29707,-0.940508 2.51147,-0.940508 1.63297,0 1.86034,1.50378 z"
         style="fill:#000000;fill-opacity:1;stroke:#000000;stroke-width:0.264583;stroke-opacity:1"
         id="path917" />
      <path
         d="m 124.63084,52.650942 q -0.76481,1.617467 -1.36942,3.038565 -0.59945,1.415929 -1.07487,2.65616 h 0.16537 q 0.42374,0.01033 0.90433,-0.03617 0.48059,-0.05168 1.0542,-0.134358 l -0.8475,1.767328 q -0.925,0.124023 -1.78283,0.191203 -0.85782,0.06201 -1.69498,0.05168 h -0.24288 q 1.33842,-3.911894 3.11091,-7.524065 z"
         style="fill:#000000;fill-opacity:1;stroke:#000000;stroke-width:0.264583;stroke-opacity:1"
         id="path919" />
      <path
         d="m 129.14735,52.650942 q -0.76481,1.617467 -1.36942,3.038565 -0.59945,1.415929 -1.07487,2.65616 h 0.16537 q 0.42374,0.01033 0.90433,-0.03617 0.48059,-0.05168 1.0542,-0.134358 l -0.8475,1.767328 q -0.925,0.124023 -1.78283,0.191203 -0.85782,0.06201 -1.69498,0.05168 h -0.24288 q 1.33842,-3.911894 3.11091,-7.524065 z"
         style="fill:#000000;fill-opacity:1;stroke:#000000;stroke-width:0.264583;stroke-opacity:1"
         id="path921" />
      <path
         d="m 133.66384,52.650942 q -0.48059,1.00252 -0.9095,1.958531 -0.42374,0.950843 -0.80615,1.870681 -0.37724,0.919837 -0.7183,1.813837 -0.33589,0.893999 -0.63562,1.772495 l -1.819,0.129191 q 0.67696,-1.963698 1.44693,-3.834379 0.77515,-1.875848 1.66398,-3.700021 z"
         style="fill:#000000;fill-opacity:1;stroke:#000000;stroke-width:0.264583;stroke-opacity:1"
         id="path923" />
      <path
         d="m 137.62224,54.821345 q -0.16019,-0.563271 -0.87849,-0.563271 h -0.11886 q -0.91984,0.08268 -1.75699,1.271236 -0.78031,1.126543 -0.78031,2.103224 0,0.744139 0.62528,0.744139 0.79065,0 1.5968,-0.935341 0.79581,-0.893999 0.79581,-1.689814 0,-0.294555 -0.10852,-0.52193 z m 1.2144,-0.454751 q 0.11885,0.387572 0.11885,0.707965 0,0.511595 -0.30489,1.291907 -0.59944,1.410762 -1.85518,2.464958 -1.40042,1.183386 -2.79051,1.183386 -1.67432,0 -1.67432,-1.787999 0,-1.214392 0.78548,-2.604484 0.37724,-0.676959 0.85783,-1.224727 0.48059,-0.547769 1.07487,-0.987017 1.29707,-0.940508 2.51146,-0.940508 1.63297,0 1.86035,1.50378 z"
         style="fill:#000000;fill-opacity:1;stroke:#000000;stroke-width:0.264583;stroke-opacity:1"
         id="path925" />
      <path
         d="m 144.93444,56.562836 q -0.56844,1.359085 -1.77767,2.35127 -1.32808,1.100704 -2.66649,1.100704 -1.58646,0 -1.58646,-1.638137 0,-1.452104 1.36425,-4.459662 0.1912,-0.408243 0.57361,-1.255734 l 1.69498,-0.02067 q -0.27905,0.651121 -0.55811,1.281571 -0.27388,0.625283 -0.55293,1.276404 -0.75448,1.881016 -0.75448,2.521802 0,0.645953 0.51677,0.645953 0.63561,0 1.19889,-0.563271 0.44441,-0.444416 0.73897,-1.142046 l 1.75699,-4.051419 1.69498,-0.02584 z"
         style="fill:#000000;fill-opacity:1;stroke:#000000;stroke-width:0.264583;stroke-opacity:1"
         id="path927" />
      <path
         d="m 150.74802,54.299415 q -0.97668,0.03101 -1.01802,0.04134 -0.70797,0.10852 -0.70797,0.52193 0,0.04134 0.0207,0.227376 0.0207,0.180867 0.062,0.52193 0.0775,0.547769 0.10852,0.862994 0.031,0.315225 0.031,0.408242 0,0.444416 -0.18086,0.940508 -0.16537,0.428913 -0.34624,0.656289 -0.59944,0.785479 -1.87584,1.250566 -0.51677,0.180867 -1.07487,0.299722 -0.5581,0.113688 -1.16788,0.155029 l 0.54776,-1.896519 q 0.46509,-0.05168 0.82166,-0.124023 0.35656,-0.07235 0.60978,-0.160197 0.30489,-0.103352 0.41341,-0.258381 0.11368,-0.149861 0.11368,-0.470254 0,-0.139526 -0.005,-0.263549 -0.005,-0.129191 -0.0155,-0.248046 -0.0258,-0.201537 -0.12402,-0.728635 -0.0982,-0.444416 -0.0982,-0.738971 0,-0.775144 0.70796,-1.54512 0.60461,-0.666624 1.4211,-1.007688 0.62528,-0.263549 1.64847,-0.263549 0.24805,0 0.48576,0.0155 0.23771,0.0155 0.45992,0.03617 z"
         style="fill:#000000;fill-opacity:1;stroke:#000000;stroke-width:0.264583;stroke-opacity:1"
         id="path929" />
      <path
         d="m 159.54849,55.348443 q -0.17054,-0.73897 -1.12138,-0.73897 h -0.13953 q -1.16788,0.08785 -2.21174,1.607132 -0.98185,1.415929 -0.98185,2.65616 0,0.950843 0.80098,0.950843 0.99219,0 2.01021,-1.173051 0.99735,-1.121375 0.99735,-2.149733 0,-0.330728 -0.12919,-0.635618 z m 1.45727,-0.583942 q 0.16019,0.459919 0.16019,0.909503 0,0.656288 -0.3824,1.601964 -0.7028,1.715652 -2.3151,3.090241 -1.76216,1.477941 -3.48298,1.477941 -1.04386,0 -1.56579,-0.599445 -0.49609,-0.594277 -0.49609,-1.63297 0,-1.049028 0.47542,-2.232414 0.76481,-1.891352 2.37194,-3.33312 1.788,-1.627802 3.65868,-1.627802 2.03088,0 2.30993,1.860346 z"
         style="fill:url(#linearGradient885);fill-opacity:1;stroke:#000000;stroke-width:0.264583;stroke-opacity:1"
         id="path931" />
      <path
         d="m 166.16306,54.692155 q 0,-0.537434 -1.09037,-0.537434 h -0.13953 -0.0827 q -0.0362,0 -0.0879,0.01034 -0.0517,0.01034 -0.10335,0.01034 h -0.0879 -0.11369 l 0.28422,0.175699 -0.97151,2.087721 q 0.7338,-0.103352 1.35391,-0.454751 0.76998,-0.43408 0.97152,-0.987016 0.0672,-0.155029 0.0672,-0.30489 z m 2.08255,-0.78548 q 0,0.48059 -0.3514,1.080034 -0.98185,1.705317 -3.03339,2.532137 0.88883,0.640786 1.12137,2.180739 l -1.94819,0.527098 q -0.0103,-0.403075 -0.0568,-0.707965 -0.0413,-0.310058 -0.12402,-0.532266 -0.22738,-0.578774 -0.81649,-0.950843 -0.31005,0.640786 -0.53743,1.147213 -0.22221,0.506428 -0.3824,0.894 l -1.788,0.118855 q 0.44441,-0.997352 1.14204,-2.470125 0.69763,-1.477942 1.69498,-3.477813 -0.14986,0.02584 -0.27905,0.05168 -0.12402,0.02067 -0.22737,0.04134 l 0.38757,-1.565791 q 1.01285,-0.211873 2.24792,-0.211873 2.95071,0 2.95071,1.343583 z"
         style="fill:#000000;fill-opacity:1;stroke:#000000;stroke-width:0.264583;stroke-opacity:1"
         id="path933" />
      <path
         d="m 171.74926,52.650942 q -0.48059,1.00252 -0.9095,1.958531 -0.42375,0.950843 -0.80615,1.870681 -0.37724,0.919837 -0.7183,1.813837 -0.3359,0.893999 -0.63562,1.772495 l -1.819,0.129191 q 0.67696,-1.963698 1.44693,-3.834379 0.77515,-1.875848 1.66398,-3.700021 z"
         style="fill:#000000;fill-opacity:1;stroke:#000000;stroke-width:0.264583;stroke-opacity:1"
         id="path935" />
      <path
         d="m 175.749,55.136571 q -0.0517,-0.888832 -0.88883,-0.888832 -0.75964,0 -1.47277,0.759641 -0.57878,0.60978 -0.93017,1.462438 -0.31523,0.759641 -0.31523,1.21956 0,0.676959 0.65629,0.676959 0.98702,0 1.61747,-1.018022 0.27388,-0.465087 0.5426,-1.121375 l 1.75699,-0.361734 -1.63297,3.958402 -1.65881,0.118855 0.20154,-0.485756 q -0.97668,0.589109 -1.91719,0.589109 -1.38492,0 -1.38492,-1.52445 0,-1.302242 0.76997,-2.707836 0.39274,-0.713133 0.88367,-1.297075 0.49609,-0.583941 1.09553,-1.054196 1.27641,-0.992184 2.57348,-0.992184 1.63297,0 1.86035,1.514115 z"
         style="fill:#000000;fill-opacity:1;stroke:#000000;stroke-width:0.264583;stroke-opacity:1"
         id="path937" />
      <path
         d="m 180.89596,52.650942 q -0.48059,1.00252 -0.9095,1.958531 -0.42375,0.950843 -0.80615,1.870681 -0.37724,0.919837 -0.7183,1.813837 -0.3359,0.893999 -0.63562,1.772495 l -1.819,0.129191 q 0.67695,-1.963698 1.44693,-3.834379 0.77514,-1.875848 1.66398,-3.700021 z"
         style="fill:#000000;fill-opacity:1;stroke:#000000;stroke-width:0.264583;stroke-opacity:1"
         id="path939" />
      <path
         d="m 187.09711,53.136699 q -0.39791,0.821653 -0.75447,1.638138 -0.3514,0.811317 -0.67696,1.627802 -0.32556,0.816485 -0.62012,1.643305 -0.29455,0.821653 -0.56327,1.663976 l -1.71048,0.222208 -0.78548,-2.899038 q -0.26355,0.60978 -0.55811,1.353918 -0.29455,0.744138 -0.63561,1.669143 l -1.83451,0.129191 q 0.5581,-1.508947 1.16271,-3.007559 0.60978,-1.498612 1.28158,-3.023062 l -0.15503,-0.583941 2.0102,-1.049029 0.72864,3.653513 q 0.74931,-2.061884 1.6278,-3.632842 z"
         style="fill:#000000;fill-opacity:1;stroke:#000000;stroke-width:0.264583;stroke-opacity:1"
         id="path941" />
      <path
         d="m 189.45872,55.064224 q -0.26355,0.387572 -0.63045,0.981849 -0.36174,0.594277 -0.87333,1.395259 0.10852,-0.01034 0.23771,-0.0155 0.13436,-0.0052 0.28422,-0.0052 0.14469,0 0.26871,0.0052 0.1292,0.0052 0.23772,0.0155 0.0723,-0.397907 0.1912,-0.987017 0.11885,-0.589109 0.28422,-1.390091 z m 2.26342,-2.490796 q -0.89917,3.214264 -1.45727,7.291521 l -1.81901,0.118855 0.19637,-1.018022 q -0.3669,-0.06201 -0.79065,-0.06201 -0.18086,0 -0.3669,0.01034 -0.18603,0.01034 -0.36173,0.03101 l -0.63562,1.178219 -1.84484,0.113688 q 0.44958,-0.775144 0.96634,-1.627802 0.52194,-0.857826 1.11621,-1.80867 0.59945,-0.950843 1.27641,-1.999871 0.67696,-1.054196 1.44693,-2.216912 z"
         style="fill:#000000;fill-opacity:1;stroke:#000000;stroke-width:0.264583;stroke-opacity:1"
         id="path943" />
      <path
         d="m 195.53584,52.650942 q -0.76481,1.617467 -1.36942,3.038565 -0.59945,1.415929 -1.07487,2.65616 h 0.16536 q 0.42375,0.01033 0.90434,-0.03617 0.48059,-0.05168 1.05419,-0.134358 l -0.84749,1.767328 q -0.925,0.124023 -1.78283,0.191203 -0.85782,0.06201 -1.69498,0.05168 h -0.24288 q 1.33842,-3.911894 3.11091,-7.524065 z"
         style="fill:#000000;fill-opacity:1;stroke:#000000;stroke-width:0.264583;stroke-opacity:1"
         id="path945" />
      <path
         d="m 205.34917,54.650814 h -0.5271 q -0.59428,0 -1.01802,0.124023 -0.63562,0.196369 -0.63562,0.614947 0,0.01034 0.0258,0.242879 0.031,0.227375 0.0827,0.707965 0.0517,0.516762 0.0827,0.893999 0.031,0.372069 0.031,0.620115 0,1.338416 -0.6873,2.278924 -0.72863,0.971513 -2.30476,1.54512 -1.2609,0.485757 -2.78535,0.578774 l 0.67696,-2.315097 q 0.98185,-0.134358 1.77767,-0.372069 0.47542,-0.160196 0.62528,-0.527098 0.0879,-0.23771 0.0879,-0.697629 0,-0.191202 -0.031,-0.48059 -0.031,-0.294554 -0.0982,-0.687294 -0.0672,-0.387572 -0.0982,-0.676959 -0.031,-0.294555 -0.031,-0.496092 0,-0.496092 0.17053,-0.899167 0.31006,-0.764809 1.11104,-1.472774 0.78031,-0.692462 1.60196,-0.961178 0.75448,-0.253214 1.81901,-0.253214 0.26355,0 0.55293,0.0155 0.28939,0.0155 0.59945,0.05684 z"
         style="fill:url(#linearGradient885);fill-opacity:1;stroke:#000000;stroke-width:0.264583;stroke-opacity:1"
         id="path947" />
      <path
         d="m 212.70786,52.408064 q -0.93017,1.968865 -1.70015,3.803373 -0.7648,1.834507 -1.36942,3.622506 h -1.77766 l 0.9095,-2.454622 -1.65364,-0.08268 q -0.29455,0.640785 -0.5736,1.32808 -0.27906,0.687294 -0.54777,1.452103 h -1.77767 q 1.15238,-3.198761 3.17809,-7.42588 l 1.77767,-0.01033 -1.31258,2.919709 1.5968,0.06201 q 0.11885,-0.273884 0.47542,-1.059363 0.36173,-0.790647 0.99735,-2.1549 z"
         style="fill:#000000;fill-opacity:1;stroke:#000000;stroke-width:0.264583;stroke-opacity:1"
         id="path949" />
      <path
         d="m 215.46221,52.650942 q -0.48059,1.00252 -0.9095,1.958531 -0.42374,0.950843 -0.80615,1.870681 -0.37724,0.919837 -0.7183,1.813837 -0.33589,0.893999 -0.63562,1.772495 l -1.819,0.129191 q 0.67696,-1.963698 1.44693,-3.834379 0.77515,-1.875848 1.66398,-3.700021 z"
         style="fill:#000000;fill-opacity:1;stroke:#000000;stroke-width:0.264583;stroke-opacity:1"
         id="path951" />
      <path
         d="m 219.11572,54.692155 q 0,-0.537434 -1.09036,-0.537434 h -0.13953 -0.0827 q -0.0362,0 -0.0878,0.01034 -0.0517,0.01034 -0.10335,0.01034 h -0.0879 -0.11369 l 0.28422,0.175699 -0.97152,2.087721 q 0.73381,-0.103352 1.35392,-0.454751 0.76998,-0.43408 0.97152,-0.987016 0.0672,-0.155029 0.0672,-0.30489 z m 2.08256,-0.78548 q 0,0.48059 -0.3514,1.080034 -0.98185,1.705317 -3.0334,2.532137 0.88883,0.640786 1.12138,2.180739 l -1.9482,0.527098 q -0.0103,-0.403075 -0.0568,-0.707965 -0.0413,-0.310058 -0.12402,-0.532266 -0.22738,-0.578774 -0.81649,-0.950843 -0.31006,0.640786 -0.53743,1.147213 -0.22221,0.506428 -0.38241,0.894 l -1.788,0.118855 q 0.44442,-0.997352 1.14205,-2.470125 0.69763,-1.477942 1.69498,-3.477813 -0.14986,0.02584 -0.27905,0.05168 -0.12402,0.02067 -0.22738,0.04134 l 0.38758,-1.565791 q 1.01285,-0.211873 2.24791,-0.211873 2.95072,0 2.95072,1.343583 z"
         style="fill:#000000;fill-opacity:1;stroke:#000000;stroke-width:0.264583;stroke-opacity:1"
         id="path953" />
      <path
         d="m 226.87233,54.268409 -1.6433,0.02067 q -0.66663,1.472773 -1.24023,2.883535 -0.56844,1.405595 -1.11104,2.811189 l -1.81901,0.129191 q 0.5426,-1.514115 1.11621,-2.935212 0.57877,-1.426265 1.21439,-2.837027 l -1.58646,0.01033 0.76998,-1.669143 5.06944,-0.08785 z"
         style="fill:#000000;fill-opacity:1;stroke:#000000;stroke-width:0.264583;stroke-opacity:1"
         id="path955" />
      <path
         d="m 231.52836,54.299415 q -0.97669,0.03101 -1.01803,0.04134 -0.70796,0.10852 -0.70796,0.52193 0,0.04134 0.0207,0.227376 0.0207,0.180867 0.062,0.52193 0.0775,0.547769 0.10852,0.862994 0.031,0.315225 0.031,0.408242 0,0.444416 -0.18087,0.940508 -0.16536,0.428913 -0.34623,0.656289 -0.59945,0.785479 -1.87585,1.250566 -0.51676,0.180867 -1.07487,0.299722 -0.5581,0.113688 -1.16788,0.155029 l 0.54777,-1.896519 q 0.46509,-0.05168 0.82165,-0.124023 0.35657,-0.07235 0.60978,-0.160197 0.30489,-0.103352 0.41341,-0.258381 0.11369,-0.149861 0.11369,-0.470254 0,-0.139526 -0.005,-0.263549 -0.005,-0.129191 -0.0155,-0.248046 -0.0258,-0.201537 -0.12402,-0.728635 -0.0982,-0.444416 -0.0982,-0.738971 0,-0.775144 0.70797,-1.54512 0.60461,-0.666624 1.42109,-1.007688 0.62529,-0.263549 1.64848,-0.263549 0.24804,0 0.48575,0.0155 0.23771,0.0155 0.45992,0.03617 z"
         style="fill:#000000;fill-opacity:1;stroke:#000000;stroke-width:0.264583;stroke-opacity:1"
         id="path957" />
    </g>
  </g>
</svg>
