<?xml version="1.0" encoding="UTF-8" standalone="no"?>
<svg
   xmlns:dc="http://purl.org/dc/elements/1.1/"
   xmlns:cc="http://creativecommons.org/ns#"
   xmlns:rdf="http://www.w3.org/1999/02/22-rdf-syntax-ns#"
   xmlns:svg="http://www.w3.org/2000/svg"
   xmlns="http://www.w3.org/2000/svg"
   xmlns:sodipodi="http://sodipodi.sourceforge.net/DTD/sodipodi-0.dtd"
   xmlns:inkscape="http://www.inkscape.org/namespaces/inkscape"
   height="608.17023"
   width="361.3515"
   version="1.1"
   id="svg16"
   sodipodi:docname="tanktop.svg"
   inkscape:version="0.92.2 5c3e80d, 2017-08-06">
  <metadata
     id="metadata22">
    <rdf:RDF>
      <cc:Work
         rdf:about="">
        <dc:format>image/svg+xml</dc:format>
        <dc:type
           rdf:resource="http://purl.org/dc/dcmitype/StillImage" />
        <dc:title />
      </cc:Work>
    </rdf:RDF>
  </metadata>
  <defs
     id="defs20" />
  <sodipodi:namedview
     pagecolor="#ffffff"
     bordercolor="#666666"
     borderopacity="1"
     objecttolerance="10"
     gridtolerance="10"
     guidetolerance="10"
     inkscape:pageopacity="0"
     inkscape:pageshadow="2"
     inkscape:window-width="1920"
     inkscape:window-height="1027"
     id="namedview18"
     showgrid="false"
     inkscape:zoom="0.70928559"
     inkscape:cx="38.731208"
     inkscape:cy="212.73901"
     inkscape:window-x="0"
     inkscape:window-y="0"
     inkscape:window-maximized="1"
     inkscape:current-layer="svg16" />
  <path
     d="m 69.886478,64.366856 2.814363,-1.245363 C 75.858514,80.099153 94.046123,189.82487 46.030796,230.75363 v -9.03921 C 84.651798,176.239 72.762813,83.150587 69.885494,64.365872 Z m 95.789652,23.519257 c -0.56072,3.728219 -1.88183,16.322517 3.09569,30.425807 0.58275,1.6509 2.14275,2.75528 3.89348,2.75632 h 33.03557 c 1.33741,6e-5 2.59213,-0.64727 3.3672,-1.73721 0.77394,-1.09007 0.9726,-2.48726 0.53316,-3.74986 -2.82518,-8.12338 -5.8717,-21.661047 -3.79806,-26.33165 0.21247,-0.477094 0.31576,-0.973862 0.34134,-1.467678 24.16063,-4.859473 39.61356,-17.358351 48.66752,-27.736375 -5.61298,26.396576 -22.06338,72.973733 -68.23428,72.977673 h -0.01 c -0.62144,-8e-5 -1.24287,-0.008 -1.86411,-0.0236 -48.60143,-1.26405 -62.22762,-48.914429 -66.05323,-75.268707 8.62113,11.131537 23.63434,25.064649 47.02572,30.15529 z m 31.63476,1.260119 c -1.34078,7.115094 0.92271,17.233418 2.76321,23.662878 h -24.40262 c -3.2403,-11.06661 -2.24676,-20.748178 -1.84246,-23.577296 3.43311,0.403316 7.0118,0.635469 10.76659,0.635469 4.465,0 8.6831,-0.269534 12.71528,-0.721051 z M 328.81963,226.36239 c -0.30987,2.59884 -0.57583,5.20275 -0.79778,7.81057 C 279.49008,208.10691 298.0033,84.136253 301.8171,61.598728 l 5.83136,2.120855 C 292.64903,187.98437 319.63582,219.42043 328.81963,226.36337 Z M 193.80204,536.98697 c -69.70391,0 -132.056654,-4.26237 -147.771244,-5.42609 v -3.9348 c 7.518411,0.28921 54.238204,1.98216 114.113004,1.98216 10.84429,0 22.12339,-0.056 33.67398,-0.18494 69.60358,-0.78302 117.7586,-4.27024 130.18271,-5.25787 0.0167,2.49565 0.0344,4.59387 0.0462,6.20714 -35.62072,4.39123 -79.41205,6.6144 -130.2447,6.6144 z M 130.49413,138.21116 c 14.75155,13.66457 33.31985,20.57407 55.25043,20.57407 1.49424,0 3.00619,-0.0324 4.53092,-0.0974 84.22824,-3.54525 88.23878,-92.858224 88.37748,-105.511542 l 15.267,5.551013 C 290.3393,78.701307 267.94638,216.78804 327.349,243.02919 c -4.2899,64.28276 -3.73904,219.37273 -3.4036,272.85447 -11.2781,0.90796 -59.67609,4.48862 -130.21911,5.2805 -76.15402,0.84696 -140.250861,-1.51588 -147.695494,-1.80312 V 241.17198 C 107.28769,198.44698 82.562422,70.026076 80.456323,59.691336 l 14.731874,-6.516022 c 0.486932,8.477517 4.567314,56.562686 35.304953,85.034866 z M 109.23837,46.963255 c 1.76672,21.585305 12.36903,92.658535 75.25001,94.292465 0.70138,0.0186 1.39194,0.0276 2.08151,0.0276 h 0.01 c 61.914,-0.004 75.90417,-72.395325 78.62705,-92.997915 l 5.47428,1.991007 c -0.19673,0.501686 -0.30002,1.049606 -0.28429,1.621136 0.10231,3.881675 1.56704,95.086302 -80.46952,98.539092 -21.63055,0.90107 -39.71487,-5.23132 -53.79357,-18.25746 -30.5509,-28.26861 -32.73372,-80.01806 -32.75241,-80.537453 -0.0287,-0.651297 -0.2082,-1.287052 -0.52432,-1.857223 z M 41.565786,539.50326 c 0.70728,0.057 71.573934,5.74186 152.236254,5.74186 h 0.007 c 52.92103,0 98.31972,-2.40122 134.92808,-7.1387 2.07265,-0.26776 3.61855,-2.04174 3.60033,-4.13154 -0.0236,-2.58123 -2.20938,-258.59378 5.00507,-309.08804 0.26498,-1.86092 -0.7599,-3.66608 -2.49368,-4.39221 -0.36397,-0.15346 -36.07814,-19.21656 -18.60371,-159.019848 0.23987,-1.911692 -0.87472,-3.735046 -2.6855,-4.3932 l -50.46977,-18.351887 -0.19969,-0.04722 c -0.19675,-0.06197 -0.39348,-0.108207 -0.59219,-0.140669 l -0.27741,-0.03246 c -0.21928,-0.0183 -0.43968,-0.01899 -0.65907,-0.002 l -0.22724,0.01967 c -0.2591,0.03502 -0.51434,0.09434 -0.76237,0.177066 l -0.10328,0.02754 c -0.28872,0.105187 -0.56486,0.242098 -0.82336,0.408235 l -0.0197,0.0098 -0.0846,0.06984 c -0.20855,0.14362 -0.40234,0.302979 -0.58235,0.48398 l -0.18985,0.216414 c -0.12789,0.148538 -0.2479,0.304946 -0.35709,0.474143 l -0.17117,0.301012 -0.13279,0.230185 c -0.18095,0.406269 -18.80828,40.683821 -73.31208,40.683821 -49.70828,0 -67.03121,-40.643488 -67.75423,-42.397423 l -0.13871,-0.260683 -0.15248,-0.285273 c -0.12034,-0.201314 -0.25827,-0.391581 -0.41217,-0.568578 l -0.14165,-0.173131 c -0.21706,-0.228277 -0.45928,-0.431224 -0.72204,-0.604974 l -0.0216,-0.01672 -0.10427,-0.04919 c -0.22559,-0.136292 -0.46376,-0.250598 -0.71121,-0.341344 l -0.27249,-0.08558 c -0.2159,-0.06296 -0.43669,-0.107685 -0.66006,-0.133783 l -0.26265,-0.02951 c -0.27235,-0.01525 -0.54557,-0.003 -0.81548,0.0364 l -0.1151,0.0098 c -0.28625,0.05115 -0.57054,0.127881 -0.84991,0.24199 l -0.063,0.03246 -0.0502,0.01574 -47.719231,21.105261 c -1.734349,0.76822 -2.722298,2.619167 -2.395307,4.487635 0.188871,1.082068 18.454192,108.690866 -22.4244,154.845026 -0.668266,0.75541 -1.03736,1.72906 -1.037802,2.73764 v 315.21254 c -4.04e-4,2.15077 1.65043,3.94156 3.794126,4.11579"
     id="path2"
     inkscape:connector-curvature="0"
     style="fill:#f4f4f4;stroke-width:0.9836989"
     sodipodi:nodetypes="ccccccccccccccccccccccccscccccccsccscccscsccccccccccccccsccccccccccssccccccccccccccccccccccsccccccccccccccccccccccc" />
  <path
     d="m 65.951682,66.661826 2.814362,-1.245363 C 71.923718,82.395106 90.111327,192.11984 42.096,233.04958 v -9.04019 C 80.717003,178.53397 68.828018,85.445556 65.950699,66.661826 Z m 95.789638,23.52024 c -0.5607,3.726252 -1.88181,16.321534 3.09571,30.425804 0.58307,1.65052 2.14299,2.75445 3.89348,2.75534 h 33.03556 c 1.33724,2.9e-4 2.59191,-0.64666 3.3672,-1.73623 0.77394,-1.09007 0.9726,-2.48726 0.53316,-3.74985 -2.82518,-8.12437 -5.8717,-21.663022 -3.79806,-26.331656 0.21248,-0.478079 0.31577,-0.973863 0.34135,-1.467679 24.16062,-4.859473 39.61355,-17.359335 48.66752,-27.736375 -5.61299,26.395593 -22.06339,72.97275 -68.23428,72.97669 h -0.01 c -0.62144,-7e-5 -1.24286,-0.008 -1.86411,-0.0236 -48.60144,-1.26407 -62.22764,-48.91444 -66.05325,-75.268717 8.62114,11.131537 23.63435,25.064648 47.02572,30.15529 z m 31.63478,1.259135 c -1.34078,7.116078 0.92271,17.234409 2.76321,23.662879 h -24.40262 c -3.2403,-11.06661 -2.24677,-20.748179 -1.84247,-23.577297 3.43311,0.403317 7.01181,0.636454 10.76659,0.636454 4.46501,0 8.68311,-0.270518 12.71529,-0.722036 z M 324.88484,228.65834 c -0.30987,2.59885 -0.57584,5.20275 -0.79778,7.81058 C 275.55529,210.40187 294.0685,86.431223 297.8823,63.893697 l 5.83137,2.120855 C 288.71423,190.27933 315.70103,221.71638 324.88484,228.65933 Z m -135.0176,310.62261 c -69.70392,0 -132.05665,-4.26236 -147.77124,-5.4251 v -3.93676 c 7.518411,0.29019 54.238207,1.98314 114.11301,1.98314 10.84429,0 22.12338,-0.0561 33.67398,-0.18494 69.60358,-0.78302 117.75859,-4.26925 130.18271,-5.25788 0.0167,2.49566 0.0344,4.59388 0.0462,6.20715 -35.62072,4.39221 -79.41205,6.61537 -130.24469,6.61537 z m -63.3079,-398.77481 c 14.75155,13.66357 33.31984,20.57307 55.25043,20.57307 1.49424,0 3.00618,-0.0324 4.53092,-0.0964 84.22823,-3.54524 88.23877,-92.859208 88.37747,-105.511543 l 15.26701,5.550029 c -3.58066,19.97499 -25.97359,158.060744 33.42904,184.301894 -4.28991,64.28275 -3.73904,219.37272 -3.4036,272.85447 -11.27811,0.90795 -59.67609,4.48861 -130.21911,5.2805 -76.15403,0.84794 -140.250867,-1.5149 -147.6955,-1.80312 V 243.46891 C 103.3529,200.74294 78.627626,72.32203 76.521527,61.988272 l 14.731875,-6.516021 c 0.486931,8.476534 4.567313,56.562689 35.304948,85.034869 z M 105.30357,49.256257 c 1.76673,21.586289 12.36903,92.659523 75.25001,94.293443 0.70138,0.0197 1.39193,0.0275 2.08151,0.0275 h 0.01 c 61.91401,-0.004 75.90417,-72.394336 78.62705,-92.996925 l 5.47429,1.991006 c -0.19675,0.501687 -0.30003,1.048623 -0.28429,1.621136 0.1023,3.880692 1.56703,95.085323 -80.46953,98.539083 -21.63054,0.90107 -39.71486,-5.23229 -53.79356,-18.25942 C 101.64815,106.20455 99.46532,54.45609 99.44663,53.936697 99.417906,53.2854 99.23843,52.649645 98.922318,52.079473 Z M 37.630991,541.79725 c 0.707279,0.058 71.573929,5.74185 152.236249,5.74185 h 0.007 c 52.92103,0 98.31973,-2.40022 134.92808,-7.1387 2.07266,-0.26775 3.61856,-2.04174 3.60034,-4.13154 -0.0236,-2.58122 -2.20939,-258.59378 5.00506,-309.08803 0.26499,-1.86092 -0.75989,-3.66609 -2.49367,-4.39221 -0.36397,-0.15346 -36.07815,-19.21558 -18.60373,-159.018869 0.24037,-1.912036 -0.8743,-3.735951 -2.68549,-4.394183 l -50.46948,-18.351887 -0.1997,-0.04722 c -0.19674,-0.06197 -0.39348,-0.108207 -0.59219,-0.140669 l -0.2774,-0.03246 c -0.21932,-0.018 -0.43971,-0.0183 -0.65908,-9.83e-4 l -0.22723,0.01771 c -0.25911,0.03502 -0.51435,0.09434 -0.76237,0.177066 l -0.10328,0.02951 c -0.28868,0.104872 -0.56482,0.241458 -0.82336,0.407251 l -0.0197,0.0098 -0.0846,0.07083 c -0.20854,0.142636 -0.40233,0.302979 -0.58235,0.48398 l -0.18985,0.214446 c -0.12788,0.149523 -0.24789,0.305931 -0.35709,0.475127 l -0.17116,0.301995 -0.1328,0.229202 c -0.18123,0.406266 -18.80856,40.684802 -73.31236,40.684802 -49.70828,0 -67.03121,-40.644472 -67.75423,-42.397424 l -0.13872,-0.261664 -0.15247,-0.285273 c -0.12035,-0.201314 -0.25827,-0.391581 -0.41217,-0.568578 l -0.14166,-0.173131 c -0.21711,-0.227933 -0.45933,-0.430555 -0.72203,-0.603991 l -0.0216,-0.01771 -0.10427,-0.04919 c -0.2256,-0.136292 -0.46377,-0.250598 -0.71122,-0.341344 l -0.27248,-0.08558 c -0.21591,-0.06296 -0.4367,-0.107685 -0.66007,-0.133783 l -0.26264,-0.02853 c -0.27233,-0.01564 -0.54554,-0.0039 -0.81549,0.03541 l -0.11509,0.0098 c -0.28626,0.05214 -0.57055,0.127881 -0.84992,0.24199 l -0.063,0.03246 -0.0502,0.01574 -47.719227,21.105259 c -1.734753,0.768308 -2.72279,2.619816 -2.395307,4.488618 0.188871,1.080102 18.454192,108.690857 -22.4244,154.844047 -0.668266,0.75541 -1.037359,1.72905 -1.037802,2.73763 v 315.21254 c -4.03e-4,2.15077 1.65043,3.94157 3.794127,4.1158"
     id="path8"
     inkscape:connector-curvature="0"
     style="fill:#231f20;stroke-width:0.9836989"
     sodipodi:nodetypes="cccccccccccccccccccccccccsccccccccccsccccccsccccccccccccccsccccccccccssccccccccccccccccccccccsccccccccccccccccccccccc" />
  <path
     style="fill:#ffffff;stroke-width:1.38688695"
     d="M 59.246692,520.30259 45.031101,519.85312 V 381.55564 243.25816 l 9.634653,-10.02432 C 80.164046,206.70428 90.717197,159.78295 85.108009,97.881763 84.26667,88.597042 82.808101,76.542825 81.86675,71.094628 l -1.711548,-9.905807 4.675197,-2.229447 c 2.571349,-1.226199 4.894266,-2.229445 5.162028,-2.229445 0.267763,0 1.210619,4.949905 2.09523,10.99979 6.28982,43.016341 27.022673,75.205651 56.285793,87.387911 25.58479,10.65099 58.54167,7.87351 83.33923,-7.0235 9.20672,-5.53089 22.89802,-19.88259 29.57184,-30.99825 6.26252,-10.4306 13.23885,-31.732108 15.34153,-46.843809 0.92871,-6.674387 2.15506,-12.135254 2.72523,-12.135254 1.59737,0 9.77191,2.978817 9.77191,3.560901 0,0.28368 -0.92482,6.931694 -2.05518,14.773358 -11.95921,82.965414 -1.09402,145.753884 28.5453,164.959494 l 7.05374,4.57067 -0.7972,11.81792 c -0.43848,6.49985 -1.19863,67.44352 -1.68923,135.43035 l -0.89201,123.61245 -14.73599,0.91036 c -43.09845,2.66259 -83.34318,3.52138 -153.42467,3.27395 -42.71611,-0.15081 -84.062682,-0.47646 -91.881258,-0.72368 z"
     id="path24"
     inkscape:connector-curvature="0" />
  <path
     style="fill:#ffffff;stroke-width:1.38688695"
     d="m 50.231927,520.32673 -5.200826,-0.54401 V 381.49004 243.19736 l 7.662946,-8.10344 C 71.95979,214.72069 82.13648,187.12499 85.192361,146.96961 86.712952,126.98833 85.410339,98.902371 81.869966,75.335266 80.74315,67.834356 79.950691,61.595127 80.108958,61.470296 c 1.426266,-1.124879 9.646772,-4.842819 9.940642,-4.495907 0.209194,0.246937 1.369368,6.396973 2.578177,13.666755 7.512523,45.180396 29.930603,76.243446 62.660833,86.824416 9.08452,2.93683 13.85963,3.59979 26.35085,3.65849 26.02151,0.12229 46.4039,-7.45826 62.54428,-23.26124 16.2404,-15.90091 25.35202,-34.63791 31.18438,-64.127018 1.62359,-8.209047 3.15651,-15.14376 3.4065,-15.41048 0.24999,-0.26672 2.73754,0.26852 5.5279,1.189419 4.69936,1.55093 5.01516,1.99565 4.28374,6.032495 -5.98687,33.04283 -7.62507,92.114624 -3.21702,116.002524 5.69691,30.87237 15.00938,49.19783 30.30505,59.63553 l 7.07299,4.82659 -0.857,13.88293 c -0.47136,7.63562 -1.26318,68.60776 -1.75961,135.49364 l -0.9026,121.61072 -8.46472,0.81059 c -23.61033,2.26097 -85.4744,3.48608 -165.8764,3.28487 -49.199801,-0.12312 -91.794564,-0.46867 -94.655023,-0.76789 z"
     id="path26"
     inkscape:connector-curvature="0" />
  <path
     style="fill:#ffffff;stroke-width:1.38688695"
     d="M 60.63358,521.77365 42.257326,521.25653 V 382.73138 244.20624 l 4.507387,-3.7453 C 72.723416,218.89115 85.723548,175.80212 83.367756,119.13984 82.548827,99.442687 79.542781,71.100118 77.635124,65.089629 c -0.60111,-1.893926 0.67706,-3.156631 5.481111,-5.4148 3.445759,-1.61969 6.545631,-2.9449 6.888597,-2.9449 0.342967,0 1.028487,2.964466 1.523366,6.587714 6.994945,51.212827 31.882022,85.759297 68.725412,95.399777 13.33915,3.49033 39.98288,2.20888 53.81093,-2.58808 34.13732,-11.84225 56.13292,-44.44302 60.60478,-89.825345 0.51888,-5.26574 1.06364,-9.574066 1.21059,-9.574066 0.14696,0 3.25355,1.017558 6.90356,2.261239 l 6.63638,2.261239 -0.85441,5.343216 c -5.34236,33.409287 -7.21797,88.022137 -3.78125,110.100027 4.28029,27.49709 11.72622,45.62866 23.65076,57.59201 4.2529,4.26675 9.12257,8.6565 10.82149,9.75502 l 3.08892,1.99731 -1.31365,68.6509 c -0.72253,37.75799 -1.33243,98.7354 -1.35534,135.50536 l -0.0416,66.85444 -4.50739,0.73464 c -18.91704,3.08316 -190.88773,5.77821 -254.493736,3.98832 z"
     id="path28"
     inkscape:connector-curvature="0" />
  <path
     style="fill:#ffffff;stroke-width:1.38688695"
     d="m 165.37953,132.42143 c -24.2131,-6.95064 -40.89338,-29.18374 -48.88231,-65.155052 -0.86146,-3.878873 -0.60916,-3.765442 6.90999,3.106649 8.96349,8.192126 22.13566,15.952871 31.18796,18.37523 l 6.24098,1.670074 0.23937,10.546819 c 0.13165,5.80074 1.06972,13.04321 2.08459,16.09435 l 1.84522,5.54756 19.78773,0.38498 c 23.26118,0.45255 22.65125,0.90381 19.10894,-14.13809 -1.30767,-5.55283 -2.17095,-11.873638 -1.91841,-14.046236 0.40303,-3.467214 1.39179,-4.230367 8.08705,-6.241864 11.28621,-3.390791 20.41548,-8.076483 30.27425,-15.538567 l 8.79363,-6.655874 -0.96397,4.540744 c -1.87352,8.825205 -9.00628,25.451212 -14.54909,33.913007 -7.64467,11.67057 -19.0012,21.74838 -28.76027,25.52192 -9.8942,3.82581 -29.75051,4.86894 -39.48566,2.07435 z"
     id="path30"
     inkscape:connector-curvature="0" />
  <path
     style="fill:#ffffff;stroke-width:1.38688695"
     d="m 167.07715,150.85025 c -10.10552,-1.65683 -25.483,-9.13409 -33.56415,-16.3205 -16.39487,-14.57964 -30.27471,-45.964914 -32.60152,-73.718985 -0.6346,-7.569622 -0.38435,-9.339513 1.41842,-10.031299 1.74029,-0.667814 2.36518,0.495558 3.04859,5.675736 3.46591,26.270978 13.83531,51.421348 27.22593,66.034838 16.62978,18.1485 42.86654,25.77795 67.01608,19.48778 29.53468,-7.6928 49.76455,-33.92469 59.52895,-77.190688 2.38409,-10.563864 3.439,-13.188658 4.93018,-12.26707 1.47486,0.911515 1.70882,3.748385 1.05119,12.746101 -3.37467,46.171757 -28.22553,78.451157 -65.51125,85.094227 -12.36425,2.20288 -21.27589,2.33704 -32.54242,0.48986 z"
     id="path32"
     inkscape:connector-curvature="0" />
  <path
     style="fill:#ffffff;stroke-width:1.38688695"
     d="m 316.0729,229.30192 c -19.78059,-19.30829 -27.73017,-62.1396 -22.68464,-122.22181 2.42133,-28.833046 4.49574,-41.335417 6.85839,-41.335417 2.33179,0 2.33397,1.646506 0.0398,30.255677 -4.86686,60.69362 2.38075,108.3127 19.44284,127.74534 2.99589,3.41213 4.12869,5.9751 3.81651,8.63491 l -0.44394,3.78249 z"
     id="path34"
     inkscape:connector-curvature="0" />
  <path
     style="fill:#ffffff;stroke-width:1.38688695"
     d="m 42.257326,228.44971 c 0,-1.85217 1.610788,-5.51715 3.579514,-8.1444 10.398111,-13.87618 18.295255,-36.16887 22.196791,-62.65891 1.873426,-12.71989 2.137274,-21.55024 1.41994,-47.52132 -0.484579,-17.544126 -1.172608,-34.706848 -1.528953,-38.139397 -0.506319,-4.877248 -0.382462,-5.427598 0.566857,-2.518594 2.903239,8.896514 4.954025,35.475511 4.849241,62.848181 -0.125844,32.87505 -2.386335,47.96506 -10.23333,68.313 -4.071442,10.55759 -13.107926,24.84004 -18.528973,29.28561 -2.055517,1.68565 -2.321087,1.51813 -2.321087,-1.46417 z"
     id="path36"
     inkscape:connector-curvature="0" />
  <path
     style="fill:#ffffff;stroke-width:1.38688695"
     d="m 141.41974,537.87611 c -23.64642,-0.58545 -53.603175,-1.73176 -66.57057,-2.54736 -12.967394,-0.81558 -25.605397,-1.48892 -28.084457,-1.49632 -2.479059,-0.007 -4.507387,-0.50561 -4.507387,-1.10719 0,-0.60158 45.091165,-1.06966 100.202584,-1.04017 91.25585,0.0489 143.36357,-1.26704 169.89364,-4.29034 6.75029,-0.76924 7.28116,-0.61585 7.28116,2.10384 0,1.61346 -0.46807,2.94096 -1.04017,2.95 -0.57208,0.009 -10.73066,0.91299 -22.57459,2.00879 -19.9159,1.84262 -42.55447,2.82934 -92.1903,4.01816 -10.67902,0.25577 -38.76349,-0.0139 -62.40991,-0.59941 z"
     id="path38"
     inkscape:connector-curvature="0" />
  <path
     style="fill:#ffffff;stroke-width:1.38688695"
     d="m 171.93259,113.59445 c -0.47069,-0.76158 -1.22214,-5.75438 -1.66988,-11.09509 l -0.81409,-9.710373 h 11.11758 11.11756 l 0.94569,7.128895 c 0.52013,3.920898 1.30263,8.913688 1.73891,11.095088 l 0.79325,3.96621 H 183.975 c -6.15263,0 -11.57171,-0.62313 -12.04241,-1.38473 z"
     id="path40"
     inkscape:connector-curvature="0" />
</svg>
