<?xml version="1.0" encoding="UTF-8" standalone="no"?>
<svg
   xmlns:dc="http://purl.org/dc/elements/1.1/"
   xmlns:cc="http://creativecommons.org/ns#"
   xmlns:rdf="http://www.w3.org/1999/02/22-rdf-syntax-ns#"
   xmlns:svg="http://www.w3.org/2000/svg"
   xmlns="http://www.w3.org/2000/svg"
   xmlns:sodipodi="http://sodipodi.sourceforge.net/DTD/sodipodi-0.dtd"
   xmlns:inkscape="http://www.inkscape.org/namespaces/inkscape"
   height="519.34845"
   width="308.57718"
   version="1.1"
   id="svg16"
   sodipodi:docname="tanktop.svg"
   inkscape:version="0.92.2 5c3e80d, 2017-08-06">
  <metadata
     id="metadata22">
    <rdf:RDF>
      <cc:Work
         rdf:about="">
        <dc:format>image/svg+xml</dc:format>
        <dc:type
           rdf:resource="http://purl.org/dc/dcmitype/StillImage" />
        <dc:title />
      </cc:Work>
    </rdf:RDF>
  </metadata>
  <defs
     id="defs20" />
  <sodipodi:namedview
     pagecolor="#ffffff"
     bordercolor="#666666"
     borderopacity="1"
     objecttolerance="10"
     gridtolerance="10"
     guidetolerance="10"
     inkscape:pageopacity="0"
     inkscape:pageshadow="2"
     inkscape:window-width="1920"
     inkscape:window-height="1027"
     id="namedview18"
     showgrid="false"
     inkscape:zoom="0.70928559"
     inkscape:cx="35.911469"
     inkscape:cy="123.91724"
     inkscape:window-x="0"
     inkscape:window-y="0"
     inkscape:window-maximized="1"
     inkscape:current-layer="svg16" />
  <path
     d="m 36.647,28.169446 2.861,-1.266 c 3.21,17.259 21.699,128.803004 -27.112,170.410004 v -9.189 C 51.657,141.89545 39.571,47.264446 36.646,28.168446 Z m 97.377,23.909 c -0.57,3.79 -1.913,16.593 3.147,30.93 0.5924,1.67826 2.17825,2.80094 3.958,2.802 h 33.583 c 1.35958,6e-5 2.63509,-0.658 3.423,-1.766 0.78677,-1.10814 0.98872,-2.52848 0.542,-3.812 -2.872,-8.258 -5.969,-22.02 -3.861,-26.768 0.216,-0.485 0.321,-0.99 0.347,-1.492 24.561,-4.94 40.27,-17.646 49.474,-28.196 -5.706,26.834 -22.429,74.183 -69.365,74.187 h -0.01 c -0.63174,-8e-5 -1.26346,-0.008 -1.895,-0.024 -49.407,-1.285 -63.259,-49.725 -67.148,-76.516 8.764,11.316 24.026,25.48 47.805,30.655 z m 32.159,1.281 c -1.363,7.233 0.938,17.519 2.809,24.055 h -24.807 c -3.294,-11.25 -2.284,-21.092 -1.873,-23.968 3.49,0.41 7.128,0.646 10.945,0.646 4.539,0 8.827,-0.274 12.926,-0.733 z M 299.871,192.84945 c -0.31501,2.64191 -0.58538,5.28896 -0.811,7.94 -49.336,-26.498 -30.516,-152.523004 -26.639,-175.434004 l 5.928,2.156 C 263.101,153.83545 290.535,185.79245 299.871,192.85045 Z m -137.255,315.772 c -70.859,0 -134.245,-4.333 -150.22,-5.516 v -4 c 7.643,0.294 55.137,2.015 116.004,2.015 11.024,0 22.49,-0.057 34.232,-0.188 70.757,-0.796 119.71,-4.341 132.34,-5.345 0.017,2.537 0.035,4.67 0.047,6.31 -36.211,4.464 -80.728,6.724 -132.403,6.724 z m -64.357,-405.384 c 14.996,13.891 33.872,20.915 56.166,20.915 1.519,0 3.056,-0.033 4.606,-0.099 85.624,-3.604 89.701,-94.397004 89.842,-107.260004 l 15.52,5.643 c -3.64,20.305 -26.404,160.680004 33.983,187.356004 -4.361,65.348 -3.801,223.008 -3.46,277.376 -11.465,0.923 -60.665,4.563 -132.377,5.368 -77.416,0.861 -142.575,-1.541 -150.143,-1.833 v -282.799 C 74.668,164.47145 49.533,33.922446 47.392,23.416446 l 14.976,-6.624 c 0.495,8.618 4.643,57.5 35.89,86.444004 z M 76.651,10.477446 c 1.796,21.943 12.574,94.194004 76.497,95.855004 0.713,0.019 1.415,0.028 2.116,0.028 h 0.01 c 62.94,-0.004 77.162,-73.595004 79.93,-94.539004 l 5.565,2.024 c -0.2,0.51 -0.305,1.067 -0.289,1.648 0.104,3.946 1.593,96.662004 -81.803,100.172004 -21.989,0.916 -40.373,-5.318 -54.685,-18.560004 -31.057,-28.737 -33.276,-81.344 -33.295,-81.872 -0.0292,-0.66209 -0.21165,-1.30838 -0.533,-1.888 z M 7.8570001,511.17945 c 0.719,0.058 72.7599999,5.837 154.7589999,5.837 h 0.007 c 53.798,0 99.949,-2.441 137.164,-7.257 2.107,-0.27219 3.67852,-2.07557 3.66,-4.2 -0.024,-2.624 -2.246,-262.879 5.088,-314.21 0.26938,-1.89176 -0.77248,-3.72684 -2.535,-4.465 -0.37,-0.156 -36.676,-19.535 -18.912,-161.655004 0.24385,-1.94337 -0.88921,-3.79694 -2.73,-4.466 l -51.306,-18.6560001 -0.203,-0.048 c -0.2,-0.063 -0.4,-0.11 -0.602,-0.143 l -0.282,-0.033 c -0.22292,-0.0186 -0.44697,-0.0193 -0.67,-0.002 l -0.231,0.02 c -0.2634,0.0356 -0.52287,0.0959 -0.775,0.18 l -0.105,0.028 c -0.2935,0.10693 -0.57422,0.24611 -0.837,0.415 l -0.02,0.01 -0.086,0.071 c -0.212,0.146 -0.409,0.308 -0.592,0.492 l -0.193,0.22 c -0.13,0.151 -0.252,0.31 -0.363,0.482 l -0.174,0.306 -0.135,0.234 c -0.184,0.413 -19.12,41.3580001 -74.527,41.3580001 -50.532,0 -68.142,-41.3170001 -68.877,-43.1000001 l -0.141,-0.265 -0.155,-0.29 c -0.12234,-0.20465 -0.26255,-0.39807 -0.419,-0.578 l -0.144,-0.176 C 83.30034,1.0563859 83.05411,0.85007591 82.787,0.67344591 l -0.022,-0.017 -0.106,-0.05 c -0.22933,-0.13855 -0.47145,-0.25475 -0.723,-0.347 l -0.277,-0.087 c -0.21948,-0.064 -0.44393,-0.10947 -0.671,-0.136 l -0.267,-0.03 c -0.27687,-0.0155 -0.55461,-0.003 -0.829,0.037 l -0.117,0.01 c -0.291,0.052 -0.58,0.13 -0.864,0.246 l -0.064,0.033 -0.051,0.016 -48.51,21.45500009 c -1.76309,0.78095 -2.76741,2.66257 -2.435,4.562 0.192,1.1 18.76,110.492004 -22.7959999,157.411004 -0.67934,0.76793 -1.05455,1.75771 -1.055,2.783 v 320.436 c -4.1e-4,2.18641 1.67778,4.00688 3.857,4.184"
     id="path2"
     inkscape:connector-curvature="0"
     style="fill:#f4f4f4"
     sodipodi:nodetypes="ccccccccccccccccccccccccscccccccsccscccscsccccccccccccccsccccccccccssccccccccccccccccccccccsccccccccccccccccccccccc" />
  <path
     d="m 32.647,30.502446 2.861,-1.266 c 3.21,17.26 21.699,128.803004 -27.1119999,170.411004 v -9.19 C 47.657,144.22845 35.571,49.597446 32.646,30.502446 Z m 97.377,23.91 c -0.57,3.788 -1.913,16.592 3.147,30.93 0.59274,1.67787 2.17851,2.80009 3.958,2.801 h 33.583 c 1.3594,2.9e-4 2.63487,-0.65738 3.423,-1.765 0.78677,-1.10814 0.98872,-2.52848 0.542,-3.812 -2.872,-8.259 -5.969,-22.022 -3.861,-26.768 0.216,-0.486 0.321,-0.99 0.347,-1.492 24.561,-4.94 40.27,-17.647 49.474,-28.196 -5.706,26.833 -22.429,74.182004 -69.365,74.186004 h -0.01 c -0.63174,-8e-5 -1.26346,-0.008 -1.895,-0.024 C 99.96,98.987446 86.108,50.547446 82.219,23.756446 c 8.764,11.316 24.026,25.48 47.805,30.655 z m 32.159,1.28 c -1.363,7.234 0.938,17.52 2.809,24.055 h -24.807 c -3.294,-11.25 -2.284,-21.092 -1.873,-23.968 3.49,0.41 7.128,0.647 10.945,0.647 4.539,0 8.827,-0.275 12.926,-0.734 z M 295.871,195.18345 c -0.31501,2.64191 -0.58538,5.28896 -0.811,7.94 -49.336,-26.499 -30.516,-152.524004 -26.639,-175.435004 l 5.928,2.156 C 259.101,156.16845 286.535,188.12645 295.871,195.18445 Z m -137.255,315.77 c -70.859,0 -134.245,-4.333 -150.2199999,-5.515 v -4.002 c 7.6429999,0.295 55.1369999,2.016 116.0039999,2.016 11.024,0 22.49,-0.057 34.232,-0.188 70.757,-0.796 119.71,-4.34 132.34,-5.345 0.017,2.537 0.035,4.67 0.047,6.31 -36.211,4.465 -80.728,6.725 -132.403,6.725 z m -64.357,-405.383 c 14.996,13.89 33.872,20.914 56.166,20.914 1.519,0 3.056,-0.033 4.606,-0.098 85.624,-3.604 89.701,-94.398004 89.842,-107.260004 l 15.52,5.642 c -3.64,20.306 -26.404,160.680004 33.983,187.356004 -4.361,65.348 -3.801,223.008 -3.46,277.376 -11.465,0.923 -60.665,4.563 -132.377,5.368 -77.416,0.862 -142.575,-1.54 -150.1429999,-1.833 v -282.796 C 70.668,166.80545 45.533,36.256446 43.392,25.751446 l 14.976,-6.624 c 0.495,8.617 4.643,57.5 35.89,86.444004 z M 72.651,12.808446 c 1.796,21.944 12.574,94.195004 76.497,95.856004 0.713,0.02 1.415,0.028 2.116,0.028 h 0.01 c 62.94,-0.004 77.162,-73.594004 79.93,-94.538004 l 5.565,2.024 c -0.2,0.51 -0.305,1.066 -0.289,1.648 0.104,3.945 1.593,96.661004 -81.803,100.172004 -21.989,0.916 -40.373,-5.319 -54.685,-18.562004 -31.057,-28.736 -33.276,-81.342 -33.295,-81.87 -0.0292,-0.66209 -0.21165,-1.30838 -0.533,-1.888 z M 3.8570001,513.51145 c 0.719,0.059 72.7599999,5.837 154.7589999,5.837 h 0.007 c 53.798,0 99.949,-2.44 137.164,-7.257 2.107,-0.27219 3.67852,-2.07557 3.66,-4.2 -0.024,-2.624 -2.246,-262.879 5.088,-314.21 0.26938,-1.89176 -0.77248,-3.72684 -2.535,-4.465 -0.37,-0.156 -36.676,-19.534 -18.912,-161.654004 0.24435,-1.94372 -0.8888,-3.79786 -2.73,-4.467 l -51.306,-18.6560001 -0.203,-0.048 c -0.2,-0.063 -0.4,-0.11 -0.602,-0.143 l -0.282,-0.033 c -0.22295,-0.0183 -0.447,-0.0186 -0.67,-10e-4 l -0.231,0.018 c -0.2634,0.0356 -0.52287,0.0959 -0.775,0.18 l -0.105,0.03 c -0.29346,0.10661 -0.57417,0.24546 -0.837,0.414 l -0.02,0.01 -0.086,0.072 c -0.212,0.145 -0.409,0.308 -0.592,0.492 l -0.193,0.218 c -0.13,0.152 -0.252,0.311 -0.363,0.483 l -0.174,0.307 -0.135,0.233 c -0.184,0.413 -19.12,41.3590001 -74.527,41.3590001 -50.532,0 -68.142,-41.3180001 -68.877,-43.1000001 l -0.141,-0.266 -0.155,-0.29 c -0.12234,-0.20465 -0.26255,-0.39807 -0.419,-0.578 l -0.144,-0.176 c -0.22071,-0.23171 -0.46695,-0.43769 -0.734,-0.614 l -0.022,-0.018 -0.106,-0.05 c -0.22933,-0.13855 -0.47145,-0.25475 -0.723,-0.347 l -0.277,-0.087 c -0.21948,-0.064 -0.44393,-0.10947 -0.671,-0.136 l -0.267,-0.029 c -0.27684,-0.0159 -0.55458,-0.004 -0.829,0.036 l -0.117,0.01 c -0.291,0.053 -0.58,0.13 -0.864,0.246 l -0.064,0.033 -0.051,0.016 -48.51,21.4550001 c -1.7635,0.78104 -2.76791,2.66323 -2.435,4.563 0.192,1.098 18.76,110.492004 -22.7959999,157.410004 -0.67934002,0.76793 -1.05455002489,1.75771 -1.055000024890631,2.783 v 320.436 C -4.0992489e-4,511.51386 1.6777801,513.33433 3.8570001,513.51145"
     id="path8"
     inkscape:connector-curvature="0"
     style="fill:#231f20"
     sodipodi:nodetypes="cccccccccccccccccccccccccsccccccccccsccccccsccccccccccccccsccccccccccssccccccccccccccccccccccsccccccccccccccccccccccc" />
  <path
     style="fill:#ffffff;stroke-width:1.40986931"
     d="M 25.8309,491.6606 11.37974,491.20367 V 350.61444 210.0252 l 9.79431,-10.19044 C 47.09488,172.86558 57.82291,125.16671 52.12077,62.239736 51.26549,52.801156 49.78275,40.547186 48.8258,35.008706 l -1.73991,-10.06996 4.75267,-2.26639 c 2.61396,-1.24652 4.97537,-2.26639 5.24757,-2.26639 0.2722,0 1.23068,5.03193 2.12995,11.18207 6.39405,43.72917 27.47047,76.451904 57.21852,88.836044 26.00876,10.82748 59.51177,8.00397 84.72026,-7.13989 9.35929,-5.62254 23.27747,-20.212074 30.06189,-31.511934 6.36629,-10.60345 13.45823,-32.25795 15.59576,-47.62007 0.94409,-6.78499 2.19077,-12.33635 2.77038,-12.33635 1.62384,0 9.93385,3.02818 9.93385,3.61991 0,0.28838 -0.94015,7.04656 -2.08924,15.01817 -12.15739,84.340254 -1.11215,148.169204 29.01833,167.693074 l 7.17063,4.64642 -0.81042,12.01375 c -0.44574,6.60756 -1.21848,68.56114 -1.71722,137.6746 l -0.90678,125.66086 -14.98019,0.92545 c -43.81265,2.70671 -84.72428,3.57973 -155.96711,3.3282 -43.42397,-0.15331 -85.4557,-0.48436 -93.40384,-0.73567 z"
     id="path24"
     inkscape:connector-curvature="0" />
  <path
     style="fill:#ffffff;stroke-width:1.40986931"
     d="m 16.66675,491.68514 -5.28701,-0.55303 V 350.54775 209.96339 l 7.78993,-8.23772 C 38.75467,181.01483 49.1,152.96183 52.20652,112.14103 53.75231,91.828636 52.42811,63.277256 48.82907,39.319616 c -1.14549,-7.62521 -1.95108,-13.96783 -1.79019,-14.09473 1.4499,-1.14352 9.80663,-4.92307 10.10537,-4.57041 0.21266,0.25103 1.39206,6.50298 2.6209,13.89323 7.63702,45.92909 30.42659,77.506894 63.6992,88.263204 9.23507,2.9855 14.0893,3.65945 26.78752,3.71912 26.45272,0.12431 47.17287,-7.58186 63.58071,-23.64671 16.50953,-16.164404 25.77214,-35.211904 31.70115,-65.189684 1.65049,-8.34508 3.20882,-15.39471 3.46295,-15.66585 0.25413,-0.27114 2.7829,0.27297 5.6195,1.20913 4.77724,1.57663 5.09827,2.02872 4.35473,6.13246 -6.08608,33.59039 -7.75143,93.641074 -3.27033,117.924834 5.79131,31.38396 15.2581,50.01309 30.80724,60.62376 l 7.1902,4.90657 -0.8712,14.11299 c -0.47917,7.76215 -1.28411,69.74467 -1.78877,137.73894 l -0.91756,123.62595 -8.60499,0.82402 c -24.00159,2.29844 -86.89081,3.54385 -168.62517,3.33931 -50.01511,-0.12516 -93.31572,-0.47643 -96.22358,-0.78061 z"
     id="path26"
     inkscape:connector-curvature="0" />
  <path
     style="fill:#ffffff;stroke-width:1.40986931"
     d="M 27.24077,493.15603 8.5600001,492.63035 V 351.80967 210.98899 l 4.5820799,-3.80737 c 26.38887,-21.92722 39.60443,-65.73029 37.2096,-123.331534 -0.8325,-20.02356 -3.88836,-48.8358 -5.82763,-54.94589 -0.61107,-1.92531 0.68828,-3.20894 5.57194,-5.50453 3.50286,-1.64653 6.6541,-2.9937 7.00275,-2.9937 0.34865,0 1.04553,3.01359 1.54861,6.69688 7.11086,52.06149 32.41034,87.180444 69.86428,96.980674 13.5602,3.54817 40.64545,2.24548 54.70265,-2.63097 34.70301,-12.03849 57.0631,-45.179494 61.60907,-91.313864 0.52748,-5.353 1.08126,-9.73272 1.23065,-9.73272 0.14939,0 3.30747,1.03442 7.01796,2.29871 l 6.74635,2.29871 -0.86857,5.43176 c -5.43089,33.96292 -7.33758,89.480774 -3.8439,111.924514 4.35122,27.95275 11.92053,46.38479 24.04268,58.54639 4.32337,4.33745 9.27373,8.79994 11.00081,9.91667 l 3.14011,2.03041 -1.33542,69.78853 c -0.7345,38.38369 -1.35451,100.37157 -1.3778,137.75085 l -0.0423,67.9623 -4.58207,0.74681 c -19.23053,3.13425 -194.05098,5.87396 -258.71102,4.05441 z"
     id="path28"
     inkscape:connector-curvature="0" />
  <path
     style="fill:#ffffff;stroke-width:1.40986931"
     d="m 133.72249,97.351766 c -24.61433,-7.06582 -41.57103,-29.66735 -49.69235,-66.23475 -0.87574,-3.94315 -0.61926,-3.82784 7.0245,3.15813 9.11203,8.32788 22.50248,16.21723 31.70478,18.67973 l 6.34441,1.69775 0.24333,10.72159 c 0.13383,5.89687 1.08744,13.25935 2.11914,16.36106 l 1.8758,5.63948 20.11563,0.39136 c 23.64665,0.46005 23.02661,0.91879 19.4256,-14.37237 -1.32934,-5.64485 -2.20693,-12.0704 -1.9502,-14.279 0.40971,-3.52467 1.41485,-4.30047 8.22106,-6.3453 11.47323,-3.44698 20.75379,-8.21032 30.77593,-15.79606 l 8.93935,-6.76617 -0.97994,4.61599 c -1.90457,8.97145 -9.15552,25.87297 -14.79018,34.47499 -7.77136,11.86396 -19.31608,22.10877 -29.23688,25.94485 -10.05815,3.8892 -30.24351,4.949624 -40.13998,2.10872 z"
     id="path30"
     inkscape:connector-curvature="0" />
  <path
     style="fill:#ffffff;stroke-width:1.40986931"
     d="m 135.44824,116.08598 c -10.27298,-1.68428 -25.90528,-9.28545 -34.12035,-16.590954 -16.66655,-14.82124 -30.7764,-46.72661 -33.14176,-74.9406 -0.64512,-7.69506 -0.39072,-9.49428 1.44192,-10.19753 1.76913,-0.67888 2.40437,0.50377 3.09911,5.76979 3.52334,26.70632 14.06458,52.27346 27.67709,67.12912 16.90537,18.449234 43.5769,26.205114 68.12663,19.810724 30.02411,-7.820284 50.5892,-34.486874 60.51541,-78.469844 2.4236,-10.73892 3.496,-13.40721 5.01188,-12.47035 1.4993,0.92662 1.73714,3.8105 1.06861,12.95732 -3.43059,46.93688 -28.69325,79.751194 -66.59685,86.504344 -12.56914,2.23939 -21.62846,2.37577 -33.08169,0.49798 z"
     id="path32"
     inkscape:connector-curvature="0" />
  <path
     style="fill:#ffffff;stroke-width:1.40986931"
     d="m 286.91304,195.83769 c -20.10838,-19.62826 -28.1897,-63.16933 -23.06055,-124.247174 2.46145,-29.31085 4.57023,-42.0204 6.97204,-42.0204 2.37043,0 2.37264,1.67379 0.0405,30.75705 -4.94751,61.699384 2.42021,110.107574 19.76503,129.862234 3.04554,3.46867 4.19711,6.07412 3.87976,8.778 l -0.4513,3.84518 z"
     id="path34"
     inkscape:connector-curvature="0" />
  <path
     style="fill:#ffffff;stroke-width:1.40986931"
     d="m 8.5600001,194.97136 c 0,-1.88286 1.6374799,-5.60858 3.6388299,-8.27937 10.57042,-14.10612 18.59843,-36.76823 22.56462,-63.69724 1.90447,-12.93068 2.17269,-21.90736 1.44347,-48.308814 -0.49261,-17.83485 -1.19204,-35.28198 -1.55429,-38.77141 -0.51471,-4.95807 -0.3888,-5.51754 0.57625,-2.56033 2.95135,9.04394 5.03612,36.06338 4.9296,63.88965 -0.12793,33.419834 -2.42588,48.759904 -10.40291,69.445034 -4.13891,10.73254 -13.32514,25.25167 -18.83602,29.77091 -2.0895799,1.71358 -2.3595499,1.54329 -2.3595499,-1.48843 z"
     id="path36"
     inkscape:connector-curvature="0" />
  <path
     style="fill:#ffffff;stroke-width:1.40986931"
     d="m 109.36566,509.52533 c -24.03827,-0.59515 -54.49145,-1.76046 -67.67373,-2.58957 -13.18228,-0.8291 -26.02971,-1.5136 -28.54985,-1.52111 -2.52014,-0.007 -4.5820799,-0.514 -4.5820799,-1.12555 0,-0.61155 45.8383799,-1.08738 101.8630599,-1.0574 92.76808,0.0497 145.73929,-1.28804 172.70899,-4.36144 6.86215,-0.78199 7.40182,-0.62606 7.40182,2.1387 0,1.6402 -0.47583,2.9897 -1.0574,2.99889 -0.58157,0.009 -10.90849,0.92812 -22.94869,2.04208 -20.24593,1.87315 -43.25965,2.87622 -93.718,4.08474 -10.85599,0.26001 -39.40585,-0.0142 -63.44412,-0.60934 z"
     id="path38"
     inkscape:connector-curvature="0" />
  <path
     style="fill:#ffffff;stroke-width:1.40986931"
     d="m 140.38415,78.212806 c -0.4785,-0.77421 -1.2424,-5.84974 -1.69756,-11.27895 l -0.82758,-9.87129 h 11.30181 11.3018 l 0.96135,7.24703 c 0.52875,3.98587 1.32423,9.0614 1.76774,11.27895 l 0.80639,4.03193 h -11.37199 c -6.25459,0 -11.76347,-0.63345 -12.24196,-1.40767 z"
     id="path40"
     inkscape:connector-curvature="0" />
</svg>
