<?xml version="1.0" encoding="UTF-8" standalone="no"?>
<!-- Created with Inkscape (http://www.inkscape.org/) -->

<svg
   xmlns:dc="http://purl.org/dc/elements/1.1/"
   xmlns:cc="http://creativecommons.org/ns#"
   xmlns:rdf="http://www.w3.org/1999/02/22-rdf-syntax-ns#"
   xmlns:svg="http://www.w3.org/2000/svg"
   xmlns="http://www.w3.org/2000/svg"
   xmlns:sodipodi="http://sodipodi.sourceforge.net/DTD/sodipodi-0.dtd"
   xmlns:inkscape="http://www.inkscape.org/namespaces/inkscape"
   width="106.17729mm"
   height="111.68321mm"
   viewBox="0 0 106.17729 111.68321"
   version="1.1"
   id="svg8"
   inkscape:version="0.92.2 5c3e80d, 2017-08-06"
   sodipodi:docname="tshirt.svg">
  <defs
     id="defs2" />
  <sodipodi:namedview
     id="base"
     pagecolor="#ffffff"
     bordercolor="#666666"
     borderopacity="1.0"
     inkscape:pageopacity="0.0"
     inkscape:pageshadow="2"
     inkscape:zoom="0.98994949"
     inkscape:cx="265.85156"
     inkscape:cy="188.4258"
     inkscape:document-units="mm"
     inkscape:current-layer="layer1"
     showgrid="false"
     inkscape:window-width="1920"
     inkscape:window-height="1027"
     inkscape:window-x="0"
     inkscape:window-y="0"
     inkscape:window-maximized="1" />
  <metadata
     id="metadata5">
    <rdf:RDF>
      <cc:Work
         rdf:about="">
        <dc:format>image/svg+xml</dc:format>
        <dc:type
           rdf:resource="http://purl.org/dc/dcmitype/StillImage" />
        <dc:title></dc:title>
      </cc:Work>
    </rdf:RDF>
  </metadata>
  <g
     inkscape:label="Layer 1"
     inkscape:groupmode="layer"
     id="layer1"
     transform="translate(0.17198025,-0.0095842)">
    <g
       id="g342"
       transform="matrix(0.26458333,0,0,0.26458333,-73.329271,-28.633122)">
      <g
         id="g242">
        <path
           id="path2"
           d="m 677.8,228 -0.4,-0.5 c -0.1,-0.2 -0.2,-0.4 -0.3,-0.6 -0.2,-0.3 -0.4,-0.5 -0.7,-0.7 -18.7,-26 -38.6,-51.7 -59,-76.4 -2.4,-2.9 -5.2,-6.2 -8.8,-8.5 -3.1,-1.9 -6.7,-2.9 -10.1,-3.8 l -0.4,-0.1 c -25.7,-7 -50.8,-16.7 -74.6,-28.6 v 0 c -0.4,-0.2 -0.9,-0.2 -1.4,0 -5,2.7 -34.6,4.3 -42.9,4.2 -19.6,-0.2 -34.6,-1.6 -48.4,-4.7 -0.8,-0.2 -1.6,0.3 -1.8,1.1 0,0.1 0,0.1 0,0.2 -23.3,11.6 -47.7,20.9 -72.8,27.8 l -0.4,0.1 c -3.4,0.9 -7,1.9 -10.1,3.8 -3.6,2.2 -6.4,5.6 -8.8,8.5 -20.4,24.7 -40.2,50.4 -59,76.4 -0.3,0.2 -0.5,0.4 -0.7,0.7 -0.1,0.1 -0.2,0.3 -0.3,0.6 l -0.4,0.5 0.2,0.1 c -0.5,2.8 1.1,9.9 18.2,24.9 11.4,10 25.8,22.2 37.2,28.7 l 0.8,0.4 c 1.8,1.1 3.5,2.1 5.9,2.1 0.2,0 0.4,0 0.6,0 0.6,0 1.1,-0.4 1.3,-1 0.4,-0.1 0.6,-0.3 0.8,-0.4 2.1,-1.8 4.1,-3.9 6.2,-6.1 1.3,-1.4 2.7,-2.8 4,-4.1 1.5,-1.5 4.1,-4.3 6.2,-6.9 0,0.7 0,1.4 0.1,2.3 0.1,4.5 0.3,10.8 0.4,18.5 0.3,15.3 0.7,35.7 1.1,56.1 0.4,20.4 0.9,40.8 1.2,56.1 0.1,3.8 0.2,7.3 0.2,10.4 0.1,3.1 0.3,5.8 0.6,8 0,0.1 0,0.2 0,0.3 -0.4,4.4 -0.8,8.9 -1.1,13.3 -1.2,14.9 -2,29.9 -2.4,44.8 -0.1,3.7 -0.2,7.5 -0.3,11.2 l -0.2,11.2 -0.1,11.2 -0.1,11.2 v 1.3 l 1.2,0.4 c 5.1,1.6 10.1,2.4 15.2,3.2 5.1,0.7 10.1,1.3 15.2,1.7 10.1,0.9 20.3,1.6 30.4,2 10.1,0.5 20.3,0.8 30.4,0.9 10.1,0.2 20.3,0.2 30.4,0.1 20.3,-0.3 40.6,-1 60.9,-2.6 10.1,-0.8 20.3,-1.8 30.3,-3.3 5,-0.8 10.1,-1.7 15.1,-2.9 5,-1.3 10,-2.6 14.7,-5.5 l 0.8,-0.5 v -1.2 l -0.5,-18.8 c -0.2,-6.4 -0.5,-12.7 -0.8,-19.1 -0.3,-6.4 -0.7,-12.7 -1.2,-19.1 -0.2,-3.2 -0.5,-6.4 -0.8,-9.5 -0.3,-3.2 -0.6,-6.3 -0.9,-9.5 0,-0.4 -0.1,-0.8 -0.1,-1.1 h 0.1 C 596.3,382.9 595.3,291 596,265.4 c 2.1,2.6 4.7,5.4 6.2,6.9 1.4,1.3 2.7,2.7 4,4.1 2.1,2.2 4.1,4.3 6.2,6.1 0.1,0.1 0.4,0.3 0.8,0.4 0.2,0.5 0.7,0.9 1.3,1 0.2,0 0.4,0 0.6,0 2.5,0 4.2,-1 5.9,-2.1 l 0.8,-0.4 c 11.3,-6.5 25.8,-18.8 37.2,-28.7 17.1,-15 18.7,-22.1 18.2,-24.9 z"
           inkscape:connector-curvature="0"
           style="fill:#ffffff" />
        <g
           id="g6">
          <path
             id="path4"
             d="m 363.7,188.5 c -0.3,-1.9 -0.7,-3.8 -1.8,-5.3 -1.2,-1.6 -4.4,30.5 -3.5,43.9 0.1,1.7 -0.3,3.3 -1.4,4.6 -3.1,3.8 -7.8,1.2 -11.3,-1.2 -5.7,-4 -11.8,-7.5 -18.1,-10.5 -1.7,-0.8 -3.7,0.7 -3.3,2.5 1.2,5.4 5.2,10.1 8.9,14.5 4.6,5.4 9.3,12.2 7.5,19.1 -2.2,8.7 -13.1,12 -18.1,19.4 0,0 0,0 0,0 3.4,2.4 6.7,4.6 9.7,6.3 l 0.8,0.4 c 1.8,1.1 3.5,2.1 5.9,2.1 0.2,0 0.4,0 0.6,0 0.6,0 1.1,-0.4 1.3,-1 0.4,-0.1 0.6,-0.3 0.8,-0.4 2.1,-1.8 4.1,-3.9 6.2,-6.1 1.3,-1.4 2.7,-2.8 4,-4.1 1.5,-1.5 4.1,-4.3 6.2,-6.9 5.3,-25.4 9.5,-51.7 5.6,-77.3 z"
             inkscape:connector-curvature="0"
             style="fill:#e5e5e5" />
        </g>
        <g
           id="g10">
          <path
             id="path8"
             d="m 590.8,188.5 c 0.3,-1.9 0.7,-3.8 1.8,-5.3 1.2,-1.6 4.4,30.5 3.5,43.9 -0.1,1.7 0.3,3.3 1.4,4.6 3.1,3.8 7.8,1.2 11.3,-1.2 5.7,-4 11.8,-7.5 18.1,-10.5 1.7,-0.8 3.7,0.7 3.3,2.5 -1.2,5.4 -5.2,10.1 -8.9,14.5 -4.6,5.4 -9.3,12.2 -7.5,19.1 2.2,8.7 13.1,12 18.1,19.4 0,0 0,0 0,0 -3.4,2.4 -6.7,4.6 -9.7,6.3 l -0.8,0.4 c -1.8,1.1 -3.5,2.1 -5.9,2.1 -0.2,0 -0.4,0 -0.6,0 -0.6,0 -1.1,-0.4 -1.3,-1 -0.4,-0.1 -0.6,-0.3 -0.8,-0.4 -2.1,-1.8 -4.1,-3.9 -6.2,-6.1 -1.3,-1.4 -2.7,-2.8 -4,-4.1 -1.5,-1.5 -4.1,-4.3 -6.2,-6.9 -5.3,-25.4 -9.5,-51.7 -5.6,-77.3 z"
             inkscape:connector-curvature="0"
             style="fill:#e5e5e5" />
        </g>
        <g
           id="g18">
          <path
             id="path12"
             d="m 362.3,400.5 c 7.8,-28.4 9.9,-58.6 22.8,-85 0.8,-1.7 1.7,-3.4 1.9,-5.3 -4.3,2.3 -8.1,5.4 -11,9.3 -3.2,4.2 -5.4,9 -7.6,13.8 -2.8,6.3 -5.6,12.5 -8.5,18.8 0.4,17.2 0.7,33.8 1,46.7 0,1.4 0.1,2.7 0.1,4 0.8,-0.5 1.1,-1.5 1.3,-2.3 z"
             inkscape:connector-curvature="0"
             style="fill:#e5e5e5" />
          <path
             id="path14"
             d="m 591.7,425.2 c 4.6,20.5 -7.7,40.7 -20.1,57.7 -4.3,5.9 -8.8,11.9 -14.5,16.4 -6.8,5.4 -15.1,8.5 -23.6,10.4 -7.9,1.8 -16,2.6 -24.1,3.3 -17.1,1.6 -34.1,3.3 -51.2,4.9 -7.7,0.7 -15.6,1.5 -23.3,0.3 -10.4,-1.6 -19.9,-6.7 -29.2,-11.7 -7.5,-4 -15.2,-8.2 -20.9,-14.6 -4.7,-5.4 -7.7,-12.1 -10,-18.8 -2.7,-7.8 -4.5,-15.9 -5.5,-24.1 -2.5,-20.4 0.3,-41.4 -3.5,-61.6 -0.9,6.7 -2.6,13.3 -4.7,19.7 0,0.7 0,1.4 0,2.1 0.1,3.1 0.3,5.8 0.6,8 0,0.1 0,0.2 0,0.3 -0.4,4.4 -0.8,8.9 -1.1,13.3 -1.2,14.9 -2,29.9 -2.4,44.8 -0.1,3.7 -0.2,7.5 -0.3,11.2 l -0.2,11.2 -0.1,11.2 -0.1,11.2 v 1.3 l 1.2,0.4 c 5.1,1.6 10.1,2.4 15.2,3.2 5.1,0.7 10.1,1.3 15.2,1.7 10.1,0.9 20.3,1.6 30.4,2 10.1,0.5 20.3,0.8 30.4,0.9 10.1,0.2 20.3,0.2 30.4,0.1 20.3,-0.3 40.6,-1 60.9,-2.6 10.1,-0.8 20.3,-1.8 30.3,-3.3 5,-0.8 10.1,-1.7 15.1,-2.9 5,-1.3 10,-2.6 14.7,-5.5 l 0.8,-0.5 V 514 l -0.5,-18.8 c -0.2,-6.4 -0.5,-12.7 -0.8,-19.1 -0.3,-6.4 -0.7,-12.7 -1.2,-19.1 -0.2,-3.2 -0.5,-6.4 -0.8,-9.5 -0.3,-3.2 -0.6,-6.3 -0.9,-9.5 0,-0.4 -0.1,-0.8 -0.1,-1.1 h 0.1 c -0.1,-4.1 -0.2,-8.3 -0.3,-12.8 -1.9,-0.7 -4.4,-0.6 -5.9,1.1 z"
             inkscape:connector-curvature="0"
             style="fill:#e5e5e5" />
          <path
             id="path16"
             d="m 571.8,335.7 c -1.9,-2 -4.6,-4.2 -7.1,-2.9 15.3,26.9 25.6,56.7 30.4,87.3 2.6,-10.5 2.1,-21.5 1.6,-32.3 -0.2,-5.1 -0.5,-10.2 -1.5,-15.1 -3.2,-14.5 -13.3,-26.2 -23.4,-37 z"
             inkscape:connector-curvature="0"
             style="fill:#e5e5e5" />
        </g>
        <g
           id="g104">
          <g
             id="g22">
            <path
               id="path20"
               d="m 595.1,437.2 c -1.6,-60.8 -2.6,-164.7 -1.5,-177.4 l 3,0.3 c -1.1,12.4 -0.1,117.6 1.5,177 z"
               inkscape:connector-curvature="0"
               style="fill:#151515" />
          </g>
          <g
             id="g26">
            <path
               id="path24"
               d="m 376,342.6 c -1,3.6 -1.9,7.2 -2.7,10.9 -0.8,3.6 -1.5,7.3 -2.1,11 -0.6,3.7 -1.2,7.3 -1.7,11 -0.5,3.7 -0.9,7.4 -1.4,11.1 -0.4,3.7 -0.7,7.4 -1.1,11.1 l -1,11.2 c -0.7,7.4 -1.3,14.9 -1.9,22.3 -1.1,14.9 -1.9,29.8 -2.3,44.7 -0.1,3.7 -0.2,7.5 -0.3,11.2 l -0.2,11.2 -0.1,11.2 v 11.2 L 360,519 c 4.6,1.5 9.6,2.2 14.6,3 5,0.7 10,1.2 15,1.7 10.1,0.9 20.1,1.5 30.2,1.9 10.1,0.4 20.2,0.7 30.3,0.8 5.1,0.1 10.1,0.1 15.2,0.1 5.1,0 10.1,0 15.2,0 20.2,-0.2 40.5,-0.8 60.6,-2.3 10.1,-0.8 20.1,-1.7 30.1,-3.2 5,-0.7 9.9,-1.6 14.8,-2.7 2.4,-0.6 4.8,-1.2 7.2,-2 2.3,-0.8 4.6,-1.7 6.5,-2.9 l -0.7,1.7 -0.1,-0.8 v -0.6 -1.2 -2.4 l -0.1,-4.8 -0.2,-9.5 c -0.2,-6.3 -0.4,-12.7 -0.7,-19 -0.3,-6.3 -0.7,-12.7 -1.1,-19 -0.2,-3.2 -0.5,-6.3 -0.7,-9.5 -0.3,-3.2 -0.5,-6.3 -0.8,-9.5 -0.3,-3.2 -0.7,-6.3 -1.1,-9.4 -0.4,-3.1 -0.9,-6.3 -1.4,-9.4 -0.5,-3.1 -1,-6.3 -1.6,-9.4 l -1.8,-9.4 c -1.2,-6.2 -2.5,-12.5 -3.9,-18.7 -0.7,-3.1 -1.3,-6.2 -2.1,-9.3 -0.7,-3.1 -1.5,-6.2 -2.3,-9.3 1.1,3 2.1,6 3,9.1 0.9,3 1.8,6.1 2.7,9.2 0.9,3.1 1.7,6.1 2.4,9.2 0.8,3.1 1.5,6.2 2.2,9.3 0.7,3.1 1.4,6.2 2.1,9.3 0.6,3.1 1.3,6.2 1.8,9.4 0.6,3.1 1.1,6.3 1.6,9.4 0.5,3.2 0.9,6.4 1.2,9.5 0.3,3.2 0.6,6.4 0.9,9.5 0.3,3.2 0.5,6.3 0.8,9.5 0.5,6.4 0.9,12.7 1.2,19.1 0.3,6.4 0.6,12.7 0.8,19.1 l 0.5,18.8 v 1.2 l -0.8,0.5 c -4.7,2.9 -9.7,4.2 -14.7,5.5 -5,1.2 -10,2.1 -15.1,2.9 -10.1,1.5 -20.2,2.5 -30.3,3.3 -20.3,1.6 -40.6,2.3 -60.9,2.6 -10.1,0.1 -20.3,0.1 -30.4,-0.1 -10.1,-0.2 -20.3,-0.5 -30.4,-0.9 -10.1,-0.5 -20.3,-1.1 -30.4,-2 -5.1,-0.5 -10.1,-1 -15.2,-1.7 -5.1,-0.8 -10.1,-1.5 -15.2,-3.2 l -1.2,-0.4 v -1.3 l 0.1,-11.2 0.1,-11.2 0.2,-11.2 c 0.1,-3.7 0.2,-7.5 0.3,-11.2 0.5,-15 1.3,-29.9 2.4,-44.8 0.6,-7.5 1.3,-14.9 2,-22.4 l 1.1,-11.2 c 0.3,-3.7 0.8,-7.5 1.2,-11.2 0.5,-3.7 1.1,-7.4 1.7,-11.1 0.6,-3.7 1.4,-7.4 2.3,-11 0.9,-3.7 1.9,-7.3 3,-10.9 1.1,-3.7 2.4,-7.3 3.9,-10.7 z"
               inkscape:connector-curvature="0"
               style="fill:#151515" />
          </g>
          <g
             id="g30">
            <path
               id="path28"
               d="m 361.1,260.9 c 0,0 0.1,2.6 0.4,7 0.2,4.5 0.5,10.8 0.7,18.5 0.1,3.8 0.3,8 0.4,12.4 0.1,4.4 0.2,9 0.3,13.8 0.2,9.6 0.4,19.8 0.6,30 0.2,20.4 0.4,40.8 0.6,56.1 0,3.8 0.1,7.3 0.1,10.4 0,3.1 -0.2,5.8 -0.3,8.1 -0.2,2.2 -0.4,4 -0.6,5.2 -0.2,1.2 -0.3,1.9 -0.3,1.8 0,0.1 -0.2,-0.6 -0.4,-1.8 -0.2,-1.2 -0.5,-2.9 -0.7,-5.2 -0.2,-2.2 -0.5,-4.9 -0.6,-8 -0.1,-3.1 -0.1,-6.6 -0.2,-10.4 -0.3,-15.3 -0.8,-35.7 -1.2,-56.1 -0.4,-20.4 -0.8,-40.8 -1.1,-56.1 -0.2,-7.6 -0.3,-14 -0.4,-18.5 -0.1,-4.5 -0.2,-7 -0.2,-7 z"
               inkscape:connector-curvature="0"
               style="fill:#151515" />
          </g>
          <g
             id="g54">
            <g
               id="g34">
              <path
                 id="path32"
                 d="m 340.7,283.3 c -0.1,0 -0.2,0 -0.3,0 0,0 0,0 0,0 -1.3,0 -2.4,-1.5 -3.7,-3.5 -0.1,-0.2 -0.2,-0.3 -0.3,-0.4 -14.9,-21.2 -35,-38.7 -58.1,-50.6 l -1.5,-0.8 1,-1.4 c 18.8,-26.1 38.7,-51.9 59.2,-76.8 2.4,-2.9 5.2,-6.2 8.8,-8.5 3.1,-1.9 6.7,-2.9 10.1,-3.8 l 0.4,-0.1 c 25.7,-7 50.8,-16.7 74.6,-28.6 l 1.3,2.7 c -24,12.1 -49.3,21.8 -75.1,28.9 l -0.4,0.1 c -2.4,0.6 -4.8,1.3 -7,2.3 28.8,51.8 13.2,116.1 11.2,119.4 -1.8,3 -6.5,8.3 -8.9,10.6 -1.4,1.3 -2.7,2.7 -4,4.1 -2.1,2.2 -4.1,4.3 -6.2,6.1 -0.2,0 -0.5,0.3 -1.1,0.3 z M 281.3,227 c 22.8,12.1 42.7,29.6 57.6,50.8 0.1,0.1 0.2,0.3 0.3,0.5 0.6,0.9 1,1.5 1.3,1.8 1.8,-1.6 3.5,-3.4 5.3,-5.3 1.3,-1.4 2.7,-2.8 4.1,-4.2 2.3,-2.2 6.8,-7.3 8.4,-10 0.5,-0.9 5,-17 5.6,-40.4 0.5,-20 -2.1,-49.4 -16.9,-76 -3.1,2 -5.5,5 -7.7,7.6 -20,24.3 -39.6,49.6 -58,75.2 z"
                 inkscape:connector-curvature="0"
                 style="fill:#151515" />
            </g>
            <g
               id="g38">
              <path
                 id="path36"
                 d="m 339.1,284.3 c -2.5,0 -4.2,-1 -5.9,-2.1 l -0.8,-0.4 C 321.1,275.3 306.6,263 295.2,253.1 274.8,235.2 276.4,228.6 277.4,227 c 0.6,-1 1.7,-1.4 2.6,-1 0.8,0.3 1.1,1.2 0.8,2 -0.2,0.4 -0.5,0.7 -0.9,0.9 -0.1,1.3 0.5,7.4 17.3,22 11.2,9.9 25.6,22 36.7,28.4 l 0.8,0.5 c 1.8,1.1 3,1.7 4.8,1.6 0.8,-0.1 1.5,0.6 1.6,1.4 0.1,0.8 -0.6,1.5 -1.4,1.6 -0.2,-0.1 -0.4,-0.1 -0.6,-0.1 z"
                 inkscape:connector-curvature="0"
                 style="fill:#151515" />
            </g>
            <g
               id="g52">
              <g
                 id="g42">
                <path
                   id="path40"
                   d="m 283,224.3 c -0.1,0 -0.2,0 -0.4,-0.1 -0.3,-0.1 -0.6,-0.2 -0.9,-0.3 -0.5,-0.2 -0.8,-0.8 -0.6,-1.3 0.2,-0.5 0.8,-0.8 1.3,-0.6 0.3,0.1 0.6,0.2 1,0.4 0.5,0.2 0.8,0.8 0.6,1.3 -0.2,0.4 -0.6,0.6 -1,0.6 z"
                   inkscape:connector-curvature="0"
                   style="fill:#151515" />
              </g>
              <g
                 id="g46">
                <path
                   id="path44"
                   d="m 341.7,275.3 c -0.3,0 -0.7,-0.2 -0.9,-0.5 -0.3,-0.6 -0.7,-1.1 -1,-1.7 -0.3,-0.5 -0.2,-1.1 0.3,-1.4 0.5,-0.3 1.1,-0.2 1.4,0.3 0.4,0.6 0.7,1.2 1.1,1.7 0.3,0.5 0.1,1.1 -0.3,1.4 -0.3,0.2 -0.5,0.2 -0.6,0.2 z m -3.3,-5 c -0.3,0 -0.6,-0.1 -0.8,-0.4 -0.4,-0.5 -0.8,-1.1 -1.2,-1.6 -0.3,-0.4 -0.2,-1.1 0.2,-1.4 0.4,-0.3 1.1,-0.2 1.4,0.2 0.4,0.6 0.8,1.1 1.2,1.7 0.3,0.5 0.2,1.1 -0.2,1.4 -0.2,0 -0.4,0.1 -0.6,0.1 z m -3.7,-4.9 c -0.3,0 -0.6,-0.1 -0.8,-0.4 -0.4,-0.5 -0.8,-1 -1.3,-1.6 -0.4,-0.4 -0.3,-1.1 0.1,-1.4 0.4,-0.3 1.1,-0.3 1.4,0.1 0.4,0.5 0.9,1.1 1.3,1.6 0.3,0.4 0.3,1.1 -0.2,1.4 0,0.2 -0.3,0.3 -0.5,0.3 z m -3.8,-4.7 c -0.3,0 -0.6,-0.1 -0.8,-0.3 -0.4,-0.5 -0.9,-1 -1.3,-1.5 -0.4,-0.4 -0.3,-1 0.1,-1.4 0.4,-0.4 1,-0.3 1.4,0.1 0.5,0.5 0.9,1 1.3,1.5 0.4,0.4 0.3,1 -0.1,1.4 -0.2,0.2 -0.4,0.2 -0.6,0.2 z m -4.1,-4.4 c -0.3,0 -0.5,-0.1 -0.7,-0.3 -0.5,-0.5 -0.9,-1 -1.4,-1.4 -0.4,-0.4 -0.4,-1 0,-1.4 0.4,-0.4 1,-0.4 1.4,0 0.5,0.5 0.9,1 1.4,1.5 0.4,0.4 0.4,1 0,1.4 -0.2,0.1 -0.5,0.2 -0.7,0.2 z m -4.3,-4.4 c -0.3,0 -0.5,-0.1 -0.7,-0.3 -0.5,-0.5 -1,-0.9 -1.4,-1.4 -0.4,-0.4 -0.4,-1 0,-1.4 0.4,-0.4 1,-0.4 1.4,0 0.5,0.5 1,0.9 1.5,1.4 0.4,0.4 0.4,1 0,1.4 -0.3,0.2 -0.5,0.3 -0.8,0.3 z m -4.4,-4.1 c -0.2,0 -0.5,-0.1 -0.7,-0.3 -0.5,-0.5 -1,-0.9 -1.5,-1.3 -0.4,-0.4 -0.5,-1 -0.1,-1.4 0.4,-0.4 1,-0.5 1.4,-0.1 0.5,0.4 1,0.9 1.5,1.4 0.4,0.4 0.4,1 0.1,1.4 -0.2,0.2 -0.4,0.3 -0.7,0.3 z m -4.6,-4 c -0.2,0 -0.5,-0.1 -0.6,-0.2 -0.5,-0.4 -1,-0.9 -1.5,-1.3 -0.4,-0.4 -0.5,-1 -0.1,-1.4 0.4,-0.4 1,-0.5 1.4,-0.1 0.5,0.4 1,0.9 1.6,1.3 0.4,0.4 0.5,1 0.1,1.4 -0.3,0.2 -0.6,0.3 -0.9,0.3 z m -4.7,-3.8 c -0.2,0 -0.4,-0.1 -0.6,-0.2 -0.5,-0.4 -1.1,-0.8 -1.6,-1.2 -0.4,-0.3 -0.5,-1 -0.2,-1.4 0.3,-0.4 1,-0.5 1.4,-0.2 0.5,0.4 1.1,0.8 1.6,1.2 0.4,0.3 0.5,1 0.2,1.4 -0.2,0.2 -0.5,0.4 -0.8,0.4 z m -4.8,-3.7 c -0.2,0 -0.4,-0.1 -0.6,-0.2 -0.5,-0.4 -1.1,-0.8 -1.6,-1.2 -0.5,-0.3 -0.6,-0.9 -0.2,-1.4 0.4,-0.5 0.9,-0.6 1.4,-0.2 0.6,0.4 1.1,0.8 1.7,1.2 0.4,0.3 0.5,0.9 0.2,1.4 -0.3,0.3 -0.6,0.4 -0.9,0.4 z m -5,-3.4 c -0.2,0 -0.4,-0.1 -0.5,-0.2 -0.6,-0.4 -1.1,-0.7 -1.7,-1.1 -0.5,-0.3 -0.6,-0.9 -0.3,-1.4 0.3,-0.5 0.9,-0.6 1.4,-0.3 0.6,0.4 1.1,0.7 1.7,1.1 0.5,0.3 0.6,0.9 0.3,1.4 -0.2,0.3 -0.6,0.5 -0.9,0.5 z m -5.1,-3.3 c -0.2,0 -0.3,0 -0.5,-0.1 -0.6,-0.3 -1.2,-0.7 -1.7,-1 -0.5,-0.3 -0.7,-0.9 -0.4,-1.4 0.3,-0.5 0.9,-0.7 1.4,-0.4 0.6,0.3 1.2,0.7 1.8,1 0.5,0.3 0.6,0.9 0.4,1.4 -0.4,0.4 -0.7,0.5 -1,0.5 z m -5.4,-2.8 c -0.1,0 -0.3,0 -0.4,-0.1 -0.6,-0.3 -1.2,-0.6 -1.8,-0.9 -0.5,-0.2 -0.7,-0.8 -0.5,-1.3 0.2,-0.5 0.8,-0.7 1.3,-0.5 0.6,0.3 1.2,0.6 1.8,0.9 0.5,0.2 0.7,0.8 0.5,1.3 -0.1,0.4 -0.5,0.6 -0.9,0.6 z"
                   inkscape:connector-curvature="0"
                   style="fill:#151515" />
              </g>
              <g
                 id="g50">
                <path
                   id="path48"
                   d="m 344.1,279.7 c -0.4,0 -0.7,-0.2 -0.9,-0.6 -0.1,-0.3 -0.3,-0.6 -0.4,-0.9 -0.3,-0.5 -0.1,-1.1 0.4,-1.3 0.5,-0.3 1.1,-0.1 1.3,0.4 0.2,0.3 0.3,0.6 0.5,0.9 0.2,0.5 0,1.1 -0.5,1.3 -0.1,0.2 -0.3,0.2 -0.4,0.2 z"
                   inkscape:connector-curvature="0"
                   style="fill:#151515" />
              </g>
            </g>
          </g>
          <g
             id="g78">
            <g
               id="g58">
              <path
                 id="path56"
                 d="m 613.9,283.3 c -0.5,0 -0.9,-0.3 -1.1,-0.5 -2.1,-1.8 -4.1,-3.9 -6.2,-6.1 -1.3,-1.4 -2.7,-2.8 -4,-4.1 -2.3,-2.3 -7.1,-7.6 -8.9,-10.6 -2,-3.3 -17.6,-67.5 11.2,-119.4 -2.2,-1 -4.7,-1.7 -7,-2.3 l -0.4,-0.1 c -25.9,-7.1 -51.2,-16.8 -75.1,-28.9 l 1.3,-2.7 c 23.8,12 48.9,21.6 74.6,28.6 l 0.4,0.1 c 3.4,0.9 7,1.9 10.1,3.8 3.6,2.2 6.4,5.6 8.8,8.5 20.5,24.8 40.4,50.6 59.2,76.8 v 0 c 0.5,0.7 0.3,1.8 -0.5,2.2 v 0 c -23.1,11.9 -43.1,29.4 -58.1,50.6 -0.1,0.1 -0.2,0.2 -0.3,0.4 -1.3,2 -2.4,3.5 -3.7,3.5 0,0 0,0 0,0 -0.1,0.2 -0.2,0.2 -0.3,0.2 z m -6.4,-139.2 c -14.8,26.6 -17.3,55.9 -16.9,76 0.6,23.4 5.1,39.5 5.6,40.5 1.6,2.6 6.1,7.8 8.3,9.9 1.4,1.4 2.8,2.8 4.1,4.2 1.8,1.9 3.6,3.7 5.3,5.3 0.3,-0.4 0.8,-1 1.3,-1.8 0.1,-0.2 0.2,-0.4 0.3,-0.5 14.9,-21.1 34.8,-38.7 57.6,-50.8 -18.5,-25.6 -38,-50.9 -58.1,-75.2 -2,-2.6 -4.4,-5.6 -7.5,-7.6 z"
                 inkscape:connector-curvature="0"
                 style="fill:#151515" />
            </g>
            <g
               id="g62">
              <path
                 id="path60"
                 d="m 615.5,284.3 c -0.2,0 -0.4,0 -0.6,0 -0.8,-0.1 -1.5,-0.8 -1.4,-1.6 0.1,-0.8 0.8,-1.5 1.6,-1.4 1.9,0.1 3.1,-0.6 4.8,-1.6 l 0.8,-0.5 c 11.1,-6.4 25.4,-18.5 36.7,-28.4 16.7,-14.7 17.4,-20.8 17.3,-22 -0.4,-0.1 -0.7,-0.4 -0.9,-0.9 -0.3,-0.8 0.1,-1.6 0.8,-2 0.9,-0.4 2,0 2.6,1 1,1.6 2.6,8.2 -17.8,26.1 -11.4,10 -25.8,22.2 -37.2,28.7 l -0.8,0.4 c -1.8,1.2 -3.5,2.2 -5.9,2.2 z"
                 inkscape:connector-curvature="0"
                 style="fill:#151515" />
            </g>
            <g
               id="g76">
              <g
                 id="g66">
                <path
                   id="path64"
                   d="m 671.6,224.3 c -0.4,0 -0.8,-0.2 -0.9,-0.6 -0.2,-0.5 0.1,-1.1 0.6,-1.3 0.3,-0.1 0.6,-0.2 1,-0.4 0.5,-0.2 1.1,0.1 1.3,0.6 0.2,0.5 -0.1,1.1 -0.6,1.3 -0.3,0.1 -0.6,0.2 -0.9,0.3 -0.3,0.1 -0.4,0.1 -0.5,0.1 z"
                   inkscape:connector-curvature="0"
                   style="fill:#151515" />
              </g>
              <g
                 id="g70">
                <path
                   id="path68"
                   d="m 612.9,275.3 c -0.2,0 -0.4,0 -0.5,-0.1 -0.5,-0.3 -0.6,-0.9 -0.3,-1.4 0.3,-0.6 0.7,-1.2 1.1,-1.7 0.3,-0.5 0.9,-0.6 1.4,-0.3 0.5,0.3 0.6,0.9 0.3,1.4 -0.4,0.6 -0.7,1.1 -1,1.7 -0.3,0.3 -0.6,0.4 -1,0.4 z m 3.3,-5 c -0.2,0 -0.4,-0.1 -0.6,-0.2 -0.5,-0.3 -0.6,-0.9 -0.2,-1.4 0.4,-0.6 0.8,-1.1 1.2,-1.7 0.3,-0.4 1,-0.5 1.4,-0.2 0.4,0.3 0.5,1 0.2,1.4 -0.4,0.5 -0.8,1.1 -1.2,1.6 -0.1,0.3 -0.4,0.5 -0.8,0.5 z m 3.7,-4.9 c -0.2,0 -0.4,-0.1 -0.6,-0.2 -0.4,-0.3 -0.5,-1 -0.2,-1.4 0.4,-0.5 0.8,-1.1 1.3,-1.6 0.4,-0.4 1,-0.5 1.4,-0.1 0.4,0.4 0.5,1 0.1,1.4 -0.4,0.5 -0.8,1 -1.3,1.6 -0.1,0.2 -0.4,0.3 -0.7,0.3 z m 3.8,-4.7 c -0.2,0 -0.5,-0.1 -0.7,-0.2 -0.4,-0.4 -0.5,-1 -0.1,-1.4 0.4,-0.5 0.9,-1 1.3,-1.5 0.4,-0.4 1,-0.4 1.4,-0.1 0.4,0.4 0.4,1 0.1,1.4 -0.4,0.5 -0.9,1 -1.3,1.5 -0.1,0.2 -0.4,0.3 -0.7,0.3 z m 4.1,-4.4 c -0.2,0 -0.5,-0.1 -0.7,-0.3 -0.4,-0.4 -0.4,-1 0,-1.4 0.5,-0.5 0.9,-1 1.4,-1.5 0.4,-0.4 1,-0.4 1.4,0 0.4,0.4 0.4,1 0,1.4 -0.5,0.5 -0.9,1 -1.4,1.4 -0.1,0.3 -0.4,0.4 -0.7,0.4 z m 4.3,-4.4 c -0.3,0 -0.5,-0.1 -0.7,-0.3 -0.4,-0.4 -0.4,-1 0,-1.4 0.5,-0.5 1,-0.9 1.5,-1.4 0.4,-0.4 1,-0.4 1.4,0 0.4,0.4 0.4,1 0,1.4 -0.5,0.5 -1,0.9 -1.4,1.4 -0.3,0.2 -0.6,0.3 -0.8,0.3 z m 4.4,-4.1 c -0.3,0 -0.5,-0.1 -0.7,-0.3 -0.4,-0.4 -0.3,-1 0.1,-1.4 0.5,-0.5 1,-0.9 1.5,-1.4 0.4,-0.4 1,-0.3 1.4,0.1 0.4,0.4 0.3,1 -0.1,1.4 -0.5,0.4 -1,0.9 -1.5,1.3 -0.2,0.2 -0.5,0.3 -0.7,0.3 z m 4.6,-4 c -0.3,0 -0.6,-0.1 -0.8,-0.4 -0.4,-0.4 -0.3,-1.1 0.1,-1.4 0.5,-0.4 1,-0.9 1.6,-1.3 0.4,-0.4 1.1,-0.3 1.4,0.1 0.4,0.4 0.3,1.1 -0.1,1.4 -0.5,0.4 -1,0.9 -1.5,1.3 -0.3,0.2 -0.5,0.3 -0.7,0.3 z m 4.7,-3.8 c -0.3,0 -0.6,-0.1 -0.8,-0.4 -0.3,-0.4 -0.3,-1.1 0.2,-1.4 0.5,-0.4 1.1,-0.8 1.6,-1.2 0.4,-0.3 1.1,-0.3 1.4,0.2 0.3,0.4 0.3,1.1 -0.2,1.4 -0.5,0.4 -1.1,0.8 -1.6,1.2 -0.2,0.1 -0.4,0.2 -0.6,0.2 z m 4.8,-3.7 c -0.3,0 -0.6,-0.1 -0.8,-0.4 -0.3,-0.4 -0.2,-1.1 0.2,-1.4 0.6,-0.4 1.1,-0.8 1.7,-1.2 0.5,-0.3 1.1,-0.2 1.4,0.2 0.3,0.5 0.2,1.1 -0.2,1.4 -0.5,0.4 -1.1,0.8 -1.6,1.2 -0.3,0.1 -0.5,0.2 -0.7,0.2 z m 5,-3.4 c -0.3,0 -0.6,-0.2 -0.8,-0.4 -0.3,-0.5 -0.2,-1.1 0.3,-1.4 0.6,-0.4 1.1,-0.7 1.7,-1.1 0.5,-0.3 1.1,-0.2 1.4,0.3 0.3,0.5 0.2,1.1 -0.3,1.4 -0.6,0.4 -1.1,0.7 -1.7,1.1 -0.2,0 -0.4,0.1 -0.6,0.1 z m 5.1,-3.3 c -0.3,0 -0.7,-0.2 -0.9,-0.5 -0.3,-0.5 -0.1,-1.1 0.4,-1.4 0.6,-0.3 1.2,-0.7 1.8,-1 0.5,-0.3 1.1,-0.1 1.4,0.4 0.3,0.5 0.1,1.1 -0.4,1.4 -0.6,0.3 -1.2,0.7 -1.7,1 -0.2,0.1 -0.4,0.1 -0.6,0.1 z m 5.4,-2.8 c -0.4,0 -0.7,-0.2 -0.9,-0.6 -0.2,-0.5 0,-1.1 0.5,-1.3 0.6,-0.3 1.2,-0.6 1.8,-0.9 0.5,-0.2 1.1,0 1.3,0.5 0.2,0.5 0,1.1 -0.5,1.3 -0.6,0.3 -1.2,0.6 -1.8,0.9 -0.1,0 -0.3,0.1 -0.4,0.1 z"
                   inkscape:connector-curvature="0"
                   style="fill:#151515" />
              </g>
              <g
                 id="g74">
                <path
                   id="path72"
                   d="m 610.5,279.7 c -0.1,0 -0.3,0 -0.4,-0.1 -0.5,-0.2 -0.7,-0.8 -0.5,-1.3 0.1,-0.3 0.3,-0.6 0.5,-0.9 0.3,-0.5 0.9,-0.7 1.3,-0.4 0.5,0.3 0.7,0.9 0.4,1.3 -0.1,0.3 -0.3,0.6 -0.4,0.9 -0.1,0.3 -0.5,0.5 -0.9,0.5 z"
                   inkscape:connector-curvature="0"
                   style="fill:#151515" />
              </g>
            </g>
          </g>
          <g
             id="g82">
            <path
               id="path80"
               d="m 479.8,116 c -0.2,0 -0.4,0 -0.5,0 -19.9,-0.2 -35,-1.7 -49,-4.8 -0.8,-0.2 -1.3,-1 -1.1,-1.8 0.2,-0.8 1,-1.3 1.8,-1.1 13.8,3 28.8,4.5 48.4,4.7 8.3,0.1 37.9,-1.6 42.9,-4.2 0.7,-0.4 1.6,-0.1 2,0.6 0.4,0.7 0.1,1.6 -0.6,2 -6,3.3 -36.2,4.6 -43.9,4.6 z"
               inkscape:connector-curvature="0"
               style="fill:#151515" />
          </g>
          <g
             id="g86">
            <path
               id="path84"
               d="m 476.7,183.4 c 0,0 0,0 0,0 -1.4,0 -2.6,-0.7 -3.5,-1.2 -2.4,-1.4 -4.8,-2.8 -7.2,-4.3 -22.8,-14.2 -41.9,-33.9 -55.3,-57.2 l 2.6,-1.5 c 13.2,22.8 31.9,42.2 54.3,56.1 2.4,1.5 4.8,2.9 7.1,4.2 0.7,0.4 1.4,0.8 2,0.8 0,0 0,0 0,0 0.5,0 1.1,-0.3 1.8,-0.7 26,-13.7 48.1,-35.4 62.1,-61.2 l 2.6,1.4 c -14.3,26.3 -36.8,48.5 -63.3,62.4 -0.8,0.6 -1.9,1.2 -3.2,1.2 z"
               inkscape:connector-curvature="0"
               style="fill:#151515" />
          </g>
          <g
             id="g90">
            <path
               id="path88"
               d="m 476.5,167.8 c -0.8,0 -1.6,-0.3 -2.3,-0.6 -3.7,-1.5 -6.9,-3.8 -9.9,-6.1 -16.4,-12.7 -30.4,-28.9 -40.7,-46.9 l 2.6,-1.5 c 10.1,17.6 23.9,33.6 39.9,46 3.2,2.5 6.1,4.5 9.2,5.7 0.5,0.2 1,0.4 1.3,0.3 0.4,-0.1 0.9,-0.4 1.2,-0.7 19.1,-13.5 35.5,-31.2 47.3,-51.4 l 2.6,1.5 c -12,20.5 -28.7,38.6 -48.2,52.3 -0.6,0.4 -1.5,1 -2.6,1.2 -0.1,0.2 -0.3,0.2 -0.4,0.2 z"
               inkscape:connector-curvature="0"
               style="fill:#151515" />
          </g>
          <g
             id="g94">
            <path
               id="path92"
               d="m 475.4,181.8 c -0.3,-2.2 -0.3,-6.9 -0.3,-10.7 0,-1.7 0,-3.4 0,-3.9 l 3,-0.2 c 0,0.6 0,2.1 0,4.1 0,3.5 0,8.3 0.3,10.3 z"
               inkscape:connector-curvature="0"
               style="fill:#151515" />
          </g>
          <g
             id="g98">
            <path
               id="path96"
               d="m 477.7,130.3 c -15.7,0 -31.3,-1.7 -46.7,-5 l 0.6,-2.9 c 24.4,5.3 49.4,6.3 74.2,3.1 4.1,-0.5 8.9,-1.3 13.1,-3.1 l 1.2,2.8 c -4.6,2 -9.6,2.8 -13.9,3.3 -9.5,1.2 -19,1.8 -28.5,1.8 z"
               inkscape:connector-curvature="0"
               style="fill:#151515" />
          </g>
          <g
             id="g102">
            <path
               id="path100"
               d="m 481.5,520 h -2 c -0.6,0 -1,-0.4 -1,-1 0,-0.6 0.4,-1 1,-1 h 2 c 0.6,0 1,0.4 1,1 0,0.6 -0.5,1 -1,1 z m 4,-0.1 c -0.5,0 -1,-0.4 -1,-1 0,-0.6 0.4,-1 1,-1 h 2 c 0,0 0,0 0,0 0.5,0 1,0.4 1,1 0,0.6 -0.4,1 -1,1 h -2 c 0,0 0,0 0,0 z m -10,0 c 0,0 0,0 0,0 h -2 c -0.6,0 -1,-0.5 -1,-1 0,-0.5 0.5,-1 1,-1 0,0 0,0 0,0 h 2 c 0.6,0 1,0.5 1,1 0,0.6 -0.5,1 -1,1 z m -6,0 c 0,0 0,0 0,0 h -2 c -0.6,0 -1,-0.5 -1,-1 0,-0.6 0.5,-0.9 1,-1 h 2 c 0.6,0 1,0.5 1,1 0,0.6 -0.5,1 -1,1 z m 22,0 c -0.5,0 -1,-0.4 -1,-1 0,-0.6 0.4,-1 1,-1 h 2 c 0.5,0 1,0.4 1,1 0,0.6 -0.4,1 -1,1 h -2 c 0,0 0,0 0,0 z m -28,-0.1 c 0,0 0,0 0,0 h -2 c -0.6,0 -1,-0.5 -1,-1 0,-0.6 0.5,-1 1,-1 h 2 c 0.6,0 1,0.5 1,1 0,0.6 -0.5,1 -1,1 z m 34,0 c -0.5,0 -1,-0.4 -1,-1 0,-0.6 0.4,-1 1,-1 h 2 c 0.5,0 1,0.4 1,1 0,0.6 -0.4,1 -1,1 h -2 c 0,0 0,0 0,0 z m -40,-0.1 c 0,0 0,0 0,0 h -2 c -0.6,0 -1,-0.5 -1,-1 0,-0.6 0.5,-1 1,-1 h 2 c 0.6,0 1,0.5 1,1 0,0.6 -0.5,1 -1,1 z m 46,-0.1 c -0.5,0 -1,-0.4 -1,-1 0,-0.6 0.4,-1 1,-1 l 2,-0.1 c 0.5,0 1,0.4 1,1 0,0.6 -0.4,1 -1,1 l -2,0.1 c 0,0 0,0 0,0 z m -52,-0.1 c 0,0 0,0 0,0 l -2,-0.1 c -0.6,0 -1,-0.5 -1,-1 0,-0.6 0.5,-1 1,-1 l 2,0.1 c 0.6,0 1,0.5 1,1 0,0.6 -0.5,1 -1,1 z m 57.9,0 c -0.5,0 -1,-0.4 -1,-1 0,-0.6 0.4,-1 1,-1 l 2,-0.1 c 0.6,0 1,0.4 1,1 0,0.6 -0.4,1 -1,1 l -2,0.1 c 0.1,0 0.1,0 0,0 z m -63.9,-0.1 c 0,0 0,0 0,0 l -2,-0.1 c -0.6,0 -1,-0.5 -1,-1 0,-0.6 0.5,-1 1,-1 l 2,0.1 c 0.6,0 1,0.5 1,1 0,0.6 -0.5,1 -1,1 z m 69.9,-0.2 c -0.5,0 -1,-0.4 -1,-1 0,-0.6 0.4,-1 1,-1 l 2,-0.1 c 0.6,0 1,0.4 1,1 0,0.6 -0.4,1 -1,1 l -2,0.1 c 0.1,0 0.1,0 0,0 z m -75.9,0 c 0,0 0,0 0,0 l -2,-0.1 c -0.6,0 -1,-0.5 -1,-1 0,-0.6 0.5,-1 1,-1 l 2,0.1 c 0.6,0 1,0.5 1,1 0,0.6 -0.5,1 -1,1 z m -6,-0.2 c 0,0 0,0 0,0 l -2,-0.1 c -0.6,0 -1,-0.5 -1,-1 0,-0.6 0.5,-1 1,-1 l 2,0.1 c 0.6,0 1,0.5 1,1 0,0.6 -0.5,1 -1,1 z m 87.9,-0.1 c -0.5,0 -1,-0.4 -1,-0.9 0,-0.6 0.4,-1 0.9,-1.1 l 2,-0.1 c 0.6,0 1,0.4 1.1,0.9 0,0.6 -0.4,1 -0.9,1.1 l -2.1,0.1 c 0.1,0 0,0 0,0 z m -93.9,-0.2 c 0,0 0,0 0,0 l -2,-0.1 c -0.6,0 -1,-0.5 -1,-1 0,-0.6 0.5,-1 1,-1 l 2,0.1 c 0.6,0 1,0.5 1,1 0,0.6 -0.5,1 -1,1 z m 99.9,-0.1 c -0.5,0 -1,-0.4 -1,-0.9 0,-0.6 0.4,-1 0.9,-1.1 l 2,-0.1 c 0.6,0 1,0.4 1.1,0.9 0,0.6 -0.4,1 -0.9,1.1 l -2.1,0.1 c 0,0 0,0 0,0 z m -106,-0.1 -2,-0.1 c -0.6,0 -1,-0.5 -1,-1 0,-0.6 0.5,-1 1,-1 l 2,0.1 z m -5.9,-0.2 c 0,0 0,0 0,0 l -2,-0.1 c -0.6,0 -1,-0.5 -1,-1 0,-0.6 0.5,-1 1,-1 l 2,0.1 c 0.6,0 1,0.5 1,1 0,0.5 -0.5,1 -1,1 z m 117.9,-0.1 c -0.5,0 -1,-0.4 -1,-0.9 0,-0.6 0.4,-1 0.9,-1.1 l 2,-0.1 c 0.6,0 1,0.4 1.1,0.9 0,0.6 -0.4,1 -0.9,1.1 l -2.1,0.1 c 0,0 0,0 0,0 z M 409.5,518 c 0,0 0,0 0,0 l -2,-0.1 c -0.6,0 -1,-0.5 -1,-1 0,-0.6 0.5,-1 1,-1 l 2,0.1 c 0.6,0 1,0.5 1,1 0,0.6 -0.5,1 -1,1 z m -6,-0.3 c 0,0 0,0 0,0 l -2,-0.1 c -0.6,0 -1,-0.5 -1,-1 0,-0.6 0.5,-1 1,-1 l 2,0.1 c 0.6,0 1,0.5 1,1 0,0.6 -0.5,1 -1,1 z m 135.9,0 c -0.5,0 -1,-0.4 -1,-0.9 0,-0.6 0.4,-1 0.9,-1.1 l 2,-0.2 c 0.6,-0.1 1,0.4 1.1,0.9 0,0.6 -0.4,1 -0.9,1.1 l -2.1,0.2 c 0,0 0,0 0,0 z m -141.9,-0.3 c 0,0 0,0 0,0 l -2.1,-0.1 c -0.6,0 -1,-0.5 -0.9,-1.1 0,-0.6 0.5,-1 1.1,-0.9 l 2,0.1 c 0.6,0 1,0.5 0.9,1 0,0.6 -0.5,1 -1,1 z m 147.8,-0.2 c -0.5,0 -0.9,-0.4 -1,-0.9 -0.1,-0.5 0.4,-1 0.9,-1.1 l 2,-0.2 c 0.5,0 1,0.3 1.1,0.9 0.1,0.5 -0.3,1 -0.9,1.1 l -2.1,0.2 c 0.1,0 0.1,0 0,0 z m -153.8,-0.1 c 0,0 0,0 0,0 -0.7,0 -1.4,-0.1 -2.1,-0.1 -0.6,0 -1,-0.5 -0.9,-1.1 0,-0.6 0.5,-1 1.1,-0.9 0.7,0 1.3,0.1 2,0.1 0.6,0 1,0.5 0.9,1.1 0,0.5 -0.5,0.9 -1,0.9 z m -6,-0.4 c 0,0 0,-0.1 0,0 -0.8,-0.1 -1.4,-0.1 -2.1,-0.2 -0.5,-0.1 -1,-0.5 -0.9,-1.1 0.1,-0.5 0.5,-0.9 1.1,-0.9 0.7,0.1 1.3,0.1 2,0.2 0.6,0 1,0.5 0.9,1.1 0,0.5 -0.5,0.9 -1,0.9 z m 165.8,-0.1 c -0.5,0 -0.9,-0.4 -1,-0.9 -0.1,-0.5 0.3,-1 0.9,-1.1 l 2,-0.2 c 0.5,-0.1 1,0.3 1.1,0.9 0.1,0.5 -0.3,1 -0.9,1.1 l -2,0.2 c 0,0 -0.1,0 -0.1,0 z M 379.6,516 c 0,0 -0.1,0 -0.1,0 -0.7,-0.1 -1.3,-0.2 -2,-0.3 -0.5,-0.1 -0.9,-0.6 -0.9,-1.1 0.1,-0.5 0.6,-0.9 1.1,-0.9 0.7,0.1 1.3,0.2 2,0.2 0.5,0.1 0.9,0.6 0.9,1.1 -0.1,0.7 -0.5,1 -1,1 z m 177.6,-0.1 c -0.5,0 -0.9,-0.4 -1,-0.9 -0.1,-0.5 0.3,-1 0.9,-1.1 l 2,-0.2 c 0.5,-0.1 1,0.3 1.1,0.9 0.1,0.5 -0.3,1 -0.9,1.1 l -2,0.2 c 0,0 0,0 -0.1,0 z m -183.6,-0.7 c -0.1,0 -0.1,0 -0.2,0 -0.7,-0.1 -1.3,-0.2 -2,-0.3 -0.5,-0.1 -0.9,-0.6 -0.8,-1.2 0.1,-0.5 0.6,-0.9 1.2,-0.8 0.7,0.1 1.3,0.2 2,0.3 0.5,0.1 0.9,0.6 0.8,1.1 -0.1,0.5 -0.5,0.9 -1,0.9 z m 189.6,0 c -0.5,0 -0.9,-0.4 -1,-0.9 -0.1,-0.5 0.3,-1 0.9,-1.1 l 2,-0.3 c 0.5,-0.1 1,0.3 1.1,0.9 0.1,0.6 -0.3,1 -0.9,1.1 l -2,0.3 c 0,0 -0.1,0 -0.1,0 z m 5.9,-0.8 c -0.5,0 -0.9,-0.4 -1,-0.9 -0.1,-0.5 0.3,-1.1 0.9,-1.1 l 2,-0.3 c 0.5,-0.1 1.1,0.3 1.1,0.8 0.1,0.5 -0.3,1.1 -0.8,1.1 l -2,0.3 c -0.1,0.1 -0.1,0.1 -0.2,0.1 z m -201.4,-0.3 c -0.1,0 -0.1,0 -0.2,0 -0.7,-0.1 -1.3,-0.3 -2,-0.4 -0.5,-0.1 -0.9,-0.7 -0.7,-1.2 0.1,-0.5 0.7,-0.9 1.2,-0.7 0.6,0.1 1.3,0.3 1.9,0.4 0.5,0.1 0.9,0.6 0.8,1.2 -0.1,0.4 -0.5,0.7 -1,0.7 z M 575,513.5 c -0.5,0 -0.9,-0.4 -1,-0.9 -0.1,-0.5 0.3,-1.1 0.8,-1.1 l 2,-0.3 c 0.5,-0.1 1.1,0.3 1.1,0.8 0.1,0.5 -0.3,1.1 -0.8,1.1 l -2,0.3 c 0,0.1 0,0.1 -0.1,0.1 z m -213.1,-0.8 c -0.1,0 -0.2,0 -0.3,0 -0.6,-0.2 -1.3,-0.4 -1.9,-0.6 -0.5,-0.2 -0.8,-0.7 -0.7,-1.2 0.2,-0.5 0.7,-0.8 1.2,-0.7 0.6,0.2 1.3,0.4 1.9,0.5 0.5,0.1 0.8,0.7 0.7,1.2 -0.1,0.5 -0.5,0.8 -0.9,0.8 z M 581,512.6 c -0.5,0 -0.9,-0.3 -1,-0.8 -0.1,-0.5 0.3,-1.1 0.8,-1.1 l 2,-0.3 c 0.5,-0.1 1.1,0.3 1.2,0.8 0.1,0.5 -0.3,1.1 -0.8,1.2 l -2,0.3 c -0.1,-0.1 -0.2,-0.1 -0.2,-0.1 z m 5.9,-1 c -0.5,0 -0.9,-0.3 -1,-0.8 -0.1,-0.5 0.3,-1.1 0.8,-1.2 l 2,-0.3 c 0.5,-0.1 1.1,0.3 1.2,0.8 0.1,0.5 -0.3,1.1 -0.8,1.2 l -2,0.3 c -0.1,0 -0.2,0 -0.2,0 z m 5.8,-1 c -0.5,0 -0.9,-0.3 -1,-0.8 -0.1,-0.5 0.3,-1.1 0.8,-1.2 l 2,-0.4 c 0.5,-0.1 1.1,0.3 1.2,0.8 0.1,0.5 -0.3,1.1 -0.8,1.2 l -2,0.4 c 0,-0.1 -0.1,0 -0.2,0 z m 5.9,-1.2 c -0.5,0 -0.9,-0.3 -1,-0.8 -0.1,-0.5 0.2,-1.1 0.8,-1.2 l 2,-0.4 c 0.5,-0.1 1.1,0.2 1.2,0.8 0.1,0.5 -0.2,1.1 -0.8,1.2 l -2,0.4 c 0,0 -0.1,0 -0.2,0 z"
               inkscape:connector-curvature="0"
               style="fill:#151515" />
          </g>
        </g>
        <path
           id="path106"
           d="m 307.8,236.9 c -0.4,-0.3 -1.1,-0.3 -1.4,0.2 -0.3,0.4 -0.3,1.1 0.2,1.4 0.5,0.4 1.1,0.8 1.6,1.2 0.2,0.1 0.4,0.2 0.6,0.2 0.3,0 0.6,-0.1 0.8,-0.4 0.3,-0.4 0.3,-1.1 -0.2,-1.4 -0.5,-0.3 -1,-0.8 -1.6,-1.2 z"
           inkscape:connector-curvature="0"
           style="fill:#151515" />
        <path
           id="path108"
           d="m 302.9,233.3 c -0.5,-0.3 -1.1,-0.2 -1.4,0.2 -0.3,0.4 -0.2,1.1 0.2,1.4 0.5,0.4 1.1,0.8 1.6,1.2 0.2,0.1 0.4,0.2 0.6,0.2 0.3,0 0.6,-0.1 0.8,-0.4 0.3,-0.4 0.2,-1.1 -0.2,-1.4 -0.5,-0.4 -1,-0.8 -1.6,-1.2 z"
           inkscape:connector-curvature="0"
           style="fill:#151515" />
        <path
           id="path110"
           d="m 312.6,240.7 c -0.4,-0.4 -1.1,-0.3 -1.4,0.1 -0.4,0.4 -0.3,1.1 0.1,1.4 0.5,0.4 1,0.9 1.5,1.3 0.2,0.2 0.4,0.2 0.6,0.2 0.3,0 0.6,-0.1 0.8,-0.4 0.4,-0.4 0.3,-1.1 -0.1,-1.4 -0.4,-0.3 -1,-0.7 -1.5,-1.2 z"
           inkscape:connector-curvature="0"
           style="fill:#151515" />
        <path
           id="path112"
           d="m 317.2,244.7 c -0.4,-0.4 -1,-0.3 -1.4,0.1 -0.4,0.4 -0.3,1 0.1,1.4 0.5,0.4 1,0.9 1.5,1.3 0.2,0.2 0.4,0.3 0.7,0.3 0.3,0 0.5,-0.1 0.7,-0.3 0.4,-0.4 0.3,-1 -0.1,-1.4 -0.4,-0.5 -0.9,-1 -1.5,-1.4 z"
           inkscape:connector-curvature="0"
           style="fill:#151515" />
        <path
           id="path114"
           d="m 299.6,231 c -0.6,-0.4 -1.1,-0.7 -1.7,-1.1 -0.5,-0.3 -1.1,-0.2 -1.4,0.3 -0.3,0.5 -0.2,1.1 0.3,1.4 0.6,0.4 1.1,0.7 1.7,1.1 0.2,0.1 0.4,0.2 0.5,0.2 0.3,0 0.6,-0.2 0.8,-0.4 0.3,-0.6 0.2,-1.2 -0.2,-1.5 z"
           inkscape:connector-curvature="0"
           style="fill:#151515" />
        <path
           id="path116"
           d="m 289,224.9 c -0.6,-0.3 -1.2,-0.6 -1.8,-0.9 -0.5,-0.2 -1.1,0 -1.3,0.5 -0.2,0.5 0,1.1 0.5,1.3 0.6,0.3 1.2,0.6 1.8,0.9 0.1,0.1 0.3,0.1 0.4,0.1 0.4,0 0.7,-0.2 0.9,-0.6 0.2,-0.5 0,-1.1 -0.5,-1.3 z"
           inkscape:connector-curvature="0"
           style="fill:#151515" />
        <path
           id="path118"
           d="m 321.7,248.8 c -0.4,-0.4 -1,-0.4 -1.4,0 -0.4,0.4 -0.4,1 0,1.4 0.5,0.5 1,0.9 1.4,1.4 0.2,0.2 0.4,0.3 0.7,0.3 0.3,0 0.5,-0.1 0.7,-0.3 0.4,-0.4 0.4,-1 0,-1.4 -0.4,-0.4 -0.9,-0.9 -1.4,-1.4 z"
           inkscape:connector-curvature="0"
           style="fill:#151515" />
        <path
           id="path120"
           d="m 334.2,262.2 c -0.3,-0.4 -1,-0.5 -1.4,-0.1 -0.4,0.4 -0.5,1 -0.1,1.4 0.4,0.5 0.8,1 1.3,1.6 0.2,0.2 0.5,0.4 0.8,0.4 0.2,0 0.4,-0.1 0.6,-0.2 0.4,-0.3 0.5,-1 0.2,-1.4 -0.5,-0.6 -0.9,-1.2 -1.4,-1.7 z"
           inkscape:connector-curvature="0"
           style="fill:#151515" />
        <path
           id="path122"
           d="m 338,267 c -0.3,-0.4 -1,-0.5 -1.4,-0.2 -0.4,0.3 -0.5,1 -0.2,1.4 0.4,0.5 0.8,1.1 1.2,1.6 0.2,0.3 0.5,0.4 0.8,0.4 0.2,0 0.4,-0.1 0.6,-0.2 0.5,-0.3 0.6,-0.9 0.2,-1.4 -0.4,-0.5 -0.8,-1 -1.2,-1.6 z"
           inkscape:connector-curvature="0"
           style="fill:#151515" />
        <path
           id="path124"
           d="m 341.4,272.1 c -0.3,-0.5 -0.9,-0.6 -1.4,-0.3 -0.5,0.3 -0.6,0.9 -0.3,1.4 0.4,0.6 0.7,1.1 1,1.7 0.2,0.3 0.5,0.5 0.9,0.5 0.2,0 0.4,0 0.5,-0.1 0.5,-0.3 0.6,-0.9 0.3,-1.4 -0.2,-0.6 -0.6,-1.2 -1,-1.8 z"
           inkscape:connector-curvature="0"
           style="fill:#151515" />
        <path
           id="path126"
           d="m 330.3,257.6 c -0.4,-0.4 -1,-0.4 -1.4,-0.1 -0.4,0.4 -0.4,1 -0.1,1.4 0.4,0.5 0.9,1 1.3,1.5 0.2,0.2 0.5,0.3 0.8,0.3 0.2,0 0.5,-0.1 0.7,-0.2 0.4,-0.4 0.5,-1 0.1,-1.4 -0.5,-0.5 -1,-1 -1.4,-1.5 z"
           inkscape:connector-curvature="0"
           style="fill:#151515" />
        <path
           id="path128"
           d="m 294.4,227.8 c -0.6,-0.3 -1.2,-0.7 -1.8,-1 -0.5,-0.3 -1.1,-0.1 -1.4,0.4 -0.3,0.5 -0.1,1.1 0.4,1.4 0.6,0.3 1.2,0.7 1.7,1 0.2,0.1 0.3,0.1 0.5,0.1 0.3,0 0.7,-0.2 0.9,-0.5 0.3,-0.5 0.1,-1.1 -0.3,-1.4 z"
           inkscape:connector-curvature="0"
           style="fill:#151515" />
        <path
           id="path130"
           d="m 326.1,253.1 c -0.4,-0.4 -1,-0.4 -1.4,0 -0.4,0.4 -0.4,1 0,1.4 0.5,0.5 0.9,1 1.4,1.4 0.2,0.2 0.5,0.3 0.7,0.3 0.2,0 0.5,-0.1 0.7,-0.3 0.4,-0.4 0.4,-1 0,-1.4 -0.5,-0.4 -0.9,-0.9 -1.4,-1.4 z"
           inkscape:connector-curvature="0"
           style="fill:#151515" />
        <path
           id="path132"
           d="m 616.2,270.3 c 0.3,0 0.6,-0.1 0.8,-0.4 0.4,-0.5 0.8,-1.1 1.2,-1.6 0.3,-0.4 0.2,-1.1 -0.2,-1.4 -0.4,-0.3 -1.1,-0.2 -1.4,0.2 -0.4,0.6 -0.8,1.1 -1.2,1.7 -0.3,0.5 -0.2,1.1 0.2,1.4 0.2,0 0.4,0.1 0.6,0.1 z"
           inkscape:connector-curvature="0"
           style="fill:#151515" />
        <path
           id="path134"
           d="m 650.6,236.3 c 0.2,0 0.4,-0.1 0.6,-0.2 0.5,-0.4 1.1,-0.8 1.6,-1.2 0.5,-0.3 0.6,-0.9 0.2,-1.4 -0.3,-0.5 -0.9,-0.6 -1.4,-0.2 -0.6,0.4 -1.1,0.8 -1.7,1.2 -0.4,0.3 -0.5,0.9 -0.2,1.4 0.3,0.3 0.6,0.4 0.9,0.4 z"
           inkscape:connector-curvature="0"
           style="fill:#151515" />
        <path
           id="path136"
           d="m 636.5,247.8 c 0.2,0 0.5,-0.1 0.7,-0.3 0.5,-0.5 1,-0.9 1.5,-1.3 0.4,-0.4 0.5,-1 0.1,-1.4 -0.4,-0.4 -1,-0.5 -1.4,-0.1 -0.5,0.4 -1,0.9 -1.5,1.4 -0.4,0.4 -0.4,1 -0.1,1.4 0.2,0.2 0.4,0.3 0.7,0.3 z"
           inkscape:connector-curvature="0"
           style="fill:#151515" />
        <path
           id="path138"
           d="m 645.8,240 c 0.2,0 0.4,-0.1 0.6,-0.2 0.5,-0.4 1.1,-0.8 1.6,-1.2 0.4,-0.3 0.5,-1 0.2,-1.4 -0.3,-0.4 -1,-0.5 -1.4,-0.2 -0.5,0.4 -1.1,0.8 -1.6,1.2 -0.4,0.3 -0.5,1 -0.2,1.4 0.2,0.2 0.5,0.4 0.8,0.4 z"
           inkscape:connector-curvature="0"
           style="fill:#151515" />
        <path
           id="path140"
           d="m 641.1,243.8 c 0.2,0 0.5,-0.1 0.6,-0.2 0.5,-0.4 1,-0.9 1.5,-1.3 0.4,-0.4 0.5,-1 0.1,-1.4 -0.4,-0.4 -1,-0.5 -1.4,-0.1 -0.5,0.4 -1,0.9 -1.6,1.3 -0.4,0.4 -0.5,1 -0.1,1.4 0.3,0.2 0.6,0.3 0.9,0.3 z"
           inkscape:connector-curvature="0"
           style="fill:#151515" />
        <path
           id="path142"
           d="m 627.8,256.3 c 0.3,0 0.5,-0.1 0.7,-0.3 0.5,-0.5 0.9,-1 1.4,-1.4 0.4,-0.4 0.4,-1 0,-1.4 -0.4,-0.4 -1,-0.4 -1.4,0 -0.5,0.5 -0.9,1 -1.4,1.5 -0.4,0.4 -0.4,1 0,1.4 0.2,0.1 0.5,0.2 0.7,0.2 z"
           inkscape:connector-curvature="0"
           style="fill:#151515" />
        <path
           id="path144"
           d="m 632.1,251.9 c 0.3,0 0.5,-0.1 0.7,-0.3 0.5,-0.5 1,-0.9 1.4,-1.4 0.4,-0.4 0.4,-1 0,-1.4 -0.4,-0.4 -1,-0.4 -1.4,0 -0.5,0.5 -1,0.9 -1.5,1.4 -0.4,0.4 -0.4,1 0,1.4 0.3,0.2 0.5,0.3 0.8,0.3 z"
           inkscape:connector-curvature="0"
           style="fill:#151515" />
        <path
           id="path146"
           d="m 660.7,229.6 c 0.2,0 0.3,0 0.5,-0.1 0.6,-0.3 1.2,-0.7 1.7,-1 0.5,-0.3 0.7,-0.9 0.4,-1.4 -0.3,-0.5 -0.9,-0.7 -1.4,-0.4 -0.6,0.3 -1.2,0.7 -1.8,1 -0.5,0.3 -0.6,0.9 -0.4,1.4 0.4,0.4 0.7,0.5 1,0.5 z"
           inkscape:connector-curvature="0"
           style="fill:#151515" />
        <path
           id="path148"
           d="m 619.9,265.4 c 0.3,0 0.6,-0.1 0.8,-0.4 0.4,-0.5 0.8,-1 1.3,-1.6 0.4,-0.4 0.3,-1.1 -0.1,-1.4 -0.4,-0.3 -1.1,-0.3 -1.4,0.1 -0.4,0.5 -0.9,1.1 -1.3,1.6 -0.3,0.4 -0.3,1.1 0.2,1.4 0,0.2 0.2,0.3 0.5,0.3 z"
           inkscape:connector-curvature="0"
           style="fill:#151515" />
        <path
           id="path150"
           d="m 623.7,260.7 c 0.3,0 0.6,-0.1 0.8,-0.3 0.4,-0.5 0.9,-1 1.3,-1.5 0.4,-0.4 0.3,-1 -0.1,-1.4 -0.4,-0.4 -1,-0.3 -1.4,0.1 -0.5,0.5 -0.9,1 -1.3,1.5 -0.4,0.4 -0.3,1 0.1,1.4 0.2,0.2 0.4,0.2 0.6,0.2 z"
           inkscape:connector-curvature="0"
           style="fill:#151515" />
        <path
           id="path152"
           d="m 655.6,232.9 c 0.2,0 0.4,-0.1 0.5,-0.2 0.6,-0.4 1.1,-0.7 1.7,-1.1 0.5,-0.3 0.6,-0.9 0.3,-1.4 -0.3,-0.5 -0.9,-0.6 -1.4,-0.3 -0.6,0.4 -1.1,0.7 -1.7,1.1 -0.5,0.3 -0.6,0.9 -0.3,1.4 0.2,0.3 0.6,0.5 0.9,0.5 z"
           inkscape:connector-curvature="0"
           style="fill:#151515" />
        <path
           id="path154"
           d="m 666.1,226.8 c 0.1,0 0.3,0 0.4,-0.1 0.6,-0.3 1.2,-0.6 1.8,-0.9 0.5,-0.2 0.7,-0.8 0.5,-1.3 -0.2,-0.5 -0.8,-0.7 -1.3,-0.5 -0.6,0.3 -1.2,0.6 -1.8,0.9 -0.5,0.2 -0.7,0.8 -0.5,1.3 0.1,0.4 0.5,0.6 0.9,0.6 z"
           inkscape:connector-curvature="0"
           style="fill:#151515" />
        <path
           id="path156"
           d="m 614.5,271.8 c -0.5,-0.3 -1.1,-0.2 -1.4,0.3 -0.4,0.6 -0.7,1.2 -1.1,1.7 -0.3,0.5 -0.1,1.1 0.3,1.4 0.2,0.1 0.3,0.1 0.5,0.1 0.3,0 0.7,-0.2 0.9,-0.5 0.3,-0.6 0.7,-1.1 1,-1.7 0.4,-0.4 0.3,-1 -0.2,-1.3 z"
           inkscape:connector-curvature="0"
           style="fill:#151515" />
        <path
           id="path158"
           d="m 403.5,515.7 -2,-0.1 c -0.6,0 -1,0.4 -1,1 0,0.6 0.4,1 1,1 l 2,0.1 c 0,0 0,0 0,0 0.5,0 1,-0.4 1,-1 0,-0.5 -0.4,-1 -1,-1 z"
           inkscape:connector-curvature="0"
           style="fill:#151515" />
        <path
           id="path160"
           d="m 397.5,515.4 -2,-0.1 c -0.5,-0.1 -1,0.4 -1.1,0.9 0,0.6 0.4,1 0.9,1.1 l 2,0.1 c 0,0 0,0 0.1,0 0.5,0 1,-0.4 1,-1 0.1,-0.5 -0.3,-0.9 -0.9,-1 z"
           inkscape:connector-curvature="0"
           style="fill:#151515" />
        <path
           id="path162"
           d="m 415.5,516.3 -2,-0.1 c -0.6,0 -1,0.4 -1,1 0,0.6 0.4,1 1,1 l 2,0.1 c 0,0 0,0 0,0 0.5,0 1,-0.4 1,-1 0,-0.6 -0.4,-1 -1,-1 z"
           inkscape:connector-curvature="0"
           style="fill:#151515" />
        <path
           id="path164"
           d="m 409.5,516 -2,-0.1 c -0.6,0 -1,0.4 -1,1 0,0.6 0.4,1 1,1 l 2,0.1 c 0,0 0,0 0,0 0.5,0 1,-0.4 1,-1 0,-0.5 -0.4,-1 -1,-1 z"
           inkscape:connector-curvature="0"
           style="fill:#151515" />
        <path
           id="path166"
           d="m 385.6,514.7 c -0.7,-0.1 -1.3,-0.1 -2,-0.2 -0.6,0 -1,0.3 -1.1,0.9 -0.1,0.5 0.3,1 0.9,1.1 0.7,0.1 1.3,0.1 2,0.2 0,0 0.1,0 0.1,0 0.5,0 0.9,-0.4 1,-0.9 0.1,-0.6 -0.3,-1.1 -0.9,-1.1 z"
           inkscape:connector-curvature="0"
           style="fill:#151515" />
        <path
           id="path168"
           d="m 367.9,512.1 c -0.6,-0.1 -1.3,-0.3 -1.9,-0.4 -0.5,-0.1 -1.1,0.2 -1.2,0.7 -0.1,0.5 0.2,1.1 0.7,1.2 0.7,0.2 1.3,0.3 2,0.4 0.1,0 0.1,0 0.2,0 0.5,0 0.9,-0.3 1,-0.8 0.1,-0.4 -0.2,-1 -0.8,-1.1 z"
           inkscape:connector-curvature="0"
           style="fill:#151515" />
        <path
           id="path170"
           d="m 418.5,517.4 c 0,0.6 0.4,1 1,1 l 2,0.1 v -2 l -2,-0.1 c -0.5,0 -1,0.4 -1,1 z"
           inkscape:connector-curvature="0"
           style="fill:#151515" />
        <path
           id="path172"
           d="m 391.6,515.1 c -0.7,0 -1.3,-0.1 -2,-0.1 -0.6,-0.1 -1,0.4 -1.1,0.9 0,0.6 0.4,1 0.9,1.1 0.7,0 1.3,0.1 2,0.1 0,0 0,0 0.1,0 0.5,0 1,-0.4 1,-0.9 0,-0.6 -0.4,-1.1 -0.9,-1.1 z"
           inkscape:connector-curvature="0"
           style="fill:#151515" />
        <path
           id="path174"
           d="m 379.7,514 c -0.7,-0.1 -1.3,-0.2 -2,-0.2 -0.5,-0.1 -1.1,0.3 -1.1,0.9 -0.1,0.5 0.3,1 0.9,1.1 0.7,0.1 1.3,0.2 2,0.3 0,0 0.1,0 0.1,0 0.5,0 0.9,-0.4 1,-0.9 0,-0.6 -0.4,-1.1 -0.9,-1.2 z"
           inkscape:connector-curvature="0"
           style="fill:#151515" />
        <path
           id="path176"
           d="m 373.8,513.2 c -0.7,-0.1 -1.3,-0.2 -2,-0.3 -0.6,-0.1 -1.1,0.3 -1.2,0.8 -0.1,0.5 0.3,1.1 0.8,1.2 0.7,0.1 1.3,0.2 2,0.3 0.1,0 0.1,0 0.2,0 0.5,0 0.9,-0.3 1,-0.8 0.1,-0.6 -0.3,-1.1 -0.8,-1.2 z"
           inkscape:connector-curvature="0"
           style="fill:#151515" />
        <path
           id="path178"
           d="m 547.2,515 -2,0.2 c -0.6,0.1 -1,0.5 -0.9,1.1 0,0.5 0.5,0.9 1,0.9 0,0 0.1,0 0.1,0 l 2,-0.2 c 0.5,-0.1 1,-0.5 0.9,-1.1 0,-0.6 -0.5,-1 -1.1,-0.9 z"
           inkscape:connector-curvature="0"
           style="fill:#151515" />
        <path
           id="path180"
           d="m 553.2,514.4 -2,0.2 c -0.5,0.1 -0.9,0.5 -0.9,1.1 0.1,0.5 0.5,0.9 1,0.9 0,0 0.1,0 0.1,0 l 2,-0.2 c 0.5,-0.1 0.9,-0.6 0.9,-1.1 -0.1,-0.6 -0.6,-1 -1.1,-0.9 z"
           inkscape:connector-curvature="0"
           style="fill:#151515" />
        <path
           id="path182"
           d="m 517.4,517.1 -2,0.1 c -0.6,0 -1,0.5 -1,1 0,0.5 0.5,1 1,1 0,0 0,0 0,0 l 2,-0.1 c 0.6,0 1,-0.5 1,-1 0,-0.5 -0.5,-1 -1,-1 z"
           inkscape:connector-curvature="0"
           style="fill:#151515" />
        <path
           id="path184"
           d="m 541.3,515.5 -2,0.2 c -0.6,0 -1,0.5 -0.9,1.1 0,0.5 0.5,0.9 1,0.9 0,0 0.1,0 0.1,0 l 2,-0.2 c 0.6,0 1,-0.5 0.9,-1.1 -0.1,-0.5 -0.6,-0.9 -1.1,-0.9 z"
           inkscape:connector-curvature="0"
           style="fill:#151515" />
        <path
           id="path186"
           d="m 523.4,516.8 -2,0.1 c -0.6,0 -1,0.5 -0.9,1.1 0,0.5 0.5,0.9 1,0.9 0,0 0,0 0.1,0 l 2,-0.1 c 0.6,0 1,-0.5 0.9,-1.1 -0.1,-0.5 -0.6,-0.9 -1.1,-0.9 z"
           inkscape:connector-curvature="0"
           style="fill:#151515" />
        <path
           id="path188"
           d="m 529.3,516.4 -2,0.1 c -0.6,0 -1,0.5 -0.9,1.1 0,0.5 0.5,0.9 1,0.9 0,0 0,0 0.1,0 l 2,-0.1 c 0.6,0 1,-0.5 0.9,-1.1 0,-0.5 -0.5,-0.9 -1.1,-0.9 z"
           inkscape:connector-curvature="0"
           style="fill:#151515" />
        <path
           id="path190"
           d="m 535.3,516 -2,0.1 c -0.6,0 -1,0.5 -0.9,1.1 0,0.5 0.5,0.9 1,0.9 0,0 0,0 0.1,0 l 2,-0.1 c 0.6,0 1,-0.5 0.9,-1.1 -0.1,-0.5 -0.5,-0.9 -1.1,-0.9 z"
           inkscape:connector-curvature="0"
           style="fill:#151515" />
        <path
           id="path192"
           d="m 559.1,513.7 -2,0.2 c -0.5,0.1 -0.9,0.6 -0.9,1.1 0.1,0.5 0.5,0.9 1,0.9 0,0 0.1,0 0.1,0 l 2,-0.2 c 0.5,-0.1 0.9,-0.6 0.9,-1.1 -0.1,-0.6 -0.6,-1 -1.1,-0.9 z"
           inkscape:connector-curvature="0"
           style="fill:#151515" />
        <path
           id="path194"
           d="m 582.8,510.3 -2,0.3 c -0.5,0.1 -0.9,0.6 -0.8,1.1 0.1,0.5 0.5,0.8 1,0.8 0.1,0 0.1,0 0.2,0 l 2,-0.3 c 0.5,-0.1 0.9,-0.6 0.8,-1.2 -0.1,-0.6 -0.7,-0.8 -1.2,-0.7 z"
           inkscape:connector-curvature="0"
           style="fill:#151515" />
        <path
           id="path196"
           d="m 588.6,509.3 -2,0.3 c -0.5,0.1 -0.9,0.6 -0.8,1.2 0.1,0.5 0.5,0.8 1,0.8 0.1,0 0.1,0 0.2,0 l 2,-0.3 c 0.5,-0.1 0.9,-0.6 0.8,-1.2 -0.1,-0.5 -0.6,-0.9 -1.2,-0.8 z"
           inkscape:connector-curvature="0"
           style="fill:#151515" />
        <path
           id="path198"
           d="m 594.5,508.2 -2,0.4 c -0.5,0.1 -0.9,0.6 -0.8,1.2 0.1,0.5 0.5,0.8 1,0.8 0.1,0 0.1,0 0.2,0 l 2,-0.4 c 0.5,-0.1 0.9,-0.6 0.8,-1.2 -0.1,-0.6 -0.6,-0.9 -1.2,-0.8 z"
           inkscape:connector-curvature="0"
           style="fill:#151515" />
        <path
           id="path200"
           d="m 427.5,516.8 -2,-0.1 c -0.6,0 -1,0.4 -1,1 0,0.6 0.4,1 1,1 l 2,0.1 c 0,0 0,0 0,0 0.5,0 1,-0.4 1,-1 0,-0.6 -0.4,-1 -1,-1 z"
           inkscape:connector-curvature="0"
           style="fill:#151515" />
        <path
           id="path202"
           d="m 576.9,511.2 -2,0.3 c -0.5,0.1 -0.9,0.6 -0.8,1.1 0.1,0.5 0.5,0.9 1,0.9 0,0 0.1,0 0.1,0 l 2,-0.3 c 0.5,-0.1 0.9,-0.6 0.8,-1.1 -0.1,-0.6 -0.6,-0.9 -1.1,-0.9 z"
           inkscape:connector-curvature="0"
           style="fill:#151515" />
        <path
           id="path204"
           d="m 571,512.1 -2,0.3 c -0.5,0.1 -0.9,0.6 -0.9,1.1 0.1,0.5 0.5,0.9 1,0.9 0,0 0.1,0 0.1,0 l 2,-0.3 c 0.5,-0.1 0.9,-0.6 0.8,-1.1 0,-0.6 -0.5,-1 -1,-0.9 z"
           inkscape:connector-curvature="0"
           style="fill:#151515" />
        <path
           id="path206"
           d="m 565,512.9 -2,0.3 c -0.5,0.1 -0.9,0.6 -0.9,1.1 0.1,0.5 0.5,0.9 1,0.9 0,0 0.1,0 0.1,0 l 2,-0.3 c 0.5,-0.1 0.9,-0.6 0.9,-1.1 0,-0.5 -0.5,-0.9 -1.1,-0.9 z"
           inkscape:connector-curvature="0"
           style="fill:#151515" />
        <path
           id="path208"
           d="m 511.4,517.4 -2,0.1 c -0.6,0 -1,0.5 -1,1 0,0.5 0.5,1 1,1 0,0 0,0 0,0 l 2,-0.1 c 0.6,0 1,-0.5 1,-1 0,-0.6 -0.4,-1.1 -1,-1 z"
           inkscape:connector-curvature="0"
           style="fill:#151515" />
        <path
           id="path210"
           d="m 463.5,517.8 h -2 c -0.5,0 -1,0.4 -1,1 0,0.6 0.4,1 1,1 h 2 c 0,0 0,0 0,0 0.5,0 1,-0.4 1,-1 0,-0.5 -0.5,-1 -1,-1 z"
           inkscape:connector-curvature="0"
           style="fill:#151515" />
        <path
           id="path212"
           d="m 451.5,517.5 -2,-0.1 c -0.6,0 -1,0.4 -1,1 0,0.6 0.4,1 1,1 l 2,0.1 c 0,0 0,0 0,0 0.5,0 1,-0.4 1,-1 0,-0.5 -0.5,-0.9 -1,-1 z"
           inkscape:connector-curvature="0"
           style="fill:#151515" />
        <path
           id="path214"
           d="m 433.5,517 -2,-0.1 c -0.6,0 -1,0.4 -1,1 0,0.6 0.4,1 1,1 l 2,0.1 c 0,0 0,0 0,0 0.5,0 1,-0.4 1,-1 0,-0.5 -0.4,-1 -1,-1 z"
           inkscape:connector-curvature="0"
           style="fill:#151515" />
        <path
           id="path216"
           d="m 445.5,517.4 -2,-0.1 c -0.6,0 -1,0.4 -1,1 0,0.6 0.4,1 1,1 l 2,0.1 c 0,0 0,0 0,0 0.5,0 1,-0.4 1,-1 0,-0.5 -0.4,-1 -1,-1 z"
           inkscape:connector-curvature="0"
           style="fill:#151515" />
        <path
           id="path218"
           d="m 469.5,517.9 h -2 c -0.5,0 -1,0.4 -1,1 0,0.6 0.4,1 1,1 h 2 c 0,0 0,0 0,0 0.5,0 1,-0.4 1,-1 0,-0.5 -0.5,-1 -1,-1 z"
           inkscape:connector-curvature="0"
           style="fill:#151515" />
        <path
           id="path220"
           d="m 439.5,517.2 -2,-0.1 c -0.6,0 -1,0.4 -1,1 0,0.6 0.4,1 1,1 l 2,0.1 c 0,0 0,0 0,0 0.5,0 1,-0.4 1,-1 0,-0.5 -0.4,-1 -1,-1 z"
           inkscape:connector-curvature="0"
           style="fill:#151515" />
        <path
           id="path222"
           d="m 457.5,517.7 h -2 c -0.6,0 -1,0.4 -1,1 0,0.6 0.4,1 1,1 h 2 c 0,0 0,0 0,0 0.5,0 1,-0.4 1,-1 0,-0.5 -0.5,-1 -1,-1 z"
           inkscape:connector-curvature="0"
           style="fill:#151515" />
        <path
           id="path224"
           d="m 499.4,517.7 h -2 c -0.6,0 -1,0.5 -1,1 0,0.5 0.5,1 1,1 0,0 0,0 0,0 h 2 c 0.6,0 1,-0.5 1,-1 0,-0.5 -0.4,-0.9 -1,-1 z"
           inkscape:connector-curvature="0"
           style="fill:#151515" />
        <path
           id="path226"
           d="m 475.5,517.9 h -2 c 0,0 0,0 0,0 -0.5,0 -1,0.4 -1,1 0,0.6 0.4,1 1,1 h 2 c 0,0 0,0 0,0 0.5,0 1,-0.4 1,-1 0,-0.5 -0.5,-1 -1,-1 z"
           inkscape:connector-curvature="0"
           style="fill:#151515" />
        <path
           id="path228"
           d="m 493.4,517.9 h -2 c -0.6,0 -1,0.5 -1,1 0,0.5 0.5,1 1,1 0,0 0,0 0,0 h 2 c 0.6,0 1,-0.5 1,-1 0.1,-0.6 -0.4,-1 -1,-1 z"
           inkscape:connector-curvature="0"
           style="fill:#151515" />
        <path
           id="path230"
           d="m 505.4,517.6 -2,0.1 c -0.6,0 -1,0.5 -1,1 0,0.5 0.5,1 1,1 0,0 0,0 0,0 l 2,-0.1 c 0.6,0 1,-0.5 1,-1 0,-0.6 -0.4,-1 -1,-1 z"
           inkscape:connector-curvature="0"
           style="fill:#151515" />
        <path
           id="path232"
           d="m 487.5,517.9 c 0,0 0,0 0,0 h -2 c -0.6,0 -1,0.5 -1,1 0,0.6 0.5,1 1,1 0,0 0,0 0,0 h 2 c 0.6,0 1,-0.5 1,-1 0,-0.5 -0.5,-1 -1,-1 z"
           inkscape:connector-curvature="0"
           style="fill:#151515" />
        <path
           id="path234"
           d="m 481.5,518 h -2 c -0.6,0 -1,0.4 -1,1 0,0.6 0.4,1 1,1 h 2 c 0.6,0 1,-0.4 1,-1 0,-0.6 -0.5,-1 -1,-1 z"
           inkscape:connector-curvature="0"
           style="fill:#151515" />
        <path
           id="path236"
           d="m 477.8,164.2 c -0.4,0.3 -0.9,0.6 -1.2,0.7 -0.4,0 -0.9,-0.1 -1.3,-0.3 -3.1,-1.3 -5.9,-3.2 -9.2,-5.7 -11.9,-9.2 -22.6,-20.4 -31.4,-32.7 14.2,2.8 28.6,4.3 43.1,4.3 9.5,0 19,-0.6 28.5,-1.8 3.1,-0.4 6.5,-0.9 9.9,-1.9 -10.7,14.2 -23.7,27.1 -38.4,37.4 z"
           inkscape:connector-curvature="0"
           style="fill:#cccccc" />
        <path
           id="path238"
           d="M 333.9,279.2 C 322.8,272.8 308.5,260.7 297.2,250.8 283,238.4 280.4,232.1 280,229.7 c -0.1,0 -0.2,-0.1 -0.2,-0.1 0.1,0 0.1,-0.1 0.2,-0.1 0,0.1 0,0.1 0,0.2 22.4,11.9 41.8,29 56.4,49.7 0.1,0.1 0.2,0.2 0.3,0.4 0.2,0.3 0.4,0.6 0.6,0.8 0,0.1 -0.1,0.1 -0.1,0.2 -0.8,-0.3 -1.5,-0.7 -2.5,-1.3 z"
           inkscape:connector-curvature="0"
           style="fill:#cccccc" />
        <path
           id="path240"
           d="m 619.9,279.6 c -0.9,0.5 -1.7,1 -2.5,1.3 0,-0.1 -0.1,-0.1 -0.1,-0.2 0.2,-0.3 0.4,-0.5 0.6,-0.8 0.1,-0.2 0.2,-0.3 0.3,-0.4 14.6,-20.7 34.1,-37.9 56.4,-49.7 0,-0.1 0.1,0 0,0 -0.4,2.4 -3.1,8.7 -17.2,21.1 -11.2,9.9 -25.6,22 -36.7,28.4 z"
           inkscape:connector-curvature="0"
           style="fill:#cccccc" />
      </g>
    </g>
  </g>
</svg>
